/* XPM */
static char * cesped_15_xpm[] = {
"128 128 32 1",
" 	c #655A4C",
".	c #625D2B",
"+	c #655B49",
"@	c #655C48",
"#	c #64602E",
"$	c #635E34",
"%	c #655B48",
"&	c #64612B",
"*	c #6A7029",
"=	c #63602B",
"-	c #645B47",
";	c #625D35",
">	c #635F2B",
",	c #72751B",
"'	c #635D35",
")	c #64602D",
"!	c #6B7027",
"~	c #6B7028",
"{	c #696C2D",
"]	c #5C402D",
"^	c #777064",
"/	c #787165",
"(	c #99978F",
"_	c #868579",
":	c #6E6559",
"<	c #71685C",
"[	c #70685C",
"}	c #5B3C29",
"|	c #766F63",
"1	c #767064",
"2	c #70675B",
"3	c #736B5F",
"                        ........                ........                ........        ........                        ++++++++",
"                        ........                ........                ........        ........                        ++++++++",
"                        ........                ........                ........        ........                        ++++++++",
"                        ........                ........                ........        ........                        ++++++++",
"                        ........                ........                ........        ........                        ++++++++",
"                        ........                ........                ........        ........                        ++++++++",
"                        ........                ........                ........        ........                        ++++++++",
"                        ........                ........                ........        ........                        ++++++++",
"@@@@@@@@        ########........        ........................................        ........................        $$$$$$$$",
"@@@@@@@@        ########........        ........................................        ........................        $$$$$$$$",
"@@@@@@@@        ########........        ........................................        ........................        $$$$$$$$",
"@@@@@@@@        ########........        ........................................        ........................        $$$$$$$$",
"@@@@@@@@        ########........        ........................................        ........................        $$$$$$$$",
"@@@@@@@@        ########........        ........................................        ........................        $$$$$$$$",
"@@@@@@@@        ########........        ........................................        ........................        $$$$$$$$",
"@@@@@@@@        ########........        ........................................        ........................        $$$$$$$$",
"%%%%%%%%        ########&&&&&&&&&&&&&&&&########********************************========................................--------",
"%%%%%%%%        ########&&&&&&&&&&&&&&&&########********************************========................................--------",
"%%%%%%%%        ########&&&&&&&&&&&&&&&&########********************************========................................--------",
"%%%%%%%%        ########&&&&&&&&&&&&&&&&########********************************========................................--------",
"%%%%%%%%        ########&&&&&&&&&&&&&&&&########********************************========................................--------",
"%%%%%%%%        ########&&&&&&&&&&&&&&&&########********************************========................................--------",
"%%%%%%%%        ########&&&&&&&&&&&&&&&&########********************************========................................--------",
"%%%%%%%%        ########&&&&&&&&&&&&&&&&########********************************========................................--------",
";;;;;;;;>>>>>>>>&&&&&&&&########****************,,,,,,,,,,,,,,,,,,,,,,,,,,,,,,,,****************........&&&&&&&&&&&&&&&&''''''''",
";;;;;;;;>>>>>>>>&&&&&&&&########****************,,,,,,,,,,,,,,,,,,,,,,,,,,,,,,,,****************........&&&&&&&&&&&&&&&&''''''''",
";;;;;;;;>>>>>>>>&&&&&&&&########****************,,,,,,,,,,,,,,,,,,,,,,,,,,,,,,,,****************........&&&&&&&&&&&&&&&&''''''''",
";;;;;;;;>>>>>>>>&&&&&&&&########****************,,,,,,,,,,,,,,,,,,,,,,,,,,,,,,,,****************........&&&&&&&&&&&&&&&&''''''''",
";;;;;;;;>>>>>>>>&&&&&&&&########****************,,,,,,,,,,,,,,,,,,,,,,,,,,,,,,,,****************........&&&&&&&&&&&&&&&&''''''''",
";;;;;;;;>>>>>>>>&&&&&&&&########****************,,,,,,,,,,,,,,,,,,,,,,,,,,,,,,,,****************........&&&&&&&&&&&&&&&&''''''''",
";;;;;;;;>>>>>>>>&&&&&&&&########****************,,,,,,,,,,,,,,,,,,,,,,,,,,,,,,,,****************........&&&&&&&&&&&&&&&&''''''''",
";;;;;;;;>>>>>>>>&&&&&&&&########****************,,,,,,,,,,,,,,,,,,,,,,,,,,,,,,,,****************........&&&&&&&&&&&&&&&&''''''''",
"%%%%%%%%########&&&&&&&&********,,,,,,,,,,,,,,,,,,,,,,,,,,,,,,,,,,,,,,,,,,,,,,,,,,,,,,,,,,,,,,,,********))))))))@@@@@@@@@@@@@@@@",
"%%%%%%%%########&&&&&&&&********,,,,,,,,,,,,,,,,,,,,,,,,,,,,,,,,,,,,,,,,,,,,,,,,,,,,,,,,,,,,,,,,********))))))))@@@@@@@@@@@@@@@@",
"%%%%%%%%########&&&&&&&&********,,,,,,,,,,,,,,,,,,,,,,,,,,,,,,,,,,,,,,,,,,,,,,,,,,,,,,,,,,,,,,,,********))))))))@@@@@@@@@@@@@@@@",
"%%%%%%%%########&&&&&&&&********,,,,,,,,,,,,,,,,,,,,,,,,,,,,,,,,,,,,,,,,,,,,,,,,,,,,,,,,,,,,,,,,********))))))))@@@@@@@@@@@@@@@@",
"%%%%%%%%########&&&&&&&&********,,,,,,,,,,,,,,,,,,,,,,,,,,,,,,,,,,,,,,,,,,,,,,,,,,,,,,,,,,,,,,,,********))))))))@@@@@@@@@@@@@@@@",
"%%%%%%%%########&&&&&&&&********,,,,,,,,,,,,,,,,,,,,,,,,,,,,,,,,,,,,,,,,,,,,,,,,,,,,,,,,,,,,,,,,********))))))))@@@@@@@@@@@@@@@@",
"%%%%%%%%########&&&&&&&&********,,,,,,,,,,,,,,,,,,,,,,,,,,,,,,,,,,,,,,,,,,,,,,,,,,,,,,,,,,,,,,,,********))))))))@@@@@@@@@@@@@@@@",
"%%%%%%%%########&&&&&&&&********,,,,,,,,,,,,,,,,,,,,,,,,,,,,,,,,,,,,,,,,,,,,,,,,,,,,,,,,,,,,,,,,********))))))))@@@@@@@@@@@@@@@@",
"@@@@@@@@&&&&&&&&########,,,,,,,,,,,,,,,,,,,,,,,,,,,,,,,,,,,,,,,,,,,,,,,,,,,,,,,,,,,,,,,,,,,,,,,,********........))))))))%%%%%%%%",
"@@@@@@@@&&&&&&&&########,,,,,,,,,,,,,,,,,,,,,,,,,,,,,,,,,,,,,,,,,,,,,,,,,,,,,,,,,,,,,,,,,,,,,,,,********........))))))))%%%%%%%%",
"@@@@@@@@&&&&&&&&########,,,,,,,,,,,,,,,,,,,,,,,,,,,,,,,,,,,,,,,,,,,,,,,,,,,,,,,,,,,,,,,,,,,,,,,,********........))))))))%%%%%%%%",
"@@@@@@@@&&&&&&&&########,,,,,,,,,,,,,,,,,,,,,,,,,,,,,,,,,,,,,,,,,,,,,,,,,,,,,,,,,,,,,,,,,,,,,,,,********........))))))))%%%%%%%%",
"@@@@@@@@&&&&&&&&########,,,,,,,,,,,,,,,,,,,,,,,,,,,,,,,,,,,,,,,,,,,,,,,,,,,,,,,,,,,,,,,,,,,,,,,,********........))))))))%%%%%%%%",
"@@@@@@@@&&&&&&&&########,,,,,,,,,,,,,,,,,,,,,,,,,,,,,,,,,,,,,,,,,,,,,,,,,,,,,,,,,,,,,,,,,,,,,,,,********........))))))))%%%%%%%%",
"@@@@@@@@&&&&&&&&########,,,,,,,,,,,,,,,,,,,,,,,,,,,,,,,,,,,,,,,,,,,,,,,,,,,,,,,,,,,,,,,,,,,,,,,,********........))))))))%%%%%%%%",
"@@@@@@@@&&&&&&&&########,,,,,,,,,,,,,,,,,,,,,,,,,,,,,,,,,,,,,,,,,,,,,,,,,,,,,,,,,,,,,,,,,,,,,,,,********........))))))))%%%%%%%%",
"''''''''&&&&&&&&!!!!!!!!,,,,,,,,,,,,,,,,,,,,,,,,,,,,,,,,,,,,,,,,,,,,,,,,,,,,,,,,,,,,,,,,,,,,,,,,,,,,,,,,================''''''''",
"''''''''&&&&&&&&!!!!!!!!,,,,,,,,,,,,,,,,,,,,,,,,,,,,,,,,,,,,,,,,,,,,,,,,,,,,,,,,,,,,,,,,,,,,,,,,,,,,,,,,================''''''''",
"''''''''&&&&&&&&!!!!!!!!,,,,,,,,,,,,,,,,,,,,,,,,,,,,,,,,,,,,,,,,,,,,,,,,,,,,,,,,,,,,,,,,,,,,,,,,,,,,,,,,================''''''''",
"''''''''&&&&&&&&!!!!!!!!,,,,,,,,,,,,,,,,,,,,,,,,,,,,,,,,,,,,,,,,,,,,,,,,,,,,,,,,,,,,,,,,,,,,,,,,,,,,,,,,================''''''''",
"''''''''&&&&&&&&!!!!!!!!,,,,,,,,,,,,,,,,,,,,,,,,,,,,,,,,,,,,,,,,,,,,,,,,,,,,,,,,,,,,,,,,,,,,,,,,,,,,,,,,================''''''''",
"''''''''&&&&&&&&!!!!!!!!,,,,,,,,,,,,,,,,,,,,,,,,,,,,,,,,,,,,,,,,,,,,,,,,,,,,,,,,,,,,,,,,,,,,,,,,,,,,,,,,================''''''''",
"''''''''&&&&&&&&!!!!!!!!,,,,,,,,,,,,,,,,,,,,,,,,,,,,,,,,,,,,,,,,,,,,,,,,,,,,,,,,,,,,,,,,,,,,,,,,,,,,,,,,================''''''''",
"''''''''&&&&&&&&!!!!!!!!,,,,,,,,,,,,,,,,,,,,,,,,,,,,,,,,,,,,,,,,,,,,,,,,,,,,,,,,,,,,,,,,,,,,,,,,,,,,,,,,================''''''''",
"%%%%%%%%########!!!!!!!!,,,,,,,,,,,,,,,,,,,,,,,,,,,,,,,,,,,,,,,,,,,,,,,,,,,,,,,,,,,,,,,,,,,,,,,,,,,,,,,,~~~~~~~~########@@@@@@@@",
"%%%%%%%%########!!!!!!!!,,,,,,,,,,,,,,,,,,,,,,,,,,,,,,,,,,,,,,,,,,,,,,,,,,,,,,,,,,,,,,,,,,,,,,,,,,,,,,,,~~~~~~~~########@@@@@@@@",
"%%%%%%%%########!!!!!!!!,,,,,,,,,,,,,,,,,,,,,,,,,,,,,,,,,,,,,,,,,,,,,,,,,,,,,,,,,,,,,,,,,,,,,,,,,,,,,,,,~~~~~~~~########@@@@@@@@",
"%%%%%%%%########!!!!!!!!,,,,,,,,,,,,,,,,,,,,,,,,,,,,,,,,,,,,,,,,,,,,,,,,,,,,,,,,,,,,,,,,,,,,,,,,,,,,,,,,~~~~~~~~########@@@@@@@@",
"%%%%%%%%########!!!!!!!!,,,,,,,,,,,,,,,,,,,,,,,,,,,,,,,,,,,,,,,,,,,,,,,,,,,,,,,,,,,,,,,,,,,,,,,,,,,,,,,,~~~~~~~~########@@@@@@@@",
"%%%%%%%%########!!!!!!!!,,,,,,,,,,,,,,,,,,,,,,,,,,,,,,,,,,,,,,,,,,,,,,,,,,,,,,,,,,,,,,,,,,,,,,,,,,,,,,,,~~~~~~~~########@@@@@@@@",
"%%%%%%%%########!!!!!!!!,,,,,,,,,,,,,,,,,,,,,,,,,,,,,,,,,,,,,,,,,,,,,,,,,,,,,,,,,,,,,,,,,,,,,,,,,,,,,,,,~~~~~~~~########@@@@@@@@",
"%%%%%%%%########!!!!!!!!,,,,,,,,,,,,,,,,,,,,,,,,,,,,,,,,,,,,,,,,,,,,,,,,,,,,,,,,,,,,,,,,,,,,,,,,,,,,,,,,~~~~~~~~########@@@@@@@@",
"@@@@@@@@{{{{{{{{]]]]]]]]]]]]]]]]]]]]]]]]]]]]]]]]]]]]]]]]]]]]]]]]]]]]]]]]]]]]]]]]]]]]]]]]]]]]]]]]]]]]]]]]]]]]]]]]########%%%%%%%%",
"@@@@@@@@{{{{{{{{]]]]]]]]]]]]]]]]]]]]]]]]]]]]]]]]]]]]]]]]]]]]]]]]]]]]]]]]]]]]]]]]]]]]]]]]]]]]]]]]]]]]]]]]]]]]]]]]########%%%%%%%%",
"@@@@@@@@{{{{{{{{]]]]]]]]]]]]]]]]]]]]]]]]]]]]]]]]]]]]]]]]]]]]]]]]]]]]]]]]]]]]]]]]]]]]]]]]]]]]]]]]]]]]]]]]]]]]]]]]########%%%%%%%%",
"@@@@@@@@{{{{{{{{]]]]]]]]]]]]]]]]]]]]]]]]]]]]]]]]]]]]]]]]]]]]]]]]]]]]]]]]]]]]]]]]]]]]]]]]]]]]]]]]]]]]]]]]]]]]]]]]########%%%%%%%%",
"@@@@@@@@{{{{{{{{]]]]]]]]]]]]]]]]]]]]]]]]]]]]]]]]]]]]]]]]]]]]]]]]]]]]]]]]]]]]]]]]]]]]]]]]]]]]]]]]]]]]]]]]]]]]]]]]########%%%%%%%%",
"@@@@@@@@{{{{{{{{]]]]]]]]]]]]]]]]]]]]]]]]]]]]]]]]]]]]]]]]]]]]]]]]]]]]]]]]]]]]]]]]]]]]]]]]]]]]]]]]]]]]]]]]]]]]]]]]########%%%%%%%%",
"@@@@@@@@{{{{{{{{]]]]]]]]]]]]]]]]]]]]]]]]]]]]]]]]]]]]]]]]]]]]]]]]]]]]]]]]]]]]]]]]]]]]]]]]]]]]]]]]]]]]]]]]]]]]]]]]########%%%%%%%%",
"@@@@@@@@{{{{{{{{]]]]]]]]]]]]]]]]]]]]]]]]]]]]]]]]]]]]]]]]]]]]]]]]]]]]]]]]]]]]]]]]]]]]]]]]]]]]]]]]]]]]]]]]]]]]]]]]########%%%%%%%%",
"'''''''']]]]]]]]^^^^^^^^////////((((((((________________________________((((((((::::::::<<<<<<<<[[[[[[[[[[[[[[[[]]]]]]]]''''''''",
"'''''''']]]]]]]]^^^^^^^^////////((((((((________________________________((((((((::::::::<<<<<<<<[[[[[[[[[[[[[[[[]]]]]]]]''''''''",
"'''''''']]]]]]]]^^^^^^^^////////((((((((________________________________((((((((::::::::<<<<<<<<[[[[[[[[[[[[[[[[]]]]]]]]''''''''",
"'''''''']]]]]]]]^^^^^^^^////////((((((((________________________________((((((((::::::::<<<<<<<<[[[[[[[[[[[[[[[[]]]]]]]]''''''''",
"'''''''']]]]]]]]^^^^^^^^////////((((((((________________________________((((((((::::::::<<<<<<<<[[[[[[[[[[[[[[[[]]]]]]]]''''''''",
"'''''''']]]]]]]]^^^^^^^^////////((((((((________________________________((((((((::::::::<<<<<<<<[[[[[[[[[[[[[[[[]]]]]]]]''''''''",
"'''''''']]]]]]]]^^^^^^^^////////((((((((________________________________((((((((::::::::<<<<<<<<[[[[[[[[[[[[[[[[]]]]]]]]''''''''",
"'''''''']]]]]]]]^^^^^^^^////////((((((((________________________________((((((((::::::::<<<<<<<<[[[[[[[[[[[[[[[[]]]]]]]]''''''''",
"}}}}}}}}||||||||11111111((((((((________________________________________________________________((((((((<<<<<<<<22222222}}}}}}}}",
"}}}}}}}}||||||||11111111((((((((________________________________________________________________((((((((<<<<<<<<22222222}}}}}}}}",
"}}}}}}}}||||||||11111111((((((((________________________________________________________________((((((((<<<<<<<<22222222}}}}}}}}",
"}}}}}}}}||||||||11111111((((((((________________________________________________________________((((((((<<<<<<<<22222222}}}}}}}}",
"}}}}}}}}||||||||11111111((((((((________________________________________________________________((((((((<<<<<<<<22222222}}}}}}}}",
"}}}}}}}}||||||||11111111((((((((________________________________________________________________((((((((<<<<<<<<22222222}}}}}}}}",
"}}}}}}}}||||||||11111111((((((((________________________________________________________________((((((((<<<<<<<<22222222}}}}}}}}",
"}}}}}}}}||||||||11111111((((((((________________________________________________________________((((((((<<<<<<<<22222222}}}}}}}}",
"}}}}}}}}33333333((((((((________________________________________________________________________________((((((((22222222}}}}}}}}",
"}}}}}}}}33333333((((((((________________________________________________________________________________((((((((22222222}}}}}}}}",
"}}}}}}}}33333333((((((((________________________________________________________________________________((((((((22222222}}}}}}}}",
"}}}}}}}}33333333((((((((________________________________________________________________________________((((((((22222222}}}}}}}}",
"}}}}}}}}33333333((((((((________________________________________________________________________________((((((((22222222}}}}}}}}",
"}}}}}}}}33333333((((((((________________________________________________________________________________((((((((22222222}}}}}}}}",
"}}}}}}}}33333333((((((((________________________________________________________________________________((((((((22222222}}}}}}}}",
"}}}}}}}}33333333((((((((________________________________________________________________________________((((((((22222222}}}}}}}}",
"}}}}}}}}((((((((________________________________________________________________________________________________((((((((}}}}}}}}",
"}}}}}}}}((((((((________________________________________________________________________________________________((((((((}}}}}}}}",
"}}}}}}}}((((((((________________________________________________________________________________________________((((((((}}}}}}}}",
"}}}}}}}}((((((((________________________________________________________________________________________________((((((((}}}}}}}}",
"}}}}}}}}((((((((________________________________________________________________________________________________((((((((}}}}}}}}",
"}}}}}}}}((((((((________________________________________________________________________________________________((((((((}}}}}}}}",
"}}}}}}}}((((((((________________________________________________________________________________________________((((((((}}}}}}}}",
"}}}}}}}}((((((((________________________________________________________________________________________________((((((((}}}}}}}}",
"}}}}}}}}((((((((________________________________________________________________________________________________((((((((}}}}}}}}",
"}}}}}}}}((((((((________________________________________________________________________________________________((((((((}}}}}}}}",
"}}}}}}}}((((((((________________________________________________________________________________________________((((((((}}}}}}}}",
"}}}}}}}}((((((((________________________________________________________________________________________________((((((((}}}}}}}}",
"}}}}}}}}((((((((________________________________________________________________________________________________((((((((}}}}}}}}",
"}}}}}}}}((((((((________________________________________________________________________________________________((((((((}}}}}}}}",
"}}}}}}}}((((((((________________________________________________________________________________________________((((((((}}}}}}}}",
"}}}}}}}}((((((((________________________________________________________________________________________________((((((((}}}}}}}}",
"}}}}}}}}((((((((________________________________________________________________________________________________((((((((}}}}}}}}",
"}}}}}}}}((((((((________________________________________________________________________________________________((((((((}}}}}}}}",
"}}}}}}}}((((((((________________________________________________________________________________________________((((((((}}}}}}}}",
"}}}}}}}}((((((((________________________________________________________________________________________________((((((((}}}}}}}}",
"}}}}}}}}((((((((________________________________________________________________________________________________((((((((}}}}}}}}",
"}}}}}}}}((((((((________________________________________________________________________________________________((((((((}}}}}}}}",
"}}}}}}}}((((((((________________________________________________________________________________________________((((((((}}}}}}}}",
"}}}}}}}}((((((((________________________________________________________________________________________________((((((((}}}}}}}}",
"}}}}}}}}((((((((________________________________________________________________________________________________((((((((}}}}}}}}",
"}}}}}}}}((((((((________________________________________________________________________________________________((((((((}}}}}}}}",
"}}}}}}}}((((((((________________________________________________________________________________________________((((((((}}}}}}}}",
"}}}}}}}}((((((((________________________________________________________________________________________________((((((((}}}}}}}}",
"}}}}}}}}((((((((________________________________________________________________________________________________((((((((}}}}}}}}",
"}}}}}}}}((((((((________________________________________________________________________________________________((((((((}}}}}}}}",
"}}}}}}}}((((((((________________________________________________________________________________________________((((((((}}}}}}}}",
"}}}}}}}}((((((((________________________________________________________________________________________________((((((((}}}}}}}}"};
