/* XPM */
static char * cesped_27_xpm[] = {
"128 128 7 1",
" 	c #72751B",
".	c #787B21",
"+	c #7F8226",
"@	c #656C17",
"#	c #C6A740",
"$	c #A2783C",
"%	c #636917",
"                                                                                                                                ",
"                                                                                                                                ",
"                                                                                                                                ",
"                                                                                                                                ",
"                                                                                                                                ",
"                                                                                                                                ",
"                                                                                                                                ",
"                                                                                                                                ",
"                                                                                                                                ",
"                                                                                                                                ",
"                                                                                                                                ",
"                                                                                                                                ",
"                                                                                                                                ",
"                                                                                                                                ",
"                                                                                                                                ",
"                                                                                                                                ",
"                                                                                                                                ",
"                                                                                                                                ",
"                                                                                                                                ",
"                                                                                                                                ",
"                                                                                                                                ",
"                                                                                                                                ",
"                                                                                                                                ",
"                                                                                                                                ",
"                                                                                                                                ",
"                                                                                                                                ",
"                                                                                                                                ",
"                                                                                                                                ",
"                                                                                                                                ",
"                                                                                                                                ",
"                                                                                                                                ",
"                                                                                                                                ",
"                                                                                                                                ",
"                                                                                                                                ",
"                                                                                                                                ",
"                                                                                                                                ",
"                                                                                                                                ",
"                                                                                                                                ",
"                                                                                                                                ",
"                                                                                                                                ",
"                        ........++++++++                        ++++++++                                                        ",
"                        ........++++++++                        ++++++++                                                        ",
"                        ........++++++++                        ++++++++                                                        ",
"                        ........++++++++                        ++++++++                                                        ",
"                        ........++++++++                        ++++++++                                                        ",
"                        ........++++++++                        ++++++++                                                        ",
"                        ........++++++++                        ++++++++                                                        ",
"                        ........++++++++                        ++++++++                                                        ",
"                                ++++++++++++++++                ........++++++++                                                ",
"                                ++++++++++++++++                ........++++++++                                                ",
"                                ++++++++++++++++                ........++++++++                                                ",
"                                ++++++++++++++++                ........++++++++                                                ",
"                                ++++++++++++++++                ........++++++++                                                ",
"                                ++++++++++++++++                ........++++++++                                                ",
"                                ++++++++++++++++                ........++++++++                                                ",
"                                ++++++++++++++++                ........++++++++                                                ",
"                                        ................................@@@@@@@@                                                ",
"                                        ................................@@@@@@@@                                                ",
"                                        ................................@@@@@@@@                                                ",
"                                        ................................@@@@@@@@                                                ",
"                                        ................................@@@@@@@@                                                ",
"                                        ................................@@@@@@@@                                                ",
"                                        ................................@@@@@@@@                                                ",
"                                        ................................@@@@@@@@                                                ",
"                                        ################................@@@@@@@@                                                ",
"                                        ################................@@@@@@@@                                                ",
"                                        ################................@@@@@@@@                                                ",
"                                        ################................@@@@@@@@                                                ",
"                                        ################................@@@@@@@@                                                ",
"                                        ################................@@@@@@@@                                                ",
"                                        ################................@@@@@@@@                                                ",
"                                        ################................@@@@@@@@                                                ",
"                                ########$$$$$$$$$$$$$$$$########@@@@@@@@                                                        ",
"                                ########$$$$$$$$$$$$$$$$########@@@@@@@@                                                        ",
"                                ########$$$$$$$$$$$$$$$$########@@@@@@@@                                                        ",
"                                ########$$$$$$$$$$$$$$$$########@@@@@@@@                                                        ",
"                                ########$$$$$$$$$$$$$$$$########@@@@@@@@                                                        ",
"                                ########$$$$$$$$$$$$$$$$########@@@@@@@@                                                        ",
"                                ########$$$$$$$$$$$$$$$$########@@@@@@@@                                                        ",
"                                ########$$$$$$$$$$$$$$$$########@@@@@@@@                                                        ",
"                                %%%%%%%%################%%%%%%%%                                                                ",
"                                %%%%%%%%################%%%%%%%%                                                                ",
"                                %%%%%%%%################%%%%%%%%                                                                ",
"                                %%%%%%%%################%%%%%%%%                                                                ",
"                                %%%%%%%%################%%%%%%%%                                                                ",
"                                %%%%%%%%################%%%%%%%%                                                                ",
"                                %%%%%%%%################%%%%%%%%                                                                ",
"                                %%%%%%%%################%%%%%%%%                                                                ",
"                                        %%%%%%%%%%%%%%%%                                                                        ",
"                                        %%%%%%%%%%%%%%%%                                                                        ",
"                                        %%%%%%%%%%%%%%%%                                                                        ",
"                                        %%%%%%%%%%%%%%%%                                                                        ",
"                                        %%%%%%%%%%%%%%%%                                                                        ",
"                                        %%%%%%%%%%%%%%%%                                                                        ",
"                                        %%%%%%%%%%%%%%%%                                                                        ",
"                                        %%%%%%%%%%%%%%%%                                                                        ",
"                                                                                                                                ",
"                                                                                                                                ",
"                                                                                                                                ",
"                                                                                                                                ",
"                                                                                                                                ",
"                                                                                                                                ",
"                                                                                                                                ",
"                                                                                                                                ",
"                                                                                                                                ",
"                                                                                                                                ",
"                                                                                                                                ",
"                                                                                                                                ",
"                                                                                                                                ",
"                                                                                                                                ",
"                                                                                                                                ",
"                                                                                                                                ",
"                                                                                                                                ",
"                                                                                                                                ",
"                                                                                                                                ",
"                                                                                                                                ",
"                                                                                                                                ",
"                                                                                                                                ",
"                                                                                                                                ",
"                                                                                                                                ",
"                                                                                                                                ",
"                                                                                                                                ",
"                                                                                                                                ",
"                                                                                                                                ",
"                                                                                                                                ",
"                                                                                                                                ",
"                                                                                                                                ",
"                                                                                                                                "};
