/* XPM */
static char * cesped_23_xpm[] = {
"128 128 4 1",
" 	c #72751B",
".	c #7F8226",
"+	c #787B21",
"@	c #656C17",
"                                                                                                                                ",
"                                                                                                                                ",
"                                                                                                                                ",
"                                                                                                                                ",
"                                                                                                                                ",
"                                                                                                                                ",
"                                                                                                                                ",
"                                                                                                                                ",
"                                                                                                                                ",
"                                                                                                                                ",
"                                                                                                                                ",
"                                                                                                                                ",
"                                                                                                                                ",
"                                                                                                                                ",
"                                                                                                                                ",
"                                                                                                                                ",
"                                                                                                                                ",
"                                                                                                                                ",
"                                                                                                                                ",
"                                                                                                                                ",
"                                                                                                                                ",
"                                                                                                                                ",
"                                                                                                                                ",
"                                                                                                                                ",
"                                                                                                                                ",
"                                                                                                                                ",
"                                                                                                                                ",
"                                                                                                                                ",
"                                                                                                                                ",
"                                                                                                                                ",
"                                                                                                                                ",
"                                                                                                                                ",
"                                                                ........        ................                                ",
"                                                                ........        ................                                ",
"                                                                ........        ................                                ",
"                                                                ........        ................                                ",
"                                                                ........        ................                                ",
"                                                                ........        ................                                ",
"                                                                ........        ................                                ",
"                                                                ........        ................                                ",
"                                                ........++++++++++++++++++++++++++++++++                                        ",
"                                                ........++++++++++++++++++++++++++++++++                                        ",
"                                                ........++++++++++++++++++++++++++++++++                                        ",
"                                                ........++++++++++++++++++++++++++++++++                                        ",
"                                                ........++++++++++++++++++++++++++++++++                                        ",
"                                                ........++++++++++++++++++++++++++++++++                                        ",
"                                                ........++++++++++++++++++++++++++++++++                                        ",
"                                                ........++++++++++++++++++++++++++++++++                                        ",
"                                                ........++++++++++++++++@@@@@@@@@@@@@@@@                ........                ",
"                                                ........++++++++++++++++@@@@@@@@@@@@@@@@                ........                ",
"                                                ........++++++++++++++++@@@@@@@@@@@@@@@@                ........                ",
"                                                ........++++++++++++++++@@@@@@@@@@@@@@@@                ........                ",
"                                                ........++++++++++++++++@@@@@@@@@@@@@@@@                ........                ",
"                                                ........++++++++++++++++@@@@@@@@@@@@@@@@                ........                ",
"                                                ........++++++++++++++++@@@@@@@@@@@@@@@@                ........                ",
"                                                ........++++++++++++++++@@@@@@@@@@@@@@@@                ........                ",
"                                        @@@@@@@@++++++++++++++++++++++++@@@@@@@@        ++++++++++++++++@@@@@@@@                ",
"                                        @@@@@@@@++++++++++++++++++++++++@@@@@@@@        ++++++++++++++++@@@@@@@@                ",
"                                        @@@@@@@@++++++++++++++++++++++++@@@@@@@@        ++++++++++++++++@@@@@@@@                ",
"                                        @@@@@@@@++++++++++++++++++++++++@@@@@@@@        ++++++++++++++++@@@@@@@@                ",
"                                        @@@@@@@@++++++++++++++++++++++++@@@@@@@@        ++++++++++++++++@@@@@@@@                ",
"                                        @@@@@@@@++++++++++++++++++++++++@@@@@@@@        ++++++++++++++++@@@@@@@@                ",
"                                        @@@@@@@@++++++++++++++++++++++++@@@@@@@@        ++++++++++++++++@@@@@@@@                ",
"                                        @@@@@@@@++++++++++++++++++++++++@@@@@@@@        ++++++++++++++++@@@@@@@@                ",
"                                        ........++++++++++++++++                        ++++++++@@@@@@@@                        ",
"                                        ........++++++++++++++++                        ++++++++@@@@@@@@                        ",
"                                        ........++++++++++++++++                        ++++++++@@@@@@@@                        ",
"                                        ........++++++++++++++++                        ++++++++@@@@@@@@                        ",
"                                        ........++++++++++++++++                        ++++++++@@@@@@@@                        ",
"                                        ........++++++++++++++++                        ++++++++@@@@@@@@                        ",
"                                        ........++++++++++++++++                        ++++++++@@@@@@@@                        ",
"                                        ........++++++++++++++++                        ++++++++@@@@@@@@                        ",
"                                @@@@@@@@++++++++++++++++@@@@@@@@@@@@@@@@        @@@@@@@@@@@@@@@@                                ",
"                                @@@@@@@@++++++++++++++++@@@@@@@@@@@@@@@@        @@@@@@@@@@@@@@@@                                ",
"                                @@@@@@@@++++++++++++++++@@@@@@@@@@@@@@@@        @@@@@@@@@@@@@@@@                                ",
"                                @@@@@@@@++++++++++++++++@@@@@@@@@@@@@@@@        @@@@@@@@@@@@@@@@                                ",
"                                @@@@@@@@++++++++++++++++@@@@@@@@@@@@@@@@        @@@@@@@@@@@@@@@@                                ",
"                                @@@@@@@@++++++++++++++++@@@@@@@@@@@@@@@@        @@@@@@@@@@@@@@@@                                ",
"                                @@@@@@@@++++++++++++++++@@@@@@@@@@@@@@@@        @@@@@@@@@@@@@@@@                                ",
"                                @@@@@@@@++++++++++++++++@@@@@@@@@@@@@@@@        @@@@@@@@@@@@@@@@                                ",
"                        @@@@@@@@++++++++@@@@@@@@@@@@@@@@                                                                        ",
"                        @@@@@@@@++++++++@@@@@@@@@@@@@@@@                                                                        ",
"                        @@@@@@@@++++++++@@@@@@@@@@@@@@@@                                                                        ",
"                        @@@@@@@@++++++++@@@@@@@@@@@@@@@@                                                                        ",
"                        @@@@@@@@++++++++@@@@@@@@@@@@@@@@                                                                        ",
"                        @@@@@@@@++++++++@@@@@@@@@@@@@@@@                                                                        ",
"                        @@@@@@@@++++++++@@@@@@@@@@@@@@@@                                                                        ",
"                        @@@@@@@@++++++++@@@@@@@@@@@@@@@@                                                                        ",
"                                                                                                                                ",
"                                                                                                                                ",
"                                                                                                                                ",
"                                                                                                                                ",
"                                                                                                                                ",
"                                                                                                                                ",
"                                                                                                                                ",
"                                                                                                                                ",
"                                                                                                                                ",
"                                                                                                                                ",
"                                                                                                                                ",
"                                                                                                                                ",
"                                                                                                                                ",
"                                                                                                                                ",
"                                                                                                                                ",
"                                                                                                                                ",
"                                                                                                                                ",
"                                                                                                                                ",
"                                                                                                                                ",
"                                                                                                                                ",
"                                                                                                                                ",
"                                                                                                                                ",
"                                                                                                                                ",
"                                                                                                                                ",
"                                                                                                                                ",
"                                                                                                                                ",
"                                                                                                                                ",
"                                                                                                                                ",
"                                                                                                                                ",
"                                                                                                                                ",
"                                                                                                                                ",
"                                                                                                                                ",
"                                                                                                                                ",
"                                                                                                                                ",
"                                                                                                                                ",
"                                                                                                                                ",
"                                                                                                                                ",
"                                                                                                                                ",
"                                                                                                                                ",
"                                                                                                                                "};
