/* XPM */
static char * cesped_6_xpm[] = {
"128 128 33 1",
" 	c #72751B",
".	c #70731E",
"+	c #65622D",
"@	c #655B49",
"#	c #6C7027",
"$	c #686C2A",
"%	c #635E34",
"&	c #6B7027",
"*	c #64602E",
"=	c #645B47",
"-	c #70721F",
";	c #64612B",
">	c #635D35",
",	c #6C7126",
"'	c #696C2D",
")	c #655C48",
"!	c #64602D",
"~	c #655B48",
"{	c #63602B",
"]	c #6B7028",
"^	c #5C402D",
"/	c #777064",
"(	c #787165",
"_	c #99978F",
":	c #868579",
"<	c #6E6559",
"[	c #71685C",
"}	c #70685C",
"|	c #5B3C29",
"1	c #766F63",
"2	c #767064",
"3	c #70675B",
"4	c #736B5F",
"                                                                                                        ........++++++++@@@@@@@@",
"                                                                                                        ........++++++++@@@@@@@@",
"                                                                                                        ........++++++++@@@@@@@@",
"                                                                                                        ........++++++++@@@@@@@@",
"                                                                                                        ........++++++++@@@@@@@@",
"                                                                                                        ........++++++++@@@@@@@@",
"                                                                                                        ........++++++++@@@@@@@@",
"                                                                                                        ........++++++++@@@@@@@@",
"                                                                                                        ########$$$$$$$$%%%%%%%%",
"                                                                                                        ########$$$$$$$$%%%%%%%%",
"                                                                                                        ########$$$$$$$$%%%%%%%%",
"                                                                                                        ########$$$$$$$$%%%%%%%%",
"                                                                                                        ########$$$$$$$$%%%%%%%%",
"                                                                                                        ########$$$$$$$$%%%%%%%%",
"                                                                                                        ########$$$$$$$$%%%%%%%%",
"                                                                                                        ########$$$$$$$$%%%%%%%%",
"                                                                                                        &&&&&&&&********========",
"                                                                                                        &&&&&&&&********========",
"                                                                                                        &&&&&&&&********========",
"                                                                                                        &&&&&&&&********========",
"                                                                                                        &&&&&&&&********========",
"                                                                                                        &&&&&&&&********========",
"                                                                                                        &&&&&&&&********========",
"                                                                                                        &&&&&&&&********========",
"                                                                                                        --------;;;;;;;;>>>>>>>>",
"                                                                                                        --------;;;;;;;;>>>>>>>>",
"                                                                                                        --------;;;;;;;;>>>>>>>>",
"                                                                                                        --------;;;;;;;;>>>>>>>>",
"                                                                                                        --------;;;;;;;;>>>>>>>>",
"                                                                                                        --------;;;;;;;;>>>>>>>>",
"                                                                                                        --------;;;;;;;;>>>>>>>>",
"                                                                                                        --------;;;;;;;;>>>>>>>>",
"                                                                                                        ,,,,,,,,''''''''))))))))",
"                                                                                                        ,,,,,,,,''''''''))))))))",
"                                                                                                        ,,,,,,,,''''''''))))))))",
"                                                                                                        ,,,,,,,,''''''''))))))))",
"                                                                                                        ,,,,,,,,''''''''))))))))",
"                                                                                                        ,,,,,,,,''''''''))))))))",
"                                                                                                        ,,,,,,,,''''''''))))))))",
"                                                                                                        ,,,,,,,,''''''''))))))))",
"                                                                                                        --------!!!!!!!!~~~~~~~~",
"                                                                                                        --------!!!!!!!!~~~~~~~~",
"                                                                                                        --------!!!!!!!!~~~~~~~~",
"                                                                                                        --------!!!!!!!!~~~~~~~~",
"                                                                                                        --------!!!!!!!!~~~~~~~~",
"                                                                                                        --------!!!!!!!!~~~~~~~~",
"                                                                                                        --------!!!!!!!!~~~~~~~~",
"                                                                                                        --------!!!!!!!!~~~~~~~~",
"                                                                                                        &&&&&&&&{{{{{{{{>>>>>>>>",
"                                                                                                        &&&&&&&&{{{{{{{{>>>>>>>>",
"                                                                                                        &&&&&&&&{{{{{{{{>>>>>>>>",
"                                                                                                        &&&&&&&&{{{{{{{{>>>>>>>>",
"                                                                                                        &&&&&&&&{{{{{{{{>>>>>>>>",
"                                                                                                        &&&&&&&&{{{{{{{{>>>>>>>>",
"                                                                                                        &&&&&&&&{{{{{{{{>>>>>>>>",
"                                                                                                        &&&&&&&&{{{{{{{{>>>>>>>>",
"                                                                                                        ]]]]]]]]''''''''))))))))",
"                                                                                                        ]]]]]]]]''''''''))))))))",
"                                                                                                        ]]]]]]]]''''''''))))))))",
"                                                                                                        ]]]]]]]]''''''''))))))))",
"                                                                                                        ]]]]]]]]''''''''))))))))",
"                                                                                                        ]]]]]]]]''''''''))))))))",
"                                                                                                        ]]]]]]]]''''''''))))))))",
"                                                                                                        ]]]]]]]]''''''''))))))))",
"                ^^^^^^^^^^^^^^^^^^^^^^^^^^^^^^^^^^^^^^^^^^^^^^^^^^^^^^^^^^^^^^^^^^^^^^^^^^^^^^^^^^^^^^^^^^^^^^^^>>>>>>>>))))))))",
"                ^^^^^^^^^^^^^^^^^^^^^^^^^^^^^^^^^^^^^^^^^^^^^^^^^^^^^^^^^^^^^^^^^^^^^^^^^^^^^^^^^^^^^^^^^^^^^^^^>>>>>>>>))))))))",
"                ^^^^^^^^^^^^^^^^^^^^^^^^^^^^^^^^^^^^^^^^^^^^^^^^^^^^^^^^^^^^^^^^^^^^^^^^^^^^^^^^^^^^^^^^^^^^^^^^>>>>>>>>))))))))",
"                ^^^^^^^^^^^^^^^^^^^^^^^^^^^^^^^^^^^^^^^^^^^^^^^^^^^^^^^^^^^^^^^^^^^^^^^^^^^^^^^^^^^^^^^^^^^^^^^^>>>>>>>>))))))))",
"                ^^^^^^^^^^^^^^^^^^^^^^^^^^^^^^^^^^^^^^^^^^^^^^^^^^^^^^^^^^^^^^^^^^^^^^^^^^^^^^^^^^^^^^^^^^^^^^^^>>>>>>>>))))))))",
"                ^^^^^^^^^^^^^^^^^^^^^^^^^^^^^^^^^^^^^^^^^^^^^^^^^^^^^^^^^^^^^^^^^^^^^^^^^^^^^^^^^^^^^^^^^^^^^^^^>>>>>>>>))))))))",
"                ^^^^^^^^^^^^^^^^^^^^^^^^^^^^^^^^^^^^^^^^^^^^^^^^^^^^^^^^^^^^^^^^^^^^^^^^^^^^^^^^^^^^^^^^^^^^^^^^>>>>>>>>))))))))",
"                ^^^^^^^^^^^^^^^^^^^^^^^^^^^^^^^^^^^^^^^^^^^^^^^^^^^^^^^^^^^^^^^^^^^^^^^^^^^^^^^^^^^^^^^^^^^^^^^^>>>>>>>>))))))))",
"        ^^^^^^^^////////((((((((________::::::::::::::::::::::::::::::::________<<<<<<<<[[[[[[[[}}}}}}}}}}}}}}}}^^^^^^^^>>>>>>>>",
"        ^^^^^^^^////////((((((((________::::::::::::::::::::::::::::::::________<<<<<<<<[[[[[[[[}}}}}}}}}}}}}}}}^^^^^^^^>>>>>>>>",
"        ^^^^^^^^////////((((((((________::::::::::::::::::::::::::::::::________<<<<<<<<[[[[[[[[}}}}}}}}}}}}}}}}^^^^^^^^>>>>>>>>",
"        ^^^^^^^^////////((((((((________::::::::::::::::::::::::::::::::________<<<<<<<<[[[[[[[[}}}}}}}}}}}}}}}}^^^^^^^^>>>>>>>>",
"        ^^^^^^^^////////((((((((________::::::::::::::::::::::::::::::::________<<<<<<<<[[[[[[[[}}}}}}}}}}}}}}}}^^^^^^^^>>>>>>>>",
"        ^^^^^^^^////////((((((((________::::::::::::::::::::::::::::::::________<<<<<<<<[[[[[[[[}}}}}}}}}}}}}}}}^^^^^^^^>>>>>>>>",
"        ^^^^^^^^////////((((((((________::::::::::::::::::::::::::::::::________<<<<<<<<[[[[[[[[}}}}}}}}}}}}}}}}^^^^^^^^>>>>>>>>",
"        ^^^^^^^^////////((((((((________::::::::::::::::::::::::::::::::________<<<<<<<<[[[[[[[[}}}}}}}}}}}}}}}}^^^^^^^^>>>>>>>>",
"||||||||1111111122222222________::::::::::::::::::::::::::::::::::::::::::::::::::::::::::::::::________[[[[[[[[33333333||||||||",
"||||||||1111111122222222________::::::::::::::::::::::::::::::::::::::::::::::::::::::::::::::::________[[[[[[[[33333333||||||||",
"||||||||1111111122222222________::::::::::::::::::::::::::::::::::::::::::::::::::::::::::::::::________[[[[[[[[33333333||||||||",
"||||||||1111111122222222________::::::::::::::::::::::::::::::::::::::::::::::::::::::::::::::::________[[[[[[[[33333333||||||||",
"||||||||1111111122222222________::::::::::::::::::::::::::::::::::::::::::::::::::::::::::::::::________[[[[[[[[33333333||||||||",
"||||||||1111111122222222________::::::::::::::::::::::::::::::::::::::::::::::::::::::::::::::::________[[[[[[[[33333333||||||||",
"||||||||1111111122222222________::::::::::::::::::::::::::::::::::::::::::::::::::::::::::::::::________[[[[[[[[33333333||||||||",
"||||||||1111111122222222________::::::::::::::::::::::::::::::::::::::::::::::::::::::::::::::::________[[[[[[[[33333333||||||||",
"||||||||44444444________::::::::::::::::::::::::::::::::::::::::::::::::::::::::::::::::::::::::::::::::________33333333||||||||",
"||||||||44444444________::::::::::::::::::::::::::::::::::::::::::::::::::::::::::::::::::::::::::::::::________33333333||||||||",
"||||||||44444444________::::::::::::::::::::::::::::::::::::::::::::::::::::::::::::::::::::::::::::::::________33333333||||||||",
"||||||||44444444________::::::::::::::::::::::::::::::::::::::::::::::::::::::::::::::::::::::::::::::::________33333333||||||||",
"||||||||44444444________::::::::::::::::::::::::::::::::::::::::::::::::::::::::::::::::::::::::::::::::________33333333||||||||",
"||||||||44444444________::::::::::::::::::::::::::::::::::::::::::::::::::::::::::::::::::::::::::::::::________33333333||||||||",
"||||||||44444444________::::::::::::::::::::::::::::::::::::::::::::::::::::::::::::::::::::::::::::::::________33333333||||||||",
"||||||||44444444________::::::::::::::::::::::::::::::::::::::::::::::::::::::::::::::::::::::::::::::::________33333333||||||||",
"||||||||________::::::::::::::::::::::::::::::::::::::::::::::::::::::::::::::::::::::::::::::::::::::::::::::::________||||||||",
"||||||||________::::::::::::::::::::::::::::::::::::::::::::::::::::::::::::::::::::::::::::::::::::::::::::::::________||||||||",
"||||||||________::::::::::::::::::::::::::::::::::::::::::::::::::::::::::::::::::::::::::::::::::::::::::::::::________||||||||",
"||||||||________::::::::::::::::::::::::::::::::::::::::::::::::::::::::::::::::::::::::::::::::::::::::::::::::________||||||||",
"||||||||________::::::::::::::::::::::::::::::::::::::::::::::::::::::::::::::::::::::::::::::::::::::::::::::::________||||||||",
"||||||||________::::::::::::::::::::::::::::::::::::::::::::::::::::::::::::::::::::::::::::::::::::::::::::::::________||||||||",
"||||||||________::::::::::::::::::::::::::::::::::::::::::::::::::::::::::::::::::::::::::::::::::::::::::::::::________||||||||",
"||||||||________::::::::::::::::::::::::::::::::::::::::::::::::::::::::::::::::::::::::::::::::::::::::::::::::________||||||||",
"||||||||________::::::::::::::::::::::::::::::::::::::::::::::::::::::::::::::::::::::::::::::::::::::::::::::::________||||||||",
"||||||||________::::::::::::::::::::::::::::::::::::::::::::::::::::::::::::::::::::::::::::::::::::::::::::::::________||||||||",
"||||||||________::::::::::::::::::::::::::::::::::::::::::::::::::::::::::::::::::::::::::::::::::::::::::::::::________||||||||",
"||||||||________::::::::::::::::::::::::::::::::::::::::::::::::::::::::::::::::::::::::::::::::::::::::::::::::________||||||||",
"||||||||________::::::::::::::::::::::::::::::::::::::::::::::::::::::::::::::::::::::::::::::::::::::::::::::::________||||||||",
"||||||||________::::::::::::::::::::::::::::::::::::::::::::::::::::::::::::::::::::::::::::::::::::::::::::::::________||||||||",
"||||||||________::::::::::::::::::::::::::::::::::::::::::::::::::::::::::::::::::::::::::::::::::::::::::::::::________||||||||",
"||||||||________::::::::::::::::::::::::::::::::::::::::::::::::::::::::::::::::::::::::::::::::::::::::::::::::________||||||||",
"||||||||________::::::::::::::::::::::::::::::::::::::::::::::::::::::::::::::::::::::::::::::::::::::::::::::::________||||||||",
"||||||||________::::::::::::::::::::::::::::::::::::::::::::::::::::::::::::::::::::::::::::::::::::::::::::::::________||||||||",
"||||||||________::::::::::::::::::::::::::::::::::::::::::::::::::::::::::::::::::::::::::::::::::::::::::::::::________||||||||",
"||||||||________::::::::::::::::::::::::::::::::::::::::::::::::::::::::::::::::::::::::::::::::::::::::::::::::________||||||||",
"||||||||________::::::::::::::::::::::::::::::::::::::::::::::::::::::::::::::::::::::::::::::::::::::::::::::::________||||||||",
"||||||||________::::::::::::::::::::::::::::::::::::::::::::::::::::::::::::::::::::::::::::::::::::::::::::::::________||||||||",
"||||||||________::::::::::::::::::::::::::::::::::::::::::::::::::::::::::::::::::::::::::::::::::::::::::::::::________||||||||",
"||||||||________::::::::::::::::::::::::::::::::::::::::::::::::::::::::::::::::::::::::::::::::::::::::::::::::________||||||||",
"||||||||________::::::::::::::::::::::::::::::::::::::::::::::::::::::::::::::::::::::::::::::::::::::::::::::::________||||||||",
"||||||||________::::::::::::::::::::::::::::::::::::::::::::::::::::::::::::::::::::::::::::::::::::::::::::::::________||||||||",
"||||||||________::::::::::::::::::::::::::::::::::::::::::::::::::::::::::::::::::::::::::::::::::::::::::::::::________||||||||",
"||||||||________::::::::::::::::::::::::::::::::::::::::::::::::::::::::::::::::::::::::::::::::::::::::::::::::________||||||||",
"||||||||________::::::::::::::::::::::::::::::::::::::::::::::::::::::::::::::::::::::::::::::::::::::::::::::::________||||||||",
"||||||||________::::::::::::::::::::::::::::::::::::::::::::::::::::::::::::::::::::::::::::::::::::::::::::::::________||||||||",
"||||||||________::::::::::::::::::::::::::::::::::::::::::::::::::::::::::::::::::::::::::::::::::::::::::::::::________||||||||",
"||||||||________::::::::::::::::::::::::::::::::::::::::::::::::::::::::::::::::::::::::::::::::::::::::::::::::________||||||||"};
