/* XPM */
static char * cesped_7_xpm[] = {
"128 128 28 1",
" 	c #655A4C",
".	c #625D2B",
"+	c #655B49",
"@	c #6A7029",
"#	c #635E34",
"$	c #72751B",
"%	c #63602B",
"&	c #645B47",
"*	c #64612B",
"=	c #635D35",
"-	c #64602D",
";	c #655C48",
">	c #655B48",
",	c #6B7028",
"'	c #64602E",
")	c #5C402D",
"!	c #777064",
"~	c #787165",
"{	c #99978F",
"]	c #868579",
"^	c #6E6559",
"/	c #71685C",
"(	c #70685C",
"_	c #5B3C29",
":	c #766F63",
"<	c #767064",
"[	c #70675B",
"}	c #736B5F",
"        ........        ........                ........                ........        ........                        ++++++++",
"        ........        ........                ........                ........        ........                        ++++++++",
"        ........        ........                ........                ........        ........                        ++++++++",
"        ........        ........                ........                ........        ........                        ++++++++",
"        ........        ........                ........                ........        ........                        ++++++++",
"        ........        ........                ........                ........        ........                        ++++++++",
"        ........        ........                ........                ........        ........                        ++++++++",
"        ........        ........                ........                ........        ........                        ++++++++",
"........@@@@@@@@................@@@@@@@@................@@@@@@@@................        ........................        ########",
"........@@@@@@@@................@@@@@@@@................@@@@@@@@................        ........................        ########",
"........@@@@@@@@................@@@@@@@@................@@@@@@@@................        ........................        ########",
"........@@@@@@@@................@@@@@@@@................@@@@@@@@................        ........................        ########",
"........@@@@@@@@................@@@@@@@@................@@@@@@@@................        ........................        ########",
"........@@@@@@@@................@@@@@@@@................@@@@@@@@................        ........................        ########",
"........@@@@@@@@................@@@@@@@@................@@@@@@@@................        ........................        ########",
"........@@@@@@@@................@@@@@@@@................@@@@@@@@................        ........................        ########",
"$$$$$$$$@@@@@@@@@@@@@@@@$$$$$$$$@@@@@@@@$$$$$$$$@@@@@@@@@@@@@@@@@@@@@@@@@@@@@@@@%%%%%%%%................................&&&&&&&&",
"$$$$$$$$@@@@@@@@@@@@@@@@$$$$$$$$@@@@@@@@$$$$$$$$@@@@@@@@@@@@@@@@@@@@@@@@@@@@@@@@%%%%%%%%................................&&&&&&&&",
"$$$$$$$$@@@@@@@@@@@@@@@@$$$$$$$$@@@@@@@@$$$$$$$$@@@@@@@@@@@@@@@@@@@@@@@@@@@@@@@@%%%%%%%%................................&&&&&&&&",
"$$$$$$$$@@@@@@@@@@@@@@@@$$$$$$$$@@@@@@@@$$$$$$$$@@@@@@@@@@@@@@@@@@@@@@@@@@@@@@@@%%%%%%%%................................&&&&&&&&",
"$$$$$$$$@@@@@@@@@@@@@@@@$$$$$$$$@@@@@@@@$$$$$$$$@@@@@@@@@@@@@@@@@@@@@@@@@@@@@@@@%%%%%%%%................................&&&&&&&&",
"$$$$$$$$@@@@@@@@@@@@@@@@$$$$$$$$@@@@@@@@$$$$$$$$@@@@@@@@@@@@@@@@@@@@@@@@@@@@@@@@%%%%%%%%................................&&&&&&&&",
"$$$$$$$$@@@@@@@@@@@@@@@@$$$$$$$$@@@@@@@@$$$$$$$$@@@@@@@@@@@@@@@@@@@@@@@@@@@@@@@@%%%%%%%%................................&&&&&&&&",
"$$$$$$$$@@@@@@@@@@@@@@@@$$$$$$$$@@@@@@@@$$$$$$$$@@@@@@@@@@@@@@@@@@@@@@@@@@@@@@@@%%%%%%%%................................&&&&&&&&",
"$$$$$$$$$$$$$$$$$$$$$$$$$$$$$$$$$$$$$$$$$$$$$$$$$$$$$$$$$$$$$$$$$$$$$$$$$$$$$$$$$$$$$$$$@@@@@@@@........****************========",
"$$$$$$$$$$$$$$$$$$$$$$$$$$$$$$$$$$$$$$$$$$$$$$$$$$$$$$$$$$$$$$$$$$$$$$$$$$$$$$$$$$$$$$$$@@@@@@@@........****************========",
"$$$$$$$$$$$$$$$$$$$$$$$$$$$$$$$$$$$$$$$$$$$$$$$$$$$$$$$$$$$$$$$$$$$$$$$$$$$$$$$$$$$$$$$$@@@@@@@@........****************========",
"$$$$$$$$$$$$$$$$$$$$$$$$$$$$$$$$$$$$$$$$$$$$$$$$$$$$$$$$$$$$$$$$$$$$$$$$$$$$$$$$$$$$$$$$@@@@@@@@........****************========",
"$$$$$$$$$$$$$$$$$$$$$$$$$$$$$$$$$$$$$$$$$$$$$$$$$$$$$$$$$$$$$$$$$$$$$$$$$$$$$$$$$$$$$$$$@@@@@@@@........****************========",
"$$$$$$$$$$$$$$$$$$$$$$$$$$$$$$$$$$$$$$$$$$$$$$$$$$$$$$$$$$$$$$$$$$$$$$$$$$$$$$$$$$$$$$$$@@@@@@@@........****************========",
"$$$$$$$$$$$$$$$$$$$$$$$$$$$$$$$$$$$$$$$$$$$$$$$$$$$$$$$$$$$$$$$$$$$$$$$$$$$$$$$$$$$$$$$$@@@@@@@@........****************========",
"$$$$$$$$$$$$$$$$$$$$$$$$$$$$$$$$$$$$$$$$$$$$$$$$$$$$$$$$$$$$$$$$$$$$$$$$$$$$$$$$$$$$$$$$@@@@@@@@........****************========",
"$$$$$$$$$$$$$$$$$$$$$$$$$$$$$$$$$$$$$$$$$$$$$$$$$$$$$$$$$$$$$$$$$$$$$$$$$$$$$$$$$$$$$$$$$$$$$$$$@@@@@@@@--------;;;;;;;;;;;;;;;;",
"$$$$$$$$$$$$$$$$$$$$$$$$$$$$$$$$$$$$$$$$$$$$$$$$$$$$$$$$$$$$$$$$$$$$$$$$$$$$$$$$$$$$$$$$$$$$$$$$@@@@@@@@--------;;;;;;;;;;;;;;;;",
"$$$$$$$$$$$$$$$$$$$$$$$$$$$$$$$$$$$$$$$$$$$$$$$$$$$$$$$$$$$$$$$$$$$$$$$$$$$$$$$$$$$$$$$$$$$$$$$$@@@@@@@@--------;;;;;;;;;;;;;;;;",
"$$$$$$$$$$$$$$$$$$$$$$$$$$$$$$$$$$$$$$$$$$$$$$$$$$$$$$$$$$$$$$$$$$$$$$$$$$$$$$$$$$$$$$$$$$$$$$$$@@@@@@@@--------;;;;;;;;;;;;;;;;",
"$$$$$$$$$$$$$$$$$$$$$$$$$$$$$$$$$$$$$$$$$$$$$$$$$$$$$$$$$$$$$$$$$$$$$$$$$$$$$$$$$$$$$$$$$$$$$$$$@@@@@@@@--------;;;;;;;;;;;;;;;;",
"$$$$$$$$$$$$$$$$$$$$$$$$$$$$$$$$$$$$$$$$$$$$$$$$$$$$$$$$$$$$$$$$$$$$$$$$$$$$$$$$$$$$$$$$$$$$$$$$@@@@@@@@--------;;;;;;;;;;;;;;;;",
"$$$$$$$$$$$$$$$$$$$$$$$$$$$$$$$$$$$$$$$$$$$$$$$$$$$$$$$$$$$$$$$$$$$$$$$$$$$$$$$$$$$$$$$$$$$$$$$$@@@@@@@@--------;;;;;;;;;;;;;;;;",
"$$$$$$$$$$$$$$$$$$$$$$$$$$$$$$$$$$$$$$$$$$$$$$$$$$$$$$$$$$$$$$$$$$$$$$$$$$$$$$$$$$$$$$$$$$$$$$$$@@@@@@@@--------;;;;;;;;;;;;;;;;",
"$$$$$$$$$$$$$$$$$$$$$$$$$$$$$$$$$$$$$$$$$$$$$$$$$$$$$$$$$$$$$$$$$$$$$$$$$$$$$$$$$$$$$$$$$$$$$$$$@@@@@@@@........-------->>>>>>>>",
"$$$$$$$$$$$$$$$$$$$$$$$$$$$$$$$$$$$$$$$$$$$$$$$$$$$$$$$$$$$$$$$$$$$$$$$$$$$$$$$$$$$$$$$$$$$$$$$$@@@@@@@@........-------->>>>>>>>",
"$$$$$$$$$$$$$$$$$$$$$$$$$$$$$$$$$$$$$$$$$$$$$$$$$$$$$$$$$$$$$$$$$$$$$$$$$$$$$$$$$$$$$$$$$$$$$$$$@@@@@@@@........-------->>>>>>>>",
"$$$$$$$$$$$$$$$$$$$$$$$$$$$$$$$$$$$$$$$$$$$$$$$$$$$$$$$$$$$$$$$$$$$$$$$$$$$$$$$$$$$$$$$$$$$$$$$$@@@@@@@@........-------->>>>>>>>",
"$$$$$$$$$$$$$$$$$$$$$$$$$$$$$$$$$$$$$$$$$$$$$$$$$$$$$$$$$$$$$$$$$$$$$$$$$$$$$$$$$$$$$$$$$$$$$$$$@@@@@@@@........-------->>>>>>>>",
"$$$$$$$$$$$$$$$$$$$$$$$$$$$$$$$$$$$$$$$$$$$$$$$$$$$$$$$$$$$$$$$$$$$$$$$$$$$$$$$$$$$$$$$$$$$$$$$$@@@@@@@@........-------->>>>>>>>",
"$$$$$$$$$$$$$$$$$$$$$$$$$$$$$$$$$$$$$$$$$$$$$$$$$$$$$$$$$$$$$$$$$$$$$$$$$$$$$$$$$$$$$$$$$$$$$$$$@@@@@@@@........-------->>>>>>>>",
"$$$$$$$$$$$$$$$$$$$$$$$$$$$$$$$$$$$$$$$$$$$$$$$$$$$$$$$$$$$$$$$$$$$$$$$$$$$$$$$$$$$$$$$$$$$$$$$$@@@@@@@@........-------->>>>>>>>",
"$$$$$$$$$$$$$$$$$$$$$$$$$$$$$$$$$$$$$$$$$$$$$$$$$$$$$$$$$$$$$$$$$$$$$$$$$$$$$$$$$$$$$$$$$$$$$$$$$$$$$$$$%%%%%%%%%%%%%%%%========",
"$$$$$$$$$$$$$$$$$$$$$$$$$$$$$$$$$$$$$$$$$$$$$$$$$$$$$$$$$$$$$$$$$$$$$$$$$$$$$$$$$$$$$$$$$$$$$$$$$$$$$$$$%%%%%%%%%%%%%%%%========",
"$$$$$$$$$$$$$$$$$$$$$$$$$$$$$$$$$$$$$$$$$$$$$$$$$$$$$$$$$$$$$$$$$$$$$$$$$$$$$$$$$$$$$$$$$$$$$$$$$$$$$$$$%%%%%%%%%%%%%%%%========",
"$$$$$$$$$$$$$$$$$$$$$$$$$$$$$$$$$$$$$$$$$$$$$$$$$$$$$$$$$$$$$$$$$$$$$$$$$$$$$$$$$$$$$$$$$$$$$$$$$$$$$$$$%%%%%%%%%%%%%%%%========",
"$$$$$$$$$$$$$$$$$$$$$$$$$$$$$$$$$$$$$$$$$$$$$$$$$$$$$$$$$$$$$$$$$$$$$$$$$$$$$$$$$$$$$$$$$$$$$$$$$$$$$$$$%%%%%%%%%%%%%%%%========",
"$$$$$$$$$$$$$$$$$$$$$$$$$$$$$$$$$$$$$$$$$$$$$$$$$$$$$$$$$$$$$$$$$$$$$$$$$$$$$$$$$$$$$$$$$$$$$$$$$$$$$$$$%%%%%%%%%%%%%%%%========",
"$$$$$$$$$$$$$$$$$$$$$$$$$$$$$$$$$$$$$$$$$$$$$$$$$$$$$$$$$$$$$$$$$$$$$$$$$$$$$$$$$$$$$$$$$$$$$$$$$$$$$$$$%%%%%%%%%%%%%%%%========",
"$$$$$$$$$$$$$$$$$$$$$$$$$$$$$$$$$$$$$$$$$$$$$$$$$$$$$$$$$$$$$$$$$$$$$$$$$$$$$$$$$$$$$$$$$$$$$$$$$$$$$$$$%%%%%%%%%%%%%%%%========",
"$$$$$$$$$$$$$$$$$$$$$$$$$$$$$$$$$$$$$$$$$$$$$$$$$$$$$$$$$$$$$$$$$$$$$$$$$$$$$$$$$$$$$$$$$$$$$$$$$$$$$$$$,,,,,,,,'''''''';;;;;;;;",
"$$$$$$$$$$$$$$$$$$$$$$$$$$$$$$$$$$$$$$$$$$$$$$$$$$$$$$$$$$$$$$$$$$$$$$$$$$$$$$$$$$$$$$$$$$$$$$$$$$$$$$$$,,,,,,,,'''''''';;;;;;;;",
"$$$$$$$$$$$$$$$$$$$$$$$$$$$$$$$$$$$$$$$$$$$$$$$$$$$$$$$$$$$$$$$$$$$$$$$$$$$$$$$$$$$$$$$$$$$$$$$$$$$$$$$$,,,,,,,,'''''''';;;;;;;;",
"$$$$$$$$$$$$$$$$$$$$$$$$$$$$$$$$$$$$$$$$$$$$$$$$$$$$$$$$$$$$$$$$$$$$$$$$$$$$$$$$$$$$$$$$$$$$$$$$$$$$$$$$,,,,,,,,'''''''';;;;;;;;",
"$$$$$$$$$$$$$$$$$$$$$$$$$$$$$$$$$$$$$$$$$$$$$$$$$$$$$$$$$$$$$$$$$$$$$$$$$$$$$$$$$$$$$$$$$$$$$$$$$$$$$$$$,,,,,,,,'''''''';;;;;;;;",
"$$$$$$$$$$$$$$$$$$$$$$$$$$$$$$$$$$$$$$$$$$$$$$$$$$$$$$$$$$$$$$$$$$$$$$$$$$$$$$$$$$$$$$$$$$$$$$$$$$$$$$$$,,,,,,,,'''''''';;;;;;;;",
"$$$$$$$$$$$$$$$$$$$$$$$$$$$$$$$$$$$$$$$$$$$$$$$$$$$$$$$$$$$$$$$$$$$$$$$$$$$$$$$$$$$$$$$$$$$$$$$$$$$$$$$$,,,,,,,,'''''''';;;;;;;;",
"$$$$$$$$$$$$$$$$$$$$$$$$$$$$$$$$$$$$$$$$$$$$$$$$$$$$$$$$$$$$$$$$$$$$$$$$$$$$$$$$$$$$$$$$$$$$$$$$$$$$$$$$,,,,,,,,'''''''';;;;;;;;",
"$$$$$$$$$$$$$$$$))))))))))))))))))))))))))))))))))))))))))))))))))))))))))))))))))))))))))))))))))))))))))))))))''''''''>>>>>>>>",
"$$$$$$$$$$$$$$$$))))))))))))))))))))))))))))))))))))))))))))))))))))))))))))))))))))))))))))))))))))))))))))))))''''''''>>>>>>>>",
"$$$$$$$$$$$$$$$$))))))))))))))))))))))))))))))))))))))))))))))))))))))))))))))))))))))))))))))))))))))))))))))))''''''''>>>>>>>>",
"$$$$$$$$$$$$$$$$))))))))))))))))))))))))))))))))))))))))))))))))))))))))))))))))))))))))))))))))))))))))))))))))''''''''>>>>>>>>",
"$$$$$$$$$$$$$$$$))))))))))))))))))))))))))))))))))))))))))))))))))))))))))))))))))))))))))))))))))))))))))))))))''''''''>>>>>>>>",
"$$$$$$$$$$$$$$$$))))))))))))))))))))))))))))))))))))))))))))))))))))))))))))))))))))))))))))))))))))))))))))))))''''''''>>>>>>>>",
"$$$$$$$$$$$$$$$$))))))))))))))))))))))))))))))))))))))))))))))))))))))))))))))))))))))))))))))))))))))))))))))))''''''''>>>>>>>>",
"$$$$$$$$$$$$$$$$))))))))))))))))))))))))))))))))))))))))))))))))))))))))))))))))))))))))))))))))))))))))))))))))''''''''>>>>>>>>",
"$$$$$$$$))))))))!!!!!!!!~~~~~~~~{{{{{{{{]]]]]]]]]]]]]]]]]]]]]]]]]]]]]]]]{{{{{{{{^^^^^^^^////////(((((((((((((((())))))))========",
"$$$$$$$$))))))))!!!!!!!!~~~~~~~~{{{{{{{{]]]]]]]]]]]]]]]]]]]]]]]]]]]]]]]]{{{{{{{{^^^^^^^^////////(((((((((((((((())))))))========",
"$$$$$$$$))))))))!!!!!!!!~~~~~~~~{{{{{{{{]]]]]]]]]]]]]]]]]]]]]]]]]]]]]]]]{{{{{{{{^^^^^^^^////////(((((((((((((((())))))))========",
"$$$$$$$$))))))))!!!!!!!!~~~~~~~~{{{{{{{{]]]]]]]]]]]]]]]]]]]]]]]]]]]]]]]]{{{{{{{{^^^^^^^^////////(((((((((((((((())))))))========",
"$$$$$$$$))))))))!!!!!!!!~~~~~~~~{{{{{{{{]]]]]]]]]]]]]]]]]]]]]]]]]]]]]]]]{{{{{{{{^^^^^^^^////////(((((((((((((((())))))))========",
"$$$$$$$$))))))))!!!!!!!!~~~~~~~~{{{{{{{{]]]]]]]]]]]]]]]]]]]]]]]]]]]]]]]]{{{{{{{{^^^^^^^^////////(((((((((((((((())))))))========",
"$$$$$$$$))))))))!!!!!!!!~~~~~~~~{{{{{{{{]]]]]]]]]]]]]]]]]]]]]]]]]]]]]]]]{{{{{{{{^^^^^^^^////////(((((((((((((((())))))))========",
"$$$$$$$$))))))))!!!!!!!!~~~~~~~~{{{{{{{{]]]]]]]]]]]]]]]]]]]]]]]]]]]]]]]]{{{{{{{{^^^^^^^^////////(((((((((((((((())))))))========",
"________::::::::<<<<<<<<{{{{{{{{]]]]]]]]]]]]]]]]]]]]]]]]]]]]]]]]]]]]]]]]]]]]]]]]]]]]]]]]]]]]]]]]{{{{{{{{////////[[[[[[[[________",
"________::::::::<<<<<<<<{{{{{{{{]]]]]]]]]]]]]]]]]]]]]]]]]]]]]]]]]]]]]]]]]]]]]]]]]]]]]]]]]]]]]]]]{{{{{{{{////////[[[[[[[[________",
"________::::::::<<<<<<<<{{{{{{{{]]]]]]]]]]]]]]]]]]]]]]]]]]]]]]]]]]]]]]]]]]]]]]]]]]]]]]]]]]]]]]]]{{{{{{{{////////[[[[[[[[________",
"________::::::::<<<<<<<<{{{{{{{{]]]]]]]]]]]]]]]]]]]]]]]]]]]]]]]]]]]]]]]]]]]]]]]]]]]]]]]]]]]]]]]]{{{{{{{{////////[[[[[[[[________",
"________::::::::<<<<<<<<{{{{{{{{]]]]]]]]]]]]]]]]]]]]]]]]]]]]]]]]]]]]]]]]]]]]]]]]]]]]]]]]]]]]]]]]{{{{{{{{////////[[[[[[[[________",
"________::::::::<<<<<<<<{{{{{{{{]]]]]]]]]]]]]]]]]]]]]]]]]]]]]]]]]]]]]]]]]]]]]]]]]]]]]]]]]]]]]]]]{{{{{{{{////////[[[[[[[[________",
"________::::::::<<<<<<<<{{{{{{{{]]]]]]]]]]]]]]]]]]]]]]]]]]]]]]]]]]]]]]]]]]]]]]]]]]]]]]]]]]]]]]]]{{{{{{{{////////[[[[[[[[________",
"________::::::::<<<<<<<<{{{{{{{{]]]]]]]]]]]]]]]]]]]]]]]]]]]]]]]]]]]]]]]]]]]]]]]]]]]]]]]]]]]]]]]]{{{{{{{{////////[[[[[[[[________",
"________}}}}}}}}{{{{{{{{]]]]]]]]]]]]]]]]]]]]]]]]]]]]]]]]]]]]]]]]]]]]]]]]]]]]]]]]]]]]]]]]]]]]]]]]]]]]]]]]{{{{{{{{[[[[[[[[________",
"________}}}}}}}}{{{{{{{{]]]]]]]]]]]]]]]]]]]]]]]]]]]]]]]]]]]]]]]]]]]]]]]]]]]]]]]]]]]]]]]]]]]]]]]]]]]]]]]]{{{{{{{{[[[[[[[[________",
"________}}}}}}}}{{{{{{{{]]]]]]]]]]]]]]]]]]]]]]]]]]]]]]]]]]]]]]]]]]]]]]]]]]]]]]]]]]]]]]]]]]]]]]]]]]]]]]]]{{{{{{{{[[[[[[[[________",
"________}}}}}}}}{{{{{{{{]]]]]]]]]]]]]]]]]]]]]]]]]]]]]]]]]]]]]]]]]]]]]]]]]]]]]]]]]]]]]]]]]]]]]]]]]]]]]]]]{{{{{{{{[[[[[[[[________",
"________}}}}}}}}{{{{{{{{]]]]]]]]]]]]]]]]]]]]]]]]]]]]]]]]]]]]]]]]]]]]]]]]]]]]]]]]]]]]]]]]]]]]]]]]]]]]]]]]{{{{{{{{[[[[[[[[________",
"________}}}}}}}}{{{{{{{{]]]]]]]]]]]]]]]]]]]]]]]]]]]]]]]]]]]]]]]]]]]]]]]]]]]]]]]]]]]]]]]]]]]]]]]]]]]]]]]]{{{{{{{{[[[[[[[[________",
"________}}}}}}}}{{{{{{{{]]]]]]]]]]]]]]]]]]]]]]]]]]]]]]]]]]]]]]]]]]]]]]]]]]]]]]]]]]]]]]]]]]]]]]]]]]]]]]]]{{{{{{{{[[[[[[[[________",
"________}}}}}}}}{{{{{{{{]]]]]]]]]]]]]]]]]]]]]]]]]]]]]]]]]]]]]]]]]]]]]]]]]]]]]]]]]]]]]]]]]]]]]]]]]]]]]]]]{{{{{{{{[[[[[[[[________",
"________{{{{{{{{]]]]]]]]]]]]]]]]]]]]]]]]]]]]]]]]]]]]]]]]]]]]]]]]]]]]]]]]]]]]]]]]]]]]]]]]]]]]]]]]]]]]]]]]]]]]]]]]{{{{{{{{________",
"________{{{{{{{{]]]]]]]]]]]]]]]]]]]]]]]]]]]]]]]]]]]]]]]]]]]]]]]]]]]]]]]]]]]]]]]]]]]]]]]]]]]]]]]]]]]]]]]]]]]]]]]]{{{{{{{{________",
"________{{{{{{{{]]]]]]]]]]]]]]]]]]]]]]]]]]]]]]]]]]]]]]]]]]]]]]]]]]]]]]]]]]]]]]]]]]]]]]]]]]]]]]]]]]]]]]]]]]]]]]]]{{{{{{{{________",
"________{{{{{{{{]]]]]]]]]]]]]]]]]]]]]]]]]]]]]]]]]]]]]]]]]]]]]]]]]]]]]]]]]]]]]]]]]]]]]]]]]]]]]]]]]]]]]]]]]]]]]]]]{{{{{{{{________",
"________{{{{{{{{]]]]]]]]]]]]]]]]]]]]]]]]]]]]]]]]]]]]]]]]]]]]]]]]]]]]]]]]]]]]]]]]]]]]]]]]]]]]]]]]]]]]]]]]]]]]]]]]{{{{{{{{________",
"________{{{{{{{{]]]]]]]]]]]]]]]]]]]]]]]]]]]]]]]]]]]]]]]]]]]]]]]]]]]]]]]]]]]]]]]]]]]]]]]]]]]]]]]]]]]]]]]]]]]]]]]]{{{{{{{{________",
"________{{{{{{{{]]]]]]]]]]]]]]]]]]]]]]]]]]]]]]]]]]]]]]]]]]]]]]]]]]]]]]]]]]]]]]]]]]]]]]]]]]]]]]]]]]]]]]]]]]]]]]]]{{{{{{{{________",
"________{{{{{{{{]]]]]]]]]]]]]]]]]]]]]]]]]]]]]]]]]]]]]]]]]]]]]]]]]]]]]]]]]]]]]]]]]]]]]]]]]]]]]]]]]]]]]]]]]]]]]]]]{{{{{{{{________",
"________{{{{{{{{]]]]]]]]]]]]]]]]]]]]]]]]]]]]]]]]]]]]]]]]]]]]]]]]]]]]]]]]]]]]]]]]]]]]]]]]]]]]]]]]]]]]]]]]]]]]]]]]{{{{{{{{________",
"________{{{{{{{{]]]]]]]]]]]]]]]]]]]]]]]]]]]]]]]]]]]]]]]]]]]]]]]]]]]]]]]]]]]]]]]]]]]]]]]]]]]]]]]]]]]]]]]]]]]]]]]]{{{{{{{{________",
"________{{{{{{{{]]]]]]]]]]]]]]]]]]]]]]]]]]]]]]]]]]]]]]]]]]]]]]]]]]]]]]]]]]]]]]]]]]]]]]]]]]]]]]]]]]]]]]]]]]]]]]]]{{{{{{{{________",
"________{{{{{{{{]]]]]]]]]]]]]]]]]]]]]]]]]]]]]]]]]]]]]]]]]]]]]]]]]]]]]]]]]]]]]]]]]]]]]]]]]]]]]]]]]]]]]]]]]]]]]]]]{{{{{{{{________",
"________{{{{{{{{]]]]]]]]]]]]]]]]]]]]]]]]]]]]]]]]]]]]]]]]]]]]]]]]]]]]]]]]]]]]]]]]]]]]]]]]]]]]]]]]]]]]]]]]]]]]]]]]{{{{{{{{________",
"________{{{{{{{{]]]]]]]]]]]]]]]]]]]]]]]]]]]]]]]]]]]]]]]]]]]]]]]]]]]]]]]]]]]]]]]]]]]]]]]]]]]]]]]]]]]]]]]]]]]]]]]]{{{{{{{{________",
"________{{{{{{{{]]]]]]]]]]]]]]]]]]]]]]]]]]]]]]]]]]]]]]]]]]]]]]]]]]]]]]]]]]]]]]]]]]]]]]]]]]]]]]]]]]]]]]]]]]]]]]]]{{{{{{{{________",
"________{{{{{{{{]]]]]]]]]]]]]]]]]]]]]]]]]]]]]]]]]]]]]]]]]]]]]]]]]]]]]]]]]]]]]]]]]]]]]]]]]]]]]]]]]]]]]]]]]]]]]]]]{{{{{{{{________",
"________{{{{{{{{]]]]]]]]]]]]]]]]]]]]]]]]]]]]]]]]]]]]]]]]]]]]]]]]]]]]]]]]]]]]]]]]]]]]]]]]]]]]]]]]]]]]]]]]]]]]]]]]{{{{{{{{________",
"________{{{{{{{{]]]]]]]]]]]]]]]]]]]]]]]]]]]]]]]]]]]]]]]]]]]]]]]]]]]]]]]]]]]]]]]]]]]]]]]]]]]]]]]]]]]]]]]]]]]]]]]]{{{{{{{{________",
"________{{{{{{{{]]]]]]]]]]]]]]]]]]]]]]]]]]]]]]]]]]]]]]]]]]]]]]]]]]]]]]]]]]]]]]]]]]]]]]]]]]]]]]]]]]]]]]]]]]]]]]]]{{{{{{{{________",
"________{{{{{{{{]]]]]]]]]]]]]]]]]]]]]]]]]]]]]]]]]]]]]]]]]]]]]]]]]]]]]]]]]]]]]]]]]]]]]]]]]]]]]]]]]]]]]]]]]]]]]]]]{{{{{{{{________",
"________{{{{{{{{]]]]]]]]]]]]]]]]]]]]]]]]]]]]]]]]]]]]]]]]]]]]]]]]]]]]]]]]]]]]]]]]]]]]]]]]]]]]]]]]]]]]]]]]]]]]]]]]{{{{{{{{________",
"________{{{{{{{{]]]]]]]]]]]]]]]]]]]]]]]]]]]]]]]]]]]]]]]]]]]]]]]]]]]]]]]]]]]]]]]]]]]]]]]]]]]]]]]]]]]]]]]]]]]]]]]]{{{{{{{{________",
"________{{{{{{{{]]]]]]]]]]]]]]]]]]]]]]]]]]]]]]]]]]]]]]]]]]]]]]]]]]]]]]]]]]]]]]]]]]]]]]]]]]]]]]]]]]]]]]]]]]]]]]]]{{{{{{{{________",
"________{{{{{{{{]]]]]]]]]]]]]]]]]]]]]]]]]]]]]]]]]]]]]]]]]]]]]]]]]]]]]]]]]]]]]]]]]]]]]]]]]]]]]]]]]]]]]]]]]]]]]]]]{{{{{{{{________",
"________{{{{{{{{]]]]]]]]]]]]]]]]]]]]]]]]]]]]]]]]]]]]]]]]]]]]]]]]]]]]]]]]]]]]]]]]]]]]]]]]]]]]]]]]]]]]]]]]]]]]]]]]{{{{{{{{________",
"________{{{{{{{{]]]]]]]]]]]]]]]]]]]]]]]]]]]]]]]]]]]]]]]]]]]]]]]]]]]]]]]]]]]]]]]]]]]]]]]]]]]]]]]]]]]]]]]]]]]]]]]]{{{{{{{{________",
"________{{{{{{{{]]]]]]]]]]]]]]]]]]]]]]]]]]]]]]]]]]]]]]]]]]]]]]]]]]]]]]]]]]]]]]]]]]]]]]]]]]]]]]]]]]]]]]]]]]]]]]]]{{{{{{{{________",
"________{{{{{{{{]]]]]]]]]]]]]]]]]]]]]]]]]]]]]]]]]]]]]]]]]]]]]]]]]]]]]]]]]]]]]]]]]]]]]]]]]]]]]]]]]]]]]]]]]]]]]]]]{{{{{{{{________",
"________{{{{{{{{]]]]]]]]]]]]]]]]]]]]]]]]]]]]]]]]]]]]]]]]]]]]]]]]]]]]]]]]]]]]]]]]]]]]]]]]]]]]]]]]]]]]]]]]]]]]]]]]{{{{{{{{________",
"________{{{{{{{{]]]]]]]]]]]]]]]]]]]]]]]]]]]]]]]]]]]]]]]]]]]]]]]]]]]]]]]]]]]]]]]]]]]]]]]]]]]]]]]]]]]]]]]]]]]]]]]]{{{{{{{{________",
"________{{{{{{{{]]]]]]]]]]]]]]]]]]]]]]]]]]]]]]]]]]]]]]]]]]]]]]]]]]]]]]]]]]]]]]]]]]]]]]]]]]]]]]]]]]]]]]]]]]]]]]]]{{{{{{{{________",
"________{{{{{{{{]]]]]]]]]]]]]]]]]]]]]]]]]]]]]]]]]]]]]]]]]]]]]]]]]]]]]]]]]]]]]]]]]]]]]]]]]]]]]]]]]]]]]]]]]]]]]]]]{{{{{{{{________"};
