/* XPM */
static char * cesped_17_xpm[] = {
"128 128 7 1",
" 	c #72751B",
".	c #787B21",
"+	c #7F8226",
"@	c #656C17",
"#	c #9CA8AD",
"$	c #A2814F",
"%	c #636917",
"                                                                                                                                ",
"                                                                                                                                ",
"                                                                                                                                ",
"                                                                                                                                ",
"                                                                                                                                ",
"                                                                                                                                ",
"                                                                                                                                ",
"                                                                                                                                ",
"                                                                                                                                ",
"                                                                                                                                ",
"                                                                                                                                ",
"                                                                                                                                ",
"                                                                                                                                ",
"                                                                                                                                ",
"                                                                                                                                ",
"                                                                                                                                ",
"                                                                                                                                ",
"                                                                                                                                ",
"                                                                                                                                ",
"                                                                                                                                ",
"                                                                                                                                ",
"                                                                                                                                ",
"                                                                                                                                ",
"                                                                                                                                ",
"                                                                        ........++++++++++++++++                                ",
"                                                                        ........++++++++++++++++                                ",
"                                                                        ........++++++++++++++++                                ",
"                                                                        ........++++++++++++++++                                ",
"                                                                        ........++++++++++++++++                                ",
"                                                                        ........++++++++++++++++                                ",
"                                                                        ........++++++++++++++++                                ",
"                                                                        ........++++++++++++++++                                ",
"                                                                ................++++++++                                        ",
"                                                                ................++++++++                                        ",
"                                                                ................++++++++                                        ",
"                                                                ................++++++++                                        ",
"                                                                ................++++++++                                        ",
"                                                                ................++++++++                                        ",
"                                                                ................++++++++                                        ",
"                                                                ................++++++++                                        ",
"                                                                ................@@@@@@@@                                        ",
"                                                                ................@@@@@@@@                                        ",
"                                                                ................@@@@@@@@                                        ",
"                                                                ................@@@@@@@@                                        ",
"                                                                ................@@@@@@@@                                        ",
"                                                                ................@@@@@@@@                                        ",
"                                                                ................@@@@@@@@                                        ",
"                                                                ................@@@@@@@@                                        ",
"                                ........++++++++                ################@@@@@@@@                                        ",
"                                ........++++++++                ################@@@@@@@@                                        ",
"                                ........++++++++                ################@@@@@@@@                                        ",
"                                ........++++++++                ################@@@@@@@@                                        ",
"                                ........++++++++                ################@@@@@@@@                                        ",
"                                ........++++++++                ################@@@@@@@@                                        ",
"                                ........++++++++                ################@@@@@@@@                                        ",
"                                ........++++++++                ################@@@@@@@@                                        ",
"                                @@@@@@@@++++++++........########$$$$$$$$$$$$$$$$########++++++++                                ",
"                                @@@@@@@@++++++++........########$$$$$$$$$$$$$$$$########++++++++                                ",
"                                @@@@@@@@++++++++........########$$$$$$$$$$$$$$$$########++++++++                                ",
"                                @@@@@@@@++++++++........########$$$$$$$$$$$$$$$$########++++++++                                ",
"                                @@@@@@@@++++++++........########$$$$$$$$$$$$$$$$########++++++++                                ",
"                                @@@@@@@@++++++++........########$$$$$$$$$$$$$$$$########++++++++                                ",
"                                @@@@@@@@++++++++........########$$$$$$$$$$$$$$$$########++++++++                                ",
"                                @@@@@@@@++++++++........########$$$$$$$$$$$$$$$$########++++++++                                ",
"                                        ................%%%%%%%%################%%%%%%%%@@@@@@@@                                ",
"                                        ................%%%%%%%%################%%%%%%%%@@@@@@@@                                ",
"                                        ................%%%%%%%%################%%%%%%%%@@@@@@@@                                ",
"                                        ................%%%%%%%%################%%%%%%%%@@@@@@@@                                ",
"                                        ................%%%%%%%%################%%%%%%%%@@@@@@@@                                ",
"                                        ................%%%%%%%%################%%%%%%%%@@@@@@@@                                ",
"                                        ................%%%%%%%%################%%%%%%%%@@@@@@@@                                ",
"                                        ................%%%%%%%%################%%%%%%%%@@@@@@@@                                ",
"                                        @@@@@@@@........@@@@@@@@%%%%%%%%%%%%%%%%@@@@@@@@                                        ",
"                                        @@@@@@@@........@@@@@@@@%%%%%%%%%%%%%%%%@@@@@@@@                                        ",
"                                        @@@@@@@@........@@@@@@@@%%%%%%%%%%%%%%%%@@@@@@@@                                        ",
"                                        @@@@@@@@........@@@@@@@@%%%%%%%%%%%%%%%%@@@@@@@@                                        ",
"                                        @@@@@@@@........@@@@@@@@%%%%%%%%%%%%%%%%@@@@@@@@                                        ",
"                                        @@@@@@@@........@@@@@@@@%%%%%%%%%%%%%%%%@@@@@@@@                                        ",
"                                        @@@@@@@@........@@@@@@@@%%%%%%%%%%%%%%%%@@@@@@@@                                        ",
"                                        @@@@@@@@........@@@@@@@@%%%%%%%%%%%%%%%%@@@@@@@@                                        ",
"                                                        @@@@@@@@@@@@@@@@................@@@@@@@@                                ",
"                                                        @@@@@@@@@@@@@@@@................@@@@@@@@                                ",
"                                                        @@@@@@@@@@@@@@@@................@@@@@@@@                                ",
"                                                        @@@@@@@@@@@@@@@@................@@@@@@@@                                ",
"                                                        @@@@@@@@@@@@@@@@................@@@@@@@@                                ",
"                                                        @@@@@@@@@@@@@@@@................@@@@@@@@                                ",
"                                                        @@@@@@@@@@@@@@@@................@@@@@@@@                                ",
"                                                        @@@@@@@@@@@@@@@@................@@@@@@@@                                ",
"                                                                        ........@@@@@@@@                                        ",
"                                                                        ........@@@@@@@@                                        ",
"                                                                        ........@@@@@@@@                                        ",
"                                                                        ........@@@@@@@@                                        ",
"                                                                        ........@@@@@@@@                                        ",
"                                                                        ........@@@@@@@@                                        ",
"                                                                        ........@@@@@@@@                                        ",
"                                                                        ........@@@@@@@@                                        ",
"                                                                                                                                ",
"                                                                                                                                ",
"                                                                                                                                ",
"                                                                                                                                ",
"                                                                                                                                ",
"                                                                                                                                ",
"                                                                                                                                ",
"                                                                                                                                ",
"                                                                                                                                ",
"                                                                                                                                ",
"                                                                                                                                ",
"                                                                                                                                ",
"                                                                                                                                ",
"                                                                                                                                ",
"                                                                                                                                ",
"                                                                                                                                ",
"                                                                                                                                ",
"                                                                                                                                ",
"                                                                                                                                ",
"                                                                                                                                ",
"                                                                                                                                ",
"                                                                                                                                ",
"                                                                                                                                ",
"                                                                                                                                ",
"                                                                                                                                ",
"                                                                                                                                ",
"                                                                                                                                ",
"                                                                                                                                ",
"                                                                                                                                ",
"                                                                                                                                ",
"                                                                                                                                ",
"                                                                                                                                "};
