/* XPM */
static char * cesped_10_xpm[] = {
"128 128 24 1",
" 	c #625D35",
".	c #65622A",
"+	c #70731E",
"@	c #72751B",
"#	c #65622D",
"$	c #655B49",
"%	c #655C48",
"&	c #696C2D",
"*	c #6C7027",
"=	c #686C2A",
"-	c #635E34",
";	c #655B48",
">	c #64602E",
",	c #6B7027",
"'	c #645B47",
")	c #635F2B",
"!	c #6F721F",
"~	c #70721F",
"{	c #64612B",
"]	c #635D35",
"^	c #6C7126",
"/	c #64602D",
"(	c #63602B",
"_	c #6B7028",
"        ........++++++++@@@@@@@@@@@@@@@@@@@@@@@@@@@@@@@@@@@@@@@@@@@@@@@@@@@@@@@@@@@@@@@@@@@@@@@@@@@@@@@@++++++++########$$$$$$$$",
"        ........++++++++@@@@@@@@@@@@@@@@@@@@@@@@@@@@@@@@@@@@@@@@@@@@@@@@@@@@@@@@@@@@@@@@@@@@@@@@@@@@@@@@++++++++########$$$$$$$$",
"        ........++++++++@@@@@@@@@@@@@@@@@@@@@@@@@@@@@@@@@@@@@@@@@@@@@@@@@@@@@@@@@@@@@@@@@@@@@@@@@@@@@@@@++++++++########$$$$$$$$",
"        ........++++++++@@@@@@@@@@@@@@@@@@@@@@@@@@@@@@@@@@@@@@@@@@@@@@@@@@@@@@@@@@@@@@@@@@@@@@@@@@@@@@@@++++++++########$$$$$$$$",
"        ........++++++++@@@@@@@@@@@@@@@@@@@@@@@@@@@@@@@@@@@@@@@@@@@@@@@@@@@@@@@@@@@@@@@@@@@@@@@@@@@@@@@@++++++++########$$$$$$$$",
"        ........++++++++@@@@@@@@@@@@@@@@@@@@@@@@@@@@@@@@@@@@@@@@@@@@@@@@@@@@@@@@@@@@@@@@@@@@@@@@@@@@@@@@++++++++########$$$$$$$$",
"        ........++++++++@@@@@@@@@@@@@@@@@@@@@@@@@@@@@@@@@@@@@@@@@@@@@@@@@@@@@@@@@@@@@@@@@@@@@@@@@@@@@@@@++++++++########$$$$$$$$",
"        ........++++++++@@@@@@@@@@@@@@@@@@@@@@@@@@@@@@@@@@@@@@@@@@@@@@@@@@@@@@@@@@@@@@@@@@@@@@@@@@@@@@@@++++++++########$$$$$$$$",
"%%%%%%%%&&&&&&&&********@@@@@@@@@@@@@@@@@@@@@@@@@@@@@@@@@@@@@@@@@@@@@@@@@@@@@@@@@@@@@@@@@@@@@@@@@@@@@@@@********========--------",
"%%%%%%%%&&&&&&&&********@@@@@@@@@@@@@@@@@@@@@@@@@@@@@@@@@@@@@@@@@@@@@@@@@@@@@@@@@@@@@@@@@@@@@@@@@@@@@@@@********========--------",
"%%%%%%%%&&&&&&&&********@@@@@@@@@@@@@@@@@@@@@@@@@@@@@@@@@@@@@@@@@@@@@@@@@@@@@@@@@@@@@@@@@@@@@@@@@@@@@@@@********========--------",
"%%%%%%%%&&&&&&&&********@@@@@@@@@@@@@@@@@@@@@@@@@@@@@@@@@@@@@@@@@@@@@@@@@@@@@@@@@@@@@@@@@@@@@@@@@@@@@@@@********========--------",
"%%%%%%%%&&&&&&&&********@@@@@@@@@@@@@@@@@@@@@@@@@@@@@@@@@@@@@@@@@@@@@@@@@@@@@@@@@@@@@@@@@@@@@@@@@@@@@@@@********========--------",
"%%%%%%%%&&&&&&&&********@@@@@@@@@@@@@@@@@@@@@@@@@@@@@@@@@@@@@@@@@@@@@@@@@@@@@@@@@@@@@@@@@@@@@@@@@@@@@@@@********========--------",
"%%%%%%%%&&&&&&&&********@@@@@@@@@@@@@@@@@@@@@@@@@@@@@@@@@@@@@@@@@@@@@@@@@@@@@@@@@@@@@@@@@@@@@@@@@@@@@@@@********========--------",
"%%%%%%%%&&&&&&&&********@@@@@@@@@@@@@@@@@@@@@@@@@@@@@@@@@@@@@@@@@@@@@@@@@@@@@@@@@@@@@@@@@@@@@@@@@@@@@@@@********========--------",
";;;;;;;;>>>>>>>>,,,,,,,,@@@@@@@@@@@@@@@@@@@@@@@@@@@@@@@@@@@@@@@@@@@@@@@@@@@@@@@@@@@@@@@@@@@@@@@@@@@@@@@@,,,,,,,,>>>>>>>>''''''''",
";;;;;;;;>>>>>>>>,,,,,,,,@@@@@@@@@@@@@@@@@@@@@@@@@@@@@@@@@@@@@@@@@@@@@@@@@@@@@@@@@@@@@@@@@@@@@@@@@@@@@@@@,,,,,,,,>>>>>>>>''''''''",
";;;;;;;;>>>>>>>>,,,,,,,,@@@@@@@@@@@@@@@@@@@@@@@@@@@@@@@@@@@@@@@@@@@@@@@@@@@@@@@@@@@@@@@@@@@@@@@@@@@@@@@@,,,,,,,,>>>>>>>>''''''''",
";;;;;;;;>>>>>>>>,,,,,,,,@@@@@@@@@@@@@@@@@@@@@@@@@@@@@@@@@@@@@@@@@@@@@@@@@@@@@@@@@@@@@@@@@@@@@@@@@@@@@@@@,,,,,,,,>>>>>>>>''''''''",
";;;;;;;;>>>>>>>>,,,,,,,,@@@@@@@@@@@@@@@@@@@@@@@@@@@@@@@@@@@@@@@@@@@@@@@@@@@@@@@@@@@@@@@@@@@@@@@@@@@@@@@@,,,,,,,,>>>>>>>>''''''''",
";;;;;;;;>>>>>>>>,,,,,,,,@@@@@@@@@@@@@@@@@@@@@@@@@@@@@@@@@@@@@@@@@@@@@@@@@@@@@@@@@@@@@@@@@@@@@@@@@@@@@@@@,,,,,,,,>>>>>>>>''''''''",
";;;;;;;;>>>>>>>>,,,,,,,,@@@@@@@@@@@@@@@@@@@@@@@@@@@@@@@@@@@@@@@@@@@@@@@@@@@@@@@@@@@@@@@@@@@@@@@@@@@@@@@@,,,,,,,,>>>>>>>>''''''''",
";;;;;;;;>>>>>>>>,,,,,,,,@@@@@@@@@@@@@@@@@@@@@@@@@@@@@@@@@@@@@@@@@@@@@@@@@@@@@@@@@@@@@@@@@@@@@@@@@@@@@@@@,,,,,,,,>>>>>>>>''''''''",
"        ))))))))!!!!!!!!@@@@@@@@@@@@@@@@@@@@@@@@@@@@@@@@@@@@@@@@@@@@@@@@@@@@@@@@@@@@@@@@@@@@@@@@@@@@@@@@~~~~~~~~{{{{{{{{]]]]]]]]",
"        ))))))))!!!!!!!!@@@@@@@@@@@@@@@@@@@@@@@@@@@@@@@@@@@@@@@@@@@@@@@@@@@@@@@@@@@@@@@@@@@@@@@@@@@@@@@@~~~~~~~~{{{{{{{{]]]]]]]]",
"        ))))))))!!!!!!!!@@@@@@@@@@@@@@@@@@@@@@@@@@@@@@@@@@@@@@@@@@@@@@@@@@@@@@@@@@@@@@@@@@@@@@@@@@@@@@@@~~~~~~~~{{{{{{{{]]]]]]]]",
"        ))))))))!!!!!!!!@@@@@@@@@@@@@@@@@@@@@@@@@@@@@@@@@@@@@@@@@@@@@@@@@@@@@@@@@@@@@@@@@@@@@@@@@@@@@@@@~~~~~~~~{{{{{{{{]]]]]]]]",
"        ))))))))!!!!!!!!@@@@@@@@@@@@@@@@@@@@@@@@@@@@@@@@@@@@@@@@@@@@@@@@@@@@@@@@@@@@@@@@@@@@@@@@@@@@@@@@~~~~~~~~{{{{{{{{]]]]]]]]",
"        ))))))))!!!!!!!!@@@@@@@@@@@@@@@@@@@@@@@@@@@@@@@@@@@@@@@@@@@@@@@@@@@@@@@@@@@@@@@@@@@@@@@@@@@@@@@@~~~~~~~~{{{{{{{{]]]]]]]]",
"        ))))))))!!!!!!!!@@@@@@@@@@@@@@@@@@@@@@@@@@@@@@@@@@@@@@@@@@@@@@@@@@@@@@@@@@@@@@@@@@@@@@@@@@@@@@@@~~~~~~~~{{{{{{{{]]]]]]]]",
"        ))))))))!!!!!!!!@@@@@@@@@@@@@@@@@@@@@@@@@@@@@@@@@@@@@@@@@@@@@@@@@@@@@@@@@@@@@@@@@@@@@@@@@@@@@@@@~~~~~~~~{{{{{{{{]]]]]]]]",
";;;;;;;;>>>>>>>>,,,,,,,,@@@@@@@@@@@@@@@@@@@@@@@@@@@@@@@@@@@@@@@@@@@@@@@@@@@@@@@@@@@@@@@@@@@@@@@@@@@@@@@@^^^^^^^^&&&&&&&&%%%%%%%%",
";;;;;;;;>>>>>>>>,,,,,,,,@@@@@@@@@@@@@@@@@@@@@@@@@@@@@@@@@@@@@@@@@@@@@@@@@@@@@@@@@@@@@@@@@@@@@@@@@@@@@@@@^^^^^^^^&&&&&&&&%%%%%%%%",
";;;;;;;;>>>>>>>>,,,,,,,,@@@@@@@@@@@@@@@@@@@@@@@@@@@@@@@@@@@@@@@@@@@@@@@@@@@@@@@@@@@@@@@@@@@@@@@@@@@@@@@@^^^^^^^^&&&&&&&&%%%%%%%%",
";;;;;;;;>>>>>>>>,,,,,,,,@@@@@@@@@@@@@@@@@@@@@@@@@@@@@@@@@@@@@@@@@@@@@@@@@@@@@@@@@@@@@@@@@@@@@@@@@@@@@@@@^^^^^^^^&&&&&&&&%%%%%%%%",
";;;;;;;;>>>>>>>>,,,,,,,,@@@@@@@@@@@@@@@@@@@@@@@@@@@@@@@@@@@@@@@@@@@@@@@@@@@@@@@@@@@@@@@@@@@@@@@@@@@@@@@@^^^^^^^^&&&&&&&&%%%%%%%%",
";;;;;;;;>>>>>>>>,,,,,,,,@@@@@@@@@@@@@@@@@@@@@@@@@@@@@@@@@@@@@@@@@@@@@@@@@@@@@@@@@@@@@@@@@@@@@@@@@@@@@@@@^^^^^^^^&&&&&&&&%%%%%%%%",
";;;;;;;;>>>>>>>>,,,,,,,,@@@@@@@@@@@@@@@@@@@@@@@@@@@@@@@@@@@@@@@@@@@@@@@@@@@@@@@@@@@@@@@@@@@@@@@@@@@@@@@@^^^^^^^^&&&&&&&&%%%%%%%%",
";;;;;;;;>>>>>>>>,,,,,,,,@@@@@@@@@@@@@@@@@@@@@@@@@@@@@@@@@@@@@@@@@@@@@@@@@@@@@@@@@@@@@@@@@@@@@@@@@@@@@@@@^^^^^^^^&&&&&&&&%%%%%%%%",
"%%%%%%%%&&&&&&&&********@@@@@@@@@@@@@@@@@@@@@@@@@@@@@@@@@@@@@@@@@@@@@@@@@@@@@@@@@@@@@@@@@@@@@@@@@@@@@@@@~~~~~~~~////////;;;;;;;;",
"%%%%%%%%&&&&&&&&********@@@@@@@@@@@@@@@@@@@@@@@@@@@@@@@@@@@@@@@@@@@@@@@@@@@@@@@@@@@@@@@@@@@@@@@@@@@@@@@@~~~~~~~~////////;;;;;;;;",
"%%%%%%%%&&&&&&&&********@@@@@@@@@@@@@@@@@@@@@@@@@@@@@@@@@@@@@@@@@@@@@@@@@@@@@@@@@@@@@@@@@@@@@@@@@@@@@@@@~~~~~~~~////////;;;;;;;;",
"%%%%%%%%&&&&&&&&********@@@@@@@@@@@@@@@@@@@@@@@@@@@@@@@@@@@@@@@@@@@@@@@@@@@@@@@@@@@@@@@@@@@@@@@@@@@@@@@@~~~~~~~~////////;;;;;;;;",
"%%%%%%%%&&&&&&&&********@@@@@@@@@@@@@@@@@@@@@@@@@@@@@@@@@@@@@@@@@@@@@@@@@@@@@@@@@@@@@@@@@@@@@@@@@@@@@@@@~~~~~~~~////////;;;;;;;;",
"%%%%%%%%&&&&&&&&********@@@@@@@@@@@@@@@@@@@@@@@@@@@@@@@@@@@@@@@@@@@@@@@@@@@@@@@@@@@@@@@@@@@@@@@@@@@@@@@@~~~~~~~~////////;;;;;;;;",
"%%%%%%%%&&&&&&&&********@@@@@@@@@@@@@@@@@@@@@@@@@@@@@@@@@@@@@@@@@@@@@@@@@@@@@@@@@@@@@@@@@@@@@@@@@@@@@@@@~~~~~~~~////////;;;;;;;;",
"%%%%%%%%&&&&&&&&********@@@@@@@@@@@@@@@@@@@@@@@@@@@@@@@@@@@@@@@@@@@@@@@@@@@@@@@@@@@@@@@@@@@@@@@@@@@@@@@@~~~~~~~~////////;;;;;;;;",
"]]]]]]]]{{{{{{{{~~~~~~~~@@@@@@@@@@@@@@@@@@@@@@@@@@@@@@@@@@@@@@@@@@@@@@@@@@@@@@@@@@@@@@@@@@@@@@@@@@@@@@@@,,,,,,,,((((((((]]]]]]]]",
"]]]]]]]]{{{{{{{{~~~~~~~~@@@@@@@@@@@@@@@@@@@@@@@@@@@@@@@@@@@@@@@@@@@@@@@@@@@@@@@@@@@@@@@@@@@@@@@@@@@@@@@@,,,,,,,,((((((((]]]]]]]]",
"]]]]]]]]{{{{{{{{~~~~~~~~@@@@@@@@@@@@@@@@@@@@@@@@@@@@@@@@@@@@@@@@@@@@@@@@@@@@@@@@@@@@@@@@@@@@@@@@@@@@@@@@,,,,,,,,((((((((]]]]]]]]",
"]]]]]]]]{{{{{{{{~~~~~~~~@@@@@@@@@@@@@@@@@@@@@@@@@@@@@@@@@@@@@@@@@@@@@@@@@@@@@@@@@@@@@@@@@@@@@@@@@@@@@@@@,,,,,,,,((((((((]]]]]]]]",
"]]]]]]]]{{{{{{{{~~~~~~~~@@@@@@@@@@@@@@@@@@@@@@@@@@@@@@@@@@@@@@@@@@@@@@@@@@@@@@@@@@@@@@@@@@@@@@@@@@@@@@@@,,,,,,,,((((((((]]]]]]]]",
"]]]]]]]]{{{{{{{{~~~~~~~~@@@@@@@@@@@@@@@@@@@@@@@@@@@@@@@@@@@@@@@@@@@@@@@@@@@@@@@@@@@@@@@@@@@@@@@@@@@@@@@@,,,,,,,,((((((((]]]]]]]]",
"]]]]]]]]{{{{{{{{~~~~~~~~@@@@@@@@@@@@@@@@@@@@@@@@@@@@@@@@@@@@@@@@@@@@@@@@@@@@@@@@@@@@@@@@@@@@@@@@@@@@@@@@,,,,,,,,((((((((]]]]]]]]",
"]]]]]]]]{{{{{{{{~~~~~~~~@@@@@@@@@@@@@@@@@@@@@@@@@@@@@@@@@@@@@@@@@@@@@@@@@@@@@@@@@@@@@@@@@@@@@@@@@@@@@@@@,,,,,,,,((((((((]]]]]]]]",
";;;;;;;;>>>>>>>>,,,,,,,,@@@@@@@@@@@@@@@@@@@@@@@@@@@@@@@@@@@@@@@@@@@@@@@@@@@@@@@@@@@@@@@@@@@@@@@@@@@@@@@@________&&&&&&&&%%%%%%%%",
";;;;;;;;>>>>>>>>,,,,,,,,@@@@@@@@@@@@@@@@@@@@@@@@@@@@@@@@@@@@@@@@@@@@@@@@@@@@@@@@@@@@@@@@@@@@@@@@@@@@@@@@________&&&&&&&&%%%%%%%%",
";;;;;;;;>>>>>>>>,,,,,,,,@@@@@@@@@@@@@@@@@@@@@@@@@@@@@@@@@@@@@@@@@@@@@@@@@@@@@@@@@@@@@@@@@@@@@@@@@@@@@@@@________&&&&&&&&%%%%%%%%",
";;;;;;;;>>>>>>>>,,,,,,,,@@@@@@@@@@@@@@@@@@@@@@@@@@@@@@@@@@@@@@@@@@@@@@@@@@@@@@@@@@@@@@@@@@@@@@@@@@@@@@@@________&&&&&&&&%%%%%%%%",
";;;;;;;;>>>>>>>>,,,,,,,,@@@@@@@@@@@@@@@@@@@@@@@@@@@@@@@@@@@@@@@@@@@@@@@@@@@@@@@@@@@@@@@@@@@@@@@@@@@@@@@@________&&&&&&&&%%%%%%%%",
";;;;;;;;>>>>>>>>,,,,,,,,@@@@@@@@@@@@@@@@@@@@@@@@@@@@@@@@@@@@@@@@@@@@@@@@@@@@@@@@@@@@@@@@@@@@@@@@@@@@@@@@________&&&&&&&&%%%%%%%%",
";;;;;;;;>>>>>>>>,,,,,,,,@@@@@@@@@@@@@@@@@@@@@@@@@@@@@@@@@@@@@@@@@@@@@@@@@@@@@@@@@@@@@@@@@@@@@@@@@@@@@@@@________&&&&&&&&%%%%%%%%",
";;;;;;;;>>>>>>>>,,,,,,,,@@@@@@@@@@@@@@@@@@@@@@@@@@@@@@@@@@@@@@@@@@@@@@@@@@@@@@@@@@@@@@@@@@@@@@@@@@@@@@@@________&&&&&&&&%%%%%%%%",
"%%%%%%%%&&&&&&&&________@@@@@@@@@@@@@@@@@@@@@@@@@@@@@@@@@@@@@@@@@@@@@@@@@@@@@@@@@@@@@@@@@@@@@@@@@@@@@@@@,,,,,,,,>>>>>>>>;;;;;;;;",
"%%%%%%%%&&&&&&&&________@@@@@@@@@@@@@@@@@@@@@@@@@@@@@@@@@@@@@@@@@@@@@@@@@@@@@@@@@@@@@@@@@@@@@@@@@@@@@@@@,,,,,,,,>>>>>>>>;;;;;;;;",
"%%%%%%%%&&&&&&&&________@@@@@@@@@@@@@@@@@@@@@@@@@@@@@@@@@@@@@@@@@@@@@@@@@@@@@@@@@@@@@@@@@@@@@@@@@@@@@@@@,,,,,,,,>>>>>>>>;;;;;;;;",
"%%%%%%%%&&&&&&&&________@@@@@@@@@@@@@@@@@@@@@@@@@@@@@@@@@@@@@@@@@@@@@@@@@@@@@@@@@@@@@@@@@@@@@@@@@@@@@@@@,,,,,,,,>>>>>>>>;;;;;;;;",
"%%%%%%%%&&&&&&&&________@@@@@@@@@@@@@@@@@@@@@@@@@@@@@@@@@@@@@@@@@@@@@@@@@@@@@@@@@@@@@@@@@@@@@@@@@@@@@@@@,,,,,,,,>>>>>>>>;;;;;;;;",
"%%%%%%%%&&&&&&&&________@@@@@@@@@@@@@@@@@@@@@@@@@@@@@@@@@@@@@@@@@@@@@@@@@@@@@@@@@@@@@@@@@@@@@@@@@@@@@@@@,,,,,,,,>>>>>>>>;;;;;;;;",
"%%%%%%%%&&&&&&&&________@@@@@@@@@@@@@@@@@@@@@@@@@@@@@@@@@@@@@@@@@@@@@@@@@@@@@@@@@@@@@@@@@@@@@@@@@@@@@@@@,,,,,,,,>>>>>>>>;;;;;;;;",
"%%%%%%%%&&&&&&&&________@@@@@@@@@@@@@@@@@@@@@@@@@@@@@@@@@@@@@@@@@@@@@@@@@@@@@@@@@@@@@@@@@@@@@@@@@@@@@@@@,,,,,,,,>>>>>>>>;;;;;;;;",
"]]]]]]]]((((((((,,,,,,,,@@@@@@@@@@@@@@@@@@@@@@@@@@@@@@@@@@@@@@@@@@@@@@@@@@@@@@@@@@@@@@@@@@@@@@@@@@@@@@@@~~~~~~~~{{{{{{{{]]]]]]]]",
"]]]]]]]]((((((((,,,,,,,,@@@@@@@@@@@@@@@@@@@@@@@@@@@@@@@@@@@@@@@@@@@@@@@@@@@@@@@@@@@@@@@@@@@@@@@@@@@@@@@@~~~~~~~~{{{{{{{{]]]]]]]]",
"]]]]]]]]((((((((,,,,,,,,@@@@@@@@@@@@@@@@@@@@@@@@@@@@@@@@@@@@@@@@@@@@@@@@@@@@@@@@@@@@@@@@@@@@@@@@@@@@@@@@~~~~~~~~{{{{{{{{]]]]]]]]",
"]]]]]]]]((((((((,,,,,,,,@@@@@@@@@@@@@@@@@@@@@@@@@@@@@@@@@@@@@@@@@@@@@@@@@@@@@@@@@@@@@@@@@@@@@@@@@@@@@@@@~~~~~~~~{{{{{{{{]]]]]]]]",
"]]]]]]]]((((((((,,,,,,,,@@@@@@@@@@@@@@@@@@@@@@@@@@@@@@@@@@@@@@@@@@@@@@@@@@@@@@@@@@@@@@@@@@@@@@@@@@@@@@@@~~~~~~~~{{{{{{{{]]]]]]]]",
"]]]]]]]]((((((((,,,,,,,,@@@@@@@@@@@@@@@@@@@@@@@@@@@@@@@@@@@@@@@@@@@@@@@@@@@@@@@@@@@@@@@@@@@@@@@@@@@@@@@@~~~~~~~~{{{{{{{{]]]]]]]]",
"]]]]]]]]((((((((,,,,,,,,@@@@@@@@@@@@@@@@@@@@@@@@@@@@@@@@@@@@@@@@@@@@@@@@@@@@@@@@@@@@@@@@@@@@@@@@@@@@@@@@~~~~~~~~{{{{{{{{]]]]]]]]",
"]]]]]]]]((((((((,,,,,,,,@@@@@@@@@@@@@@@@@@@@@@@@@@@@@@@@@@@@@@@@@@@@@@@@@@@@@@@@@@@@@@@@@@@@@@@@@@@@@@@@~~~~~~~~{{{{{{{{]]]]]]]]",
";;;;;;;;////////~~~~~~~~@@@@@@@@@@@@@@@@@@@@@@@@@@@@@@@@@@@@@@@@@@@@@@@@@@@@@@@@@@@@@@@@@@@@@@@@@@@@@@@@********&&&&&&&&%%%%%%%%",
";;;;;;;;////////~~~~~~~~@@@@@@@@@@@@@@@@@@@@@@@@@@@@@@@@@@@@@@@@@@@@@@@@@@@@@@@@@@@@@@@@@@@@@@@@@@@@@@@@********&&&&&&&&%%%%%%%%",
";;;;;;;;////////~~~~~~~~@@@@@@@@@@@@@@@@@@@@@@@@@@@@@@@@@@@@@@@@@@@@@@@@@@@@@@@@@@@@@@@@@@@@@@@@@@@@@@@@********&&&&&&&&%%%%%%%%",
";;;;;;;;////////~~~~~~~~@@@@@@@@@@@@@@@@@@@@@@@@@@@@@@@@@@@@@@@@@@@@@@@@@@@@@@@@@@@@@@@@@@@@@@@@@@@@@@@@********&&&&&&&&%%%%%%%%",
";;;;;;;;////////~~~~~~~~@@@@@@@@@@@@@@@@@@@@@@@@@@@@@@@@@@@@@@@@@@@@@@@@@@@@@@@@@@@@@@@@@@@@@@@@@@@@@@@@********&&&&&&&&%%%%%%%%",
";;;;;;;;////////~~~~~~~~@@@@@@@@@@@@@@@@@@@@@@@@@@@@@@@@@@@@@@@@@@@@@@@@@@@@@@@@@@@@@@@@@@@@@@@@@@@@@@@@********&&&&&&&&%%%%%%%%",
";;;;;;;;////////~~~~~~~~@@@@@@@@@@@@@@@@@@@@@@@@@@@@@@@@@@@@@@@@@@@@@@@@@@@@@@@@@@@@@@@@@@@@@@@@@@@@@@@@********&&&&&&&&%%%%%%%%",
";;;;;;;;////////~~~~~~~~@@@@@@@@@@@@@@@@@@@@@@@@@@@@@@@@@@@@@@@@@@@@@@@@@@@@@@@@@@@@@@@@@@@@@@@@@@@@@@@@********&&&&&&&&%%%%%%%%",
"%%%%%%%%&&&&&&&&^^^^^^^^@@@@@@@@@@@@@@@@@@@@@@@@@@@@@@@@@@@@@@@@@@@@@@@@@@@@@@@@@@@@@@@@@@@@@@@@@@@@@@@@,,,,,,,,>>>>>>>>;;;;;;;;",
"%%%%%%%%&&&&&&&&^^^^^^^^@@@@@@@@@@@@@@@@@@@@@@@@@@@@@@@@@@@@@@@@@@@@@@@@@@@@@@@@@@@@@@@@@@@@@@@@@@@@@@@@,,,,,,,,>>>>>>>>;;;;;;;;",
"%%%%%%%%&&&&&&&&^^^^^^^^@@@@@@@@@@@@@@@@@@@@@@@@@@@@@@@@@@@@@@@@@@@@@@@@@@@@@@@@@@@@@@@@@@@@@@@@@@@@@@@@,,,,,,,,>>>>>>>>;;;;;;;;",
"%%%%%%%%&&&&&&&&^^^^^^^^@@@@@@@@@@@@@@@@@@@@@@@@@@@@@@@@@@@@@@@@@@@@@@@@@@@@@@@@@@@@@@@@@@@@@@@@@@@@@@@@,,,,,,,,>>>>>>>>;;;;;;;;",
"%%%%%%%%&&&&&&&&^^^^^^^^@@@@@@@@@@@@@@@@@@@@@@@@@@@@@@@@@@@@@@@@@@@@@@@@@@@@@@@@@@@@@@@@@@@@@@@@@@@@@@@@,,,,,,,,>>>>>>>>;;;;;;;;",
"%%%%%%%%&&&&&&&&^^^^^^^^@@@@@@@@@@@@@@@@@@@@@@@@@@@@@@@@@@@@@@@@@@@@@@@@@@@@@@@@@@@@@@@@@@@@@@@@@@@@@@@@,,,,,,,,>>>>>>>>;;;;;;;;",
"%%%%%%%%&&&&&&&&^^^^^^^^@@@@@@@@@@@@@@@@@@@@@@@@@@@@@@@@@@@@@@@@@@@@@@@@@@@@@@@@@@@@@@@@@@@@@@@@@@@@@@@@,,,,,,,,>>>>>>>>;;;;;;;;",
"%%%%%%%%&&&&&&&&^^^^^^^^@@@@@@@@@@@@@@@@@@@@@@@@@@@@@@@@@@@@@@@@@@@@@@@@@@@@@@@@@@@@@@@@@@@@@@@@@@@@@@@@,,,,,,,,>>>>>>>>;;;;;;;;",
"]]]]]]]]{{{{{{{{~~~~~~~~@@@@@@@@@@@@@@@@@@@@@@@@@@@@@@@@@@@@@@@@@@@@@@@@@@@@@@@@@@@@@@@@@@@@@@@@@@@@@@@@!!!!!!!!))))))))        ",
"]]]]]]]]{{{{{{{{~~~~~~~~@@@@@@@@@@@@@@@@@@@@@@@@@@@@@@@@@@@@@@@@@@@@@@@@@@@@@@@@@@@@@@@@@@@@@@@@@@@@@@@@!!!!!!!!))))))))        ",
"]]]]]]]]{{{{{{{{~~~~~~~~@@@@@@@@@@@@@@@@@@@@@@@@@@@@@@@@@@@@@@@@@@@@@@@@@@@@@@@@@@@@@@@@@@@@@@@@@@@@@@@@!!!!!!!!))))))))        ",
"]]]]]]]]{{{{{{{{~~~~~~~~@@@@@@@@@@@@@@@@@@@@@@@@@@@@@@@@@@@@@@@@@@@@@@@@@@@@@@@@@@@@@@@@@@@@@@@@@@@@@@@@!!!!!!!!))))))))        ",
"]]]]]]]]{{{{{{{{~~~~~~~~@@@@@@@@@@@@@@@@@@@@@@@@@@@@@@@@@@@@@@@@@@@@@@@@@@@@@@@@@@@@@@@@@@@@@@@@@@@@@@@@!!!!!!!!))))))))        ",
"]]]]]]]]{{{{{{{{~~~~~~~~@@@@@@@@@@@@@@@@@@@@@@@@@@@@@@@@@@@@@@@@@@@@@@@@@@@@@@@@@@@@@@@@@@@@@@@@@@@@@@@@!!!!!!!!))))))))        ",
"]]]]]]]]{{{{{{{{~~~~~~~~@@@@@@@@@@@@@@@@@@@@@@@@@@@@@@@@@@@@@@@@@@@@@@@@@@@@@@@@@@@@@@@@@@@@@@@@@@@@@@@@!!!!!!!!))))))))        ",
"]]]]]]]]{{{{{{{{~~~~~~~~@@@@@@@@@@@@@@@@@@@@@@@@@@@@@@@@@@@@@@@@@@@@@@@@@@@@@@@@@@@@@@@@@@@@@@@@@@@@@@@@!!!!!!!!))))))))        ",
"''''''''>>>>>>>>,,,,,,,,@@@@@@@@@@@@@@@@@@@@@@@@@@@@@@@@@@@@@@@@@@@@@@@@@@@@@@@@@@@@@@@@@@@@@@@@@@@@@@@@,,,,,,,,>>>>>>>>;;;;;;;;",
"''''''''>>>>>>>>,,,,,,,,@@@@@@@@@@@@@@@@@@@@@@@@@@@@@@@@@@@@@@@@@@@@@@@@@@@@@@@@@@@@@@@@@@@@@@@@@@@@@@@@,,,,,,,,>>>>>>>>;;;;;;;;",
"''''''''>>>>>>>>,,,,,,,,@@@@@@@@@@@@@@@@@@@@@@@@@@@@@@@@@@@@@@@@@@@@@@@@@@@@@@@@@@@@@@@@@@@@@@@@@@@@@@@@,,,,,,,,>>>>>>>>;;;;;;;;",
"''''''''>>>>>>>>,,,,,,,,@@@@@@@@@@@@@@@@@@@@@@@@@@@@@@@@@@@@@@@@@@@@@@@@@@@@@@@@@@@@@@@@@@@@@@@@@@@@@@@@,,,,,,,,>>>>>>>>;;;;;;;;",
"''''''''>>>>>>>>,,,,,,,,@@@@@@@@@@@@@@@@@@@@@@@@@@@@@@@@@@@@@@@@@@@@@@@@@@@@@@@@@@@@@@@@@@@@@@@@@@@@@@@@,,,,,,,,>>>>>>>>;;;;;;;;",
"''''''''>>>>>>>>,,,,,,,,@@@@@@@@@@@@@@@@@@@@@@@@@@@@@@@@@@@@@@@@@@@@@@@@@@@@@@@@@@@@@@@@@@@@@@@@@@@@@@@@,,,,,,,,>>>>>>>>;;;;;;;;",
"''''''''>>>>>>>>,,,,,,,,@@@@@@@@@@@@@@@@@@@@@@@@@@@@@@@@@@@@@@@@@@@@@@@@@@@@@@@@@@@@@@@@@@@@@@@@@@@@@@@@,,,,,,,,>>>>>>>>;;;;;;;;",
"''''''''>>>>>>>>,,,,,,,,@@@@@@@@@@@@@@@@@@@@@@@@@@@@@@@@@@@@@@@@@@@@@@@@@@@@@@@@@@@@@@@@@@@@@@@@@@@@@@@@,,,,,,,,>>>>>>>>;;;;;;;;",
"-------->>>>>>>>********@@@@@@@@@@@@@@@@@@@@@@@@@@@@@@@@@@@@@@@@@@@@@@@@@@@@@@@@@@@@@@@@@@@@@@@@@@@@@@@@********>>>>>>>>%%%%%%%%",
"-------->>>>>>>>********@@@@@@@@@@@@@@@@@@@@@@@@@@@@@@@@@@@@@@@@@@@@@@@@@@@@@@@@@@@@@@@@@@@@@@@@@@@@@@@@********>>>>>>>>%%%%%%%%",
"-------->>>>>>>>********@@@@@@@@@@@@@@@@@@@@@@@@@@@@@@@@@@@@@@@@@@@@@@@@@@@@@@@@@@@@@@@@@@@@@@@@@@@@@@@@********>>>>>>>>%%%%%%%%",
"-------->>>>>>>>********@@@@@@@@@@@@@@@@@@@@@@@@@@@@@@@@@@@@@@@@@@@@@@@@@@@@@@@@@@@@@@@@@@@@@@@@@@@@@@@@********>>>>>>>>%%%%%%%%",
"-------->>>>>>>>********@@@@@@@@@@@@@@@@@@@@@@@@@@@@@@@@@@@@@@@@@@@@@@@@@@@@@@@@@@@@@@@@@@@@@@@@@@@@@@@@********>>>>>>>>%%%%%%%%",
"-------->>>>>>>>********@@@@@@@@@@@@@@@@@@@@@@@@@@@@@@@@@@@@@@@@@@@@@@@@@@@@@@@@@@@@@@@@@@@@@@@@@@@@@@@@********>>>>>>>>%%%%%%%%",
"-------->>>>>>>>********@@@@@@@@@@@@@@@@@@@@@@@@@@@@@@@@@@@@@@@@@@@@@@@@@@@@@@@@@@@@@@@@@@@@@@@@@@@@@@@@********>>>>>>>>%%%%%%%%",
"-------->>>>>>>>********@@@@@@@@@@@@@@@@@@@@@@@@@@@@@@@@@@@@@@@@@@@@@@@@@@@@@@@@@@@@@@@@@@@@@@@@@@@@@@@@********>>>>>>>>%%%%%%%%",
"$$$$$$$$========++++++++@@@@@@@@@@@@@@@@@@@@@@@@@@@@@@@@@@@@@@@@@@@@@@@@@@@@@@@@@@@@@@@@@@@@@@@@@@@@@@@@++++++++&&&&&&&&        ",
"$$$$$$$$========++++++++@@@@@@@@@@@@@@@@@@@@@@@@@@@@@@@@@@@@@@@@@@@@@@@@@@@@@@@@@@@@@@@@@@@@@@@@@@@@@@@@++++++++&&&&&&&&        ",
"$$$$$$$$========++++++++@@@@@@@@@@@@@@@@@@@@@@@@@@@@@@@@@@@@@@@@@@@@@@@@@@@@@@@@@@@@@@@@@@@@@@@@@@@@@@@@++++++++&&&&&&&&        ",
"$$$$$$$$========++++++++@@@@@@@@@@@@@@@@@@@@@@@@@@@@@@@@@@@@@@@@@@@@@@@@@@@@@@@@@@@@@@@@@@@@@@@@@@@@@@@@++++++++&&&&&&&&        ",
"$$$$$$$$========++++++++@@@@@@@@@@@@@@@@@@@@@@@@@@@@@@@@@@@@@@@@@@@@@@@@@@@@@@@@@@@@@@@@@@@@@@@@@@@@@@@@++++++++&&&&&&&&        ",
"$$$$$$$$========++++++++@@@@@@@@@@@@@@@@@@@@@@@@@@@@@@@@@@@@@@@@@@@@@@@@@@@@@@@@@@@@@@@@@@@@@@@@@@@@@@@@++++++++&&&&&&&&        ",
"$$$$$$$$========++++++++@@@@@@@@@@@@@@@@@@@@@@@@@@@@@@@@@@@@@@@@@@@@@@@@@@@@@@@@@@@@@@@@@@@@@@@@@@@@@@@@++++++++&&&&&&&&        ",
"$$$$$$$$========++++++++@@@@@@@@@@@@@@@@@@@@@@@@@@@@@@@@@@@@@@@@@@@@@@@@@@@@@@@@@@@@@@@@@@@@@@@@@@@@@@@@++++++++&&&&&&&&        "};
