/* XPM */
static char * cesped_11_xpm[] = {
"128 128 27 1",
" 	c #655A4C",
".	c #625D2B",
"+	c #655B49",
"@	c #655C48",
"#	c #64602E",
"$	c #635E34",
"%	c #655B48",
"&	c #64612B",
"*	c #6A7029",
"=	c #63602B",
"-	c #645B47",
";	c #625D35",
">	c #635F2B",
",	c #72751B",
"'	c #635D35",
")	c #64602D",
"!	c #6B7027",
"~	c #6B7028",
"{	c #696C2D",
"]	c #70721F",
"^	c #6C7027",
"/	c #6C7126",
"(	c #6F721F",
"_	c #686C2A",
":	c #65622D",
"<	c #70731E",
"[	c #65622A",
"                        ........                ........                ........        ........                        ++++++++",
"                        ........                ........                ........        ........                        ++++++++",
"                        ........                ........                ........        ........                        ++++++++",
"                        ........                ........                ........        ........                        ++++++++",
"                        ........                ........                ........        ........                        ++++++++",
"                        ........                ........                ........        ........                        ++++++++",
"                        ........                ........                ........        ........                        ++++++++",
"                        ........                ........                ........        ........                        ++++++++",
"@@@@@@@@        ########........        ........................................        ........................        $$$$$$$$",
"@@@@@@@@        ########........        ........................................        ........................        $$$$$$$$",
"@@@@@@@@        ########........        ........................................        ........................        $$$$$$$$",
"@@@@@@@@        ########........        ........................................        ........................        $$$$$$$$",
"@@@@@@@@        ########........        ........................................        ........................        $$$$$$$$",
"@@@@@@@@        ########........        ........................................        ........................        $$$$$$$$",
"@@@@@@@@        ########........        ........................................        ........................        $$$$$$$$",
"@@@@@@@@        ########........        ........................................        ........................        $$$$$$$$",
"%%%%%%%%        ########&&&&&&&&&&&&&&&&########********************************========................................--------",
"%%%%%%%%        ########&&&&&&&&&&&&&&&&########********************************========................................--------",
"%%%%%%%%        ########&&&&&&&&&&&&&&&&########********************************========................................--------",
"%%%%%%%%        ########&&&&&&&&&&&&&&&&########********************************========................................--------",
"%%%%%%%%        ########&&&&&&&&&&&&&&&&########********************************========................................--------",
"%%%%%%%%        ########&&&&&&&&&&&&&&&&########********************************========................................--------",
"%%%%%%%%        ########&&&&&&&&&&&&&&&&########********************************========................................--------",
"%%%%%%%%        ########&&&&&&&&&&&&&&&&########********************************========................................--------",
";;;;;;;;>>>>>>>>&&&&&&&&########****************,,,,,,,,,,,,,,,,,,,,,,,,,,,,,,,,****************........&&&&&&&&&&&&&&&&''''''''",
";;;;;;;;>>>>>>>>&&&&&&&&########****************,,,,,,,,,,,,,,,,,,,,,,,,,,,,,,,,****************........&&&&&&&&&&&&&&&&''''''''",
";;;;;;;;>>>>>>>>&&&&&&&&########****************,,,,,,,,,,,,,,,,,,,,,,,,,,,,,,,,****************........&&&&&&&&&&&&&&&&''''''''",
";;;;;;;;>>>>>>>>&&&&&&&&########****************,,,,,,,,,,,,,,,,,,,,,,,,,,,,,,,,****************........&&&&&&&&&&&&&&&&''''''''",
";;;;;;;;>>>>>>>>&&&&&&&&########****************,,,,,,,,,,,,,,,,,,,,,,,,,,,,,,,,****************........&&&&&&&&&&&&&&&&''''''''",
";;;;;;;;>>>>>>>>&&&&&&&&########****************,,,,,,,,,,,,,,,,,,,,,,,,,,,,,,,,****************........&&&&&&&&&&&&&&&&''''''''",
";;;;;;;;>>>>>>>>&&&&&&&&########****************,,,,,,,,,,,,,,,,,,,,,,,,,,,,,,,,****************........&&&&&&&&&&&&&&&&''''''''",
";;;;;;;;>>>>>>>>&&&&&&&&########****************,,,,,,,,,,,,,,,,,,,,,,,,,,,,,,,,****************........&&&&&&&&&&&&&&&&''''''''",
"%%%%%%%%########&&&&&&&&********,,,,,,,,,,,,,,,,,,,,,,,,,,,,,,,,,,,,,,,,,,,,,,,,,,,,,,,,,,,,,,,,********))))))))@@@@@@@@@@@@@@@@",
"%%%%%%%%########&&&&&&&&********,,,,,,,,,,,,,,,,,,,,,,,,,,,,,,,,,,,,,,,,,,,,,,,,,,,,,,,,,,,,,,,,********))))))))@@@@@@@@@@@@@@@@",
"%%%%%%%%########&&&&&&&&********,,,,,,,,,,,,,,,,,,,,,,,,,,,,,,,,,,,,,,,,,,,,,,,,,,,,,,,,,,,,,,,,********))))))))@@@@@@@@@@@@@@@@",
"%%%%%%%%########&&&&&&&&********,,,,,,,,,,,,,,,,,,,,,,,,,,,,,,,,,,,,,,,,,,,,,,,,,,,,,,,,,,,,,,,,********))))))))@@@@@@@@@@@@@@@@",
"%%%%%%%%########&&&&&&&&********,,,,,,,,,,,,,,,,,,,,,,,,,,,,,,,,,,,,,,,,,,,,,,,,,,,,,,,,,,,,,,,,********))))))))@@@@@@@@@@@@@@@@",
"%%%%%%%%########&&&&&&&&********,,,,,,,,,,,,,,,,,,,,,,,,,,,,,,,,,,,,,,,,,,,,,,,,,,,,,,,,,,,,,,,,********))))))))@@@@@@@@@@@@@@@@",
"%%%%%%%%########&&&&&&&&********,,,,,,,,,,,,,,,,,,,,,,,,,,,,,,,,,,,,,,,,,,,,,,,,,,,,,,,,,,,,,,,,********))))))))@@@@@@@@@@@@@@@@",
"%%%%%%%%########&&&&&&&&********,,,,,,,,,,,,,,,,,,,,,,,,,,,,,,,,,,,,,,,,,,,,,,,,,,,,,,,,,,,,,,,,********))))))))@@@@@@@@@@@@@@@@",
"@@@@@@@@&&&&&&&&########,,,,,,,,,,,,,,,,,,,,,,,,,,,,,,,,,,,,,,,,,,,,,,,,,,,,,,,,,,,,,,,,,,,,,,,,********........))))))))%%%%%%%%",
"@@@@@@@@&&&&&&&&########,,,,,,,,,,,,,,,,,,,,,,,,,,,,,,,,,,,,,,,,,,,,,,,,,,,,,,,,,,,,,,,,,,,,,,,,********........))))))))%%%%%%%%",
"@@@@@@@@&&&&&&&&########,,,,,,,,,,,,,,,,,,,,,,,,,,,,,,,,,,,,,,,,,,,,,,,,,,,,,,,,,,,,,,,,,,,,,,,,********........))))))))%%%%%%%%",
"@@@@@@@@&&&&&&&&########,,,,,,,,,,,,,,,,,,,,,,,,,,,,,,,,,,,,,,,,,,,,,,,,,,,,,,,,,,,,,,,,,,,,,,,,********........))))))))%%%%%%%%",
"@@@@@@@@&&&&&&&&########,,,,,,,,,,,,,,,,,,,,,,,,,,,,,,,,,,,,,,,,,,,,,,,,,,,,,,,,,,,,,,,,,,,,,,,,********........))))))))%%%%%%%%",
"@@@@@@@@&&&&&&&&########,,,,,,,,,,,,,,,,,,,,,,,,,,,,,,,,,,,,,,,,,,,,,,,,,,,,,,,,,,,,,,,,,,,,,,,,********........))))))))%%%%%%%%",
"@@@@@@@@&&&&&&&&########,,,,,,,,,,,,,,,,,,,,,,,,,,,,,,,,,,,,,,,,,,,,,,,,,,,,,,,,,,,,,,,,,,,,,,,,********........))))))))%%%%%%%%",
"@@@@@@@@&&&&&&&&########,,,,,,,,,,,,,,,,,,,,,,,,,,,,,,,,,,,,,,,,,,,,,,,,,,,,,,,,,,,,,,,,,,,,,,,,********........))))))))%%%%%%%%",
"''''''''&&&&&&&&!!!!!!!!,,,,,,,,,,,,,,,,,,,,,,,,,,,,,,,,,,,,,,,,,,,,,,,,,,,,,,,,,,,,,,,,,,,,,,,,,,,,,,,,================''''''''",
"''''''''&&&&&&&&!!!!!!!!,,,,,,,,,,,,,,,,,,,,,,,,,,,,,,,,,,,,,,,,,,,,,,,,,,,,,,,,,,,,,,,,,,,,,,,,,,,,,,,,================''''''''",
"''''''''&&&&&&&&!!!!!!!!,,,,,,,,,,,,,,,,,,,,,,,,,,,,,,,,,,,,,,,,,,,,,,,,,,,,,,,,,,,,,,,,,,,,,,,,,,,,,,,,================''''''''",
"''''''''&&&&&&&&!!!!!!!!,,,,,,,,,,,,,,,,,,,,,,,,,,,,,,,,,,,,,,,,,,,,,,,,,,,,,,,,,,,,,,,,,,,,,,,,,,,,,,,,================''''''''",
"''''''''&&&&&&&&!!!!!!!!,,,,,,,,,,,,,,,,,,,,,,,,,,,,,,,,,,,,,,,,,,,,,,,,,,,,,,,,,,,,,,,,,,,,,,,,,,,,,,,,================''''''''",
"''''''''&&&&&&&&!!!!!!!!,,,,,,,,,,,,,,,,,,,,,,,,,,,,,,,,,,,,,,,,,,,,,,,,,,,,,,,,,,,,,,,,,,,,,,,,,,,,,,,,================''''''''",
"''''''''&&&&&&&&!!!!!!!!,,,,,,,,,,,,,,,,,,,,,,,,,,,,,,,,,,,,,,,,,,,,,,,,,,,,,,,,,,,,,,,,,,,,,,,,,,,,,,,,================''''''''",
"''''''''&&&&&&&&!!!!!!!!,,,,,,,,,,,,,,,,,,,,,,,,,,,,,,,,,,,,,,,,,,,,,,,,,,,,,,,,,,,,,,,,,,,,,,,,,,,,,,,,================''''''''",
"%%%%%%%%########!!!!!!!!,,,,,,,,,,,,,,,,,,,,,,,,,,,,,,,,,,,,,,,,,,,,,,,,,,,,,,,,,,,,,,,,,,,,,,,,,,,,,,,,~~~~~~~~########@@@@@@@@",
"%%%%%%%%########!!!!!!!!,,,,,,,,,,,,,,,,,,,,,,,,,,,,,,,,,,,,,,,,,,,,,,,,,,,,,,,,,,,,,,,,,,,,,,,,,,,,,,,,~~~~~~~~########@@@@@@@@",
"%%%%%%%%########!!!!!!!!,,,,,,,,,,,,,,,,,,,,,,,,,,,,,,,,,,,,,,,,,,,,,,,,,,,,,,,,,,,,,,,,,,,,,,,,,,,,,,,,~~~~~~~~########@@@@@@@@",
"%%%%%%%%########!!!!!!!!,,,,,,,,,,,,,,,,,,,,,,,,,,,,,,,,,,,,,,,,,,,,,,,,,,,,,,,,,,,,,,,,,,,,,,,,,,,,,,,,~~~~~~~~########@@@@@@@@",
"%%%%%%%%########!!!!!!!!,,,,,,,,,,,,,,,,,,,,,,,,,,,,,,,,,,,,,,,,,,,,,,,,,,,,,,,,,,,,,,,,,,,,,,,,,,,,,,,,~~~~~~~~########@@@@@@@@",
"%%%%%%%%########!!!!!!!!,,,,,,,,,,,,,,,,,,,,,,,,,,,,,,,,,,,,,,,,,,,,,,,,,,,,,,,,,,,,,,,,,,,,,,,,,,,,,,,,~~~~~~~~########@@@@@@@@",
"%%%%%%%%########!!!!!!!!,,,,,,,,,,,,,,,,,,,,,,,,,,,,,,,,,,,,,,,,,,,,,,,,,,,,,,,,,,,,,,,,,,,,,,,,,,,,,,,,~~~~~~~~########@@@@@@@@",
"%%%%%%%%########!!!!!!!!,,,,,,,,,,,,,,,,,,,,,,,,,,,,,,,,,,,,,,,,,,,,,,,,,,,,,,,,,,,,,,,,,,,,,,,,,,,,,,,,~~~~~~~~########@@@@@@@@",
"@@@@@@@@{{{{{{{{~~~~~~~~,,,,,,,,,,,,,,,,,,,,,,,,,,,,,,,,,,,,,,,,,,,,,,,,,,,,,,,,,,,,,,,,,,,,,,,,,,,,,,,,!!!!!!!!########%%%%%%%%",
"@@@@@@@@{{{{{{{{~~~~~~~~,,,,,,,,,,,,,,,,,,,,,,,,,,,,,,,,,,,,,,,,,,,,,,,,,,,,,,,,,,,,,,,,,,,,,,,,,,,,,,,,!!!!!!!!########%%%%%%%%",
"@@@@@@@@{{{{{{{{~~~~~~~~,,,,,,,,,,,,,,,,,,,,,,,,,,,,,,,,,,,,,,,,,,,,,,,,,,,,,,,,,,,,,,,,,,,,,,,,,,,,,,,,!!!!!!!!########%%%%%%%%",
"@@@@@@@@{{{{{{{{~~~~~~~~,,,,,,,,,,,,,,,,,,,,,,,,,,,,,,,,,,,,,,,,,,,,,,,,,,,,,,,,,,,,,,,,,,,,,,,,,,,,,,,,!!!!!!!!########%%%%%%%%",
"@@@@@@@@{{{{{{{{~~~~~~~~,,,,,,,,,,,,,,,,,,,,,,,,,,,,,,,,,,,,,,,,,,,,,,,,,,,,,,,,,,,,,,,,,,,,,,,,,,,,,,,,!!!!!!!!########%%%%%%%%",
"@@@@@@@@{{{{{{{{~~~~~~~~,,,,,,,,,,,,,,,,,,,,,,,,,,,,,,,,,,,,,,,,,,,,,,,,,,,,,,,,,,,,,,,,,,,,,,,,,,,,,,,,!!!!!!!!########%%%%%%%%",
"@@@@@@@@{{{{{{{{~~~~~~~~,,,,,,,,,,,,,,,,,,,,,,,,,,,,,,,,,,,,,,,,,,,,,,,,,,,,,,,,,,,,,,,,,,,,,,,,,,,,,,,,!!!!!!!!########%%%%%%%%",
"@@@@@@@@{{{{{{{{~~~~~~~~,,,,,,,,,,,,,,,,,,,,,,,,,,,,,,,,,,,,,,,,,,,,,,,,,,,,,,,,,,,,,,,,,,,,,,,,,,,,,,,,!!!!!!!!########%%%%%%%%",
"''''''''========!!!!!!!!,,,,,,,,,,,,,,,,,,,,,,,,,,,,,,,,,,,,,,,,,,,,,,,,,,,,,,,,,,,,,,,,,,,,,,,,,,,,,,,,]]]]]]]]&&&&&&&&''''''''",
"''''''''========!!!!!!!!,,,,,,,,,,,,,,,,,,,,,,,,,,,,,,,,,,,,,,,,,,,,,,,,,,,,,,,,,,,,,,,,,,,,,,,,,,,,,,,,]]]]]]]]&&&&&&&&''''''''",
"''''''''========!!!!!!!!,,,,,,,,,,,,,,,,,,,,,,,,,,,,,,,,,,,,,,,,,,,,,,,,,,,,,,,,,,,,,,,,,,,,,,,,,,,,,,,,]]]]]]]]&&&&&&&&''''''''",
"''''''''========!!!!!!!!,,,,,,,,,,,,,,,,,,,,,,,,,,,,,,,,,,,,,,,,,,,,,,,,,,,,,,,,,,,,,,,,,,,,,,,,,,,,,,,,]]]]]]]]&&&&&&&&''''''''",
"''''''''========!!!!!!!!,,,,,,,,,,,,,,,,,,,,,,,,,,,,,,,,,,,,,,,,,,,,,,,,,,,,,,,,,,,,,,,,,,,,,,,,,,,,,,,,]]]]]]]]&&&&&&&&''''''''",
"''''''''========!!!!!!!!,,,,,,,,,,,,,,,,,,,,,,,,,,,,,,,,,,,,,,,,,,,,,,,,,,,,,,,,,,,,,,,,,,,,,,,,,,,,,,,,]]]]]]]]&&&&&&&&''''''''",
"''''''''========!!!!!!!!,,,,,,,,,,,,,,,,,,,,,,,,,,,,,,,,,,,,,,,,,,,,,,,,,,,,,,,,,,,,,,,,,,,,,,,,,,,,,,,,]]]]]]]]&&&&&&&&''''''''",
"''''''''========!!!!!!!!,,,,,,,,,,,,,,,,,,,,,,,,,,,,,,,,,,,,,,,,,,,,,,,,,,,,,,,,,,,,,,,,,,,,,,,,,,,,,,,,]]]]]]]]&&&&&&&&''''''''",
"%%%%%%%%))))))))]]]]]]]],,,,,,,,,,,,,,,,,,,,,,,,,,,,,,,,,,,,,,,,,,,,,,,,,,,,,,,,,,,,,,,,,,,,,,,,,,,,,,,,^^^^^^^^{{{{{{{{@@@@@@@@",
"%%%%%%%%))))))))]]]]]]]],,,,,,,,,,,,,,,,,,,,,,,,,,,,,,,,,,,,,,,,,,,,,,,,,,,,,,,,,,,,,,,,,,,,,,,,,,,,,,,,^^^^^^^^{{{{{{{{@@@@@@@@",
"%%%%%%%%))))))))]]]]]]]],,,,,,,,,,,,,,,,,,,,,,,,,,,,,,,,,,,,,,,,,,,,,,,,,,,,,,,,,,,,,,,,,,,,,,,,,,,,,,,,^^^^^^^^{{{{{{{{@@@@@@@@",
"%%%%%%%%))))))))]]]]]]]],,,,,,,,,,,,,,,,,,,,,,,,,,,,,,,,,,,,,,,,,,,,,,,,,,,,,,,,,,,,,,,,,,,,,,,,,,,,,,,,^^^^^^^^{{{{{{{{@@@@@@@@",
"%%%%%%%%))))))))]]]]]]]],,,,,,,,,,,,,,,,,,,,,,,,,,,,,,,,,,,,,,,,,,,,,,,,,,,,,,,,,,,,,,,,,,,,,,,,,,,,,,,,^^^^^^^^{{{{{{{{@@@@@@@@",
"%%%%%%%%))))))))]]]]]]]],,,,,,,,,,,,,,,,,,,,,,,,,,,,,,,,,,,,,,,,,,,,,,,,,,,,,,,,,,,,,,,,,,,,,,,,,,,,,,,,^^^^^^^^{{{{{{{{@@@@@@@@",
"%%%%%%%%))))))))]]]]]]]],,,,,,,,,,,,,,,,,,,,,,,,,,,,,,,,,,,,,,,,,,,,,,,,,,,,,,,,,,,,,,,,,,,,,,,,,,,,,,,,^^^^^^^^{{{{{{{{@@@@@@@@",
"%%%%%%%%))))))))]]]]]]]],,,,,,,,,,,,,,,,,,,,,,,,,,,,,,,,,,,,,,,,,,,,,,,,,,,,,,,,,,,,,,,,,,,,,,,,,,,,,,,,^^^^^^^^{{{{{{{{@@@@@@@@",
"@@@@@@@@{{{{{{{{////////,,,,,,,,,,,,,,,,,,,,,,,,,,,,,,,,,,,,,,,,,,,,,,,,,,,,,,,,,,,,,,,,,,,,,,,,,,,,,,,,!!!!!!!!########%%%%%%%%",
"@@@@@@@@{{{{{{{{////////,,,,,,,,,,,,,,,,,,,,,,,,,,,,,,,,,,,,,,,,,,,,,,,,,,,,,,,,,,,,,,,,,,,,,,,,,,,,,,,,!!!!!!!!########%%%%%%%%",
"@@@@@@@@{{{{{{{{////////,,,,,,,,,,,,,,,,,,,,,,,,,,,,,,,,,,,,,,,,,,,,,,,,,,,,,,,,,,,,,,,,,,,,,,,,,,,,,,,,!!!!!!!!########%%%%%%%%",
"@@@@@@@@{{{{{{{{////////,,,,,,,,,,,,,,,,,,,,,,,,,,,,,,,,,,,,,,,,,,,,,,,,,,,,,,,,,,,,,,,,,,,,,,,,,,,,,,,,!!!!!!!!########%%%%%%%%",
"@@@@@@@@{{{{{{{{////////,,,,,,,,,,,,,,,,,,,,,,,,,,,,,,,,,,,,,,,,,,,,,,,,,,,,,,,,,,,,,,,,,,,,,,,,,,,,,,,,!!!!!!!!########%%%%%%%%",
"@@@@@@@@{{{{{{{{////////,,,,,,,,,,,,,,,,,,,,,,,,,,,,,,,,,,,,,,,,,,,,,,,,,,,,,,,,,,,,,,,,,,,,,,,,,,,,,,,,!!!!!!!!########%%%%%%%%",
"@@@@@@@@{{{{{{{{////////,,,,,,,,,,,,,,,,,,,,,,,,,,,,,,,,,,,,,,,,,,,,,,,,,,,,,,,,,,,,,,,,,,,,,,,,,,,,,,,,!!!!!!!!########%%%%%%%%",
"@@@@@@@@{{{{{{{{////////,,,,,,,,,,,,,,,,,,,,,,,,,,,,,,,,,,,,,,,,,,,,,,,,,,,,,,,,,,,,,,,,,,,,,,,,,,,,,,,,!!!!!!!!########%%%%%%%%",
"''''''''&&&&&&&&]]]]]]]],,,,,,,,,,,,,,,,,,,,,,,,,,,,,,,,,,,,,,,,,,,,,,,,,,,,,,,,,,,,,,,,,,,,,,,,,,,,,,,,((((((((>>>>>>>>;;;;;;;;",
"''''''''&&&&&&&&]]]]]]]],,,,,,,,,,,,,,,,,,,,,,,,,,,,,,,,,,,,,,,,,,,,,,,,,,,,,,,,,,,,,,,,,,,,,,,,,,,,,,,,((((((((>>>>>>>>;;;;;;;;",
"''''''''&&&&&&&&]]]]]]]],,,,,,,,,,,,,,,,,,,,,,,,,,,,,,,,,,,,,,,,,,,,,,,,,,,,,,,,,,,,,,,,,,,,,,,,,,,,,,,,((((((((>>>>>>>>;;;;;;;;",
"''''''''&&&&&&&&]]]]]]]],,,,,,,,,,,,,,,,,,,,,,,,,,,,,,,,,,,,,,,,,,,,,,,,,,,,,,,,,,,,,,,,,,,,,,,,,,,,,,,,((((((((>>>>>>>>;;;;;;;;",
"''''''''&&&&&&&&]]]]]]]],,,,,,,,,,,,,,,,,,,,,,,,,,,,,,,,,,,,,,,,,,,,,,,,,,,,,,,,,,,,,,,,,,,,,,,,,,,,,,,,((((((((>>>>>>>>;;;;;;;;",
"''''''''&&&&&&&&]]]]]]]],,,,,,,,,,,,,,,,,,,,,,,,,,,,,,,,,,,,,,,,,,,,,,,,,,,,,,,,,,,,,,,,,,,,,,,,,,,,,,,,((((((((>>>>>>>>;;;;;;;;",
"''''''''&&&&&&&&]]]]]]]],,,,,,,,,,,,,,,,,,,,,,,,,,,,,,,,,,,,,,,,,,,,,,,,,,,,,,,,,,,,,,,,,,,,,,,,,,,,,,,,((((((((>>>>>>>>;;;;;;;;",
"''''''''&&&&&&&&]]]]]]]],,,,,,,,,,,,,,,,,,,,,,,,,,,,,,,,,,,,,,,,,,,,,,,,,,,,,,,,,,,,,,,,,,,,,,,,,,,,,,,,((((((((>>>>>>>>;;;;;;;;",
"--------########!!!!!!!!,,,,,,,,,,,,,,,,,,,,,,,,,,,,,,,,,,,,,,,,,,,,,,,,,,,,,,,,,,,,,,,,,,,,,,,,,,,,,,,,!!!!!!!!########%%%%%%%%",
"--------########!!!!!!!!,,,,,,,,,,,,,,,,,,,,,,,,,,,,,,,,,,,,,,,,,,,,,,,,,,,,,,,,,,,,,,,,,,,,,,,,,,,,,,,,!!!!!!!!########%%%%%%%%",
"--------########!!!!!!!!,,,,,,,,,,,,,,,,,,,,,,,,,,,,,,,,,,,,,,,,,,,,,,,,,,,,,,,,,,,,,,,,,,,,,,,,,,,,,,,,!!!!!!!!########%%%%%%%%",
"--------########!!!!!!!!,,,,,,,,,,,,,,,,,,,,,,,,,,,,,,,,,,,,,,,,,,,,,,,,,,,,,,,,,,,,,,,,,,,,,,,,,,,,,,,,!!!!!!!!########%%%%%%%%",
"--------########!!!!!!!!,,,,,,,,,,,,,,,,,,,,,,,,,,,,,,,,,,,,,,,,,,,,,,,,,,,,,,,,,,,,,,,,,,,,,,,,,,,,,,,,!!!!!!!!########%%%%%%%%",
"--------########!!!!!!!!,,,,,,,,,,,,,,,,,,,,,,,,,,,,,,,,,,,,,,,,,,,,,,,,,,,,,,,,,,,,,,,,,,,,,,,,,,,,,,,,!!!!!!!!########%%%%%%%%",
"--------########!!!!!!!!,,,,,,,,,,,,,,,,,,,,,,,,,,,,,,,,,,,,,,,,,,,,,,,,,,,,,,,,,,,,,,,,,,,,,,,,,,,,,,,,!!!!!!!!########%%%%%%%%",
"--------########!!!!!!!!,,,,,,,,,,,,,,,,,,,,,,,,,,,,,,,,,,,,,,,,,,,,,,,,,,,,,,,,,,,,,,,,,,,,,,,,,,,,,,,,!!!!!!!!########%%%%%%%%",
"$$$$$$$$________^^^^^^^^,,,,,,,,,,,,,,,,,,,,,,,,,,,,,,,,,,,,,,,,,,,,,,,,,,,,,,,,,,,,,,,,,,,,,,,,,,,,,,,,^^^^^^^^{{{{{{{{@@@@@@@@",
"$$$$$$$$________^^^^^^^^,,,,,,,,,,,,,,,,,,,,,,,,,,,,,,,,,,,,,,,,,,,,,,,,,,,,,,,,,,,,,,,,,,,,,,,,,,,,,,,,^^^^^^^^{{{{{{{{@@@@@@@@",
"$$$$$$$$________^^^^^^^^,,,,,,,,,,,,,,,,,,,,,,,,,,,,,,,,,,,,,,,,,,,,,,,,,,,,,,,,,,,,,,,,,,,,,,,,,,,,,,,,^^^^^^^^{{{{{{{{@@@@@@@@",
"$$$$$$$$________^^^^^^^^,,,,,,,,,,,,,,,,,,,,,,,,,,,,,,,,,,,,,,,,,,,,,,,,,,,,,,,,,,,,,,,,,,,,,,,,,,,,,,,,^^^^^^^^{{{{{{{{@@@@@@@@",
"$$$$$$$$________^^^^^^^^,,,,,,,,,,,,,,,,,,,,,,,,,,,,,,,,,,,,,,,,,,,,,,,,,,,,,,,,,,,,,,,,,,,,,,,,,,,,,,,,^^^^^^^^{{{{{{{{@@@@@@@@",
"$$$$$$$$________^^^^^^^^,,,,,,,,,,,,,,,,,,,,,,,,,,,,,,,,,,,,,,,,,,,,,,,,,,,,,,,,,,,,,,,,,,,,,,,,,,,,,,,,^^^^^^^^{{{{{{{{@@@@@@@@",
"$$$$$$$$________^^^^^^^^,,,,,,,,,,,,,,,,,,,,,,,,,,,,,,,,,,,,,,,,,,,,,,,,,,,,,,,,,,,,,,,,,,,,,,,,,,,,,,,,^^^^^^^^{{{{{{{{@@@@@@@@",
"$$$$$$$$________^^^^^^^^,,,,,,,,,,,,,,,,,,,,,,,,,,,,,,,,,,,,,,,,,,,,,,,,,,,,,,,,,,,,,,,,,,,,,,,,,,,,,,,,^^^^^^^^{{{{{{{{@@@@@@@@",
"++++++++::::::::<<<<<<<<,,,,,,,,,,,,,,,,,,,,,,,,,,,,,,,,,,,,,,,,,,,,,,,,,,,,,,,,,,,,,,,,,,,,,,,,,,,,,,,,<<<<<<<<[[[[[[[[;;;;;;;;",
"++++++++::::::::<<<<<<<<,,,,,,,,,,,,,,,,,,,,,,,,,,,,,,,,,,,,,,,,,,,,,,,,,,,,,,,,,,,,,,,,,,,,,,,,,,,,,,,,<<<<<<<<[[[[[[[[;;;;;;;;",
"++++++++::::::::<<<<<<<<,,,,,,,,,,,,,,,,,,,,,,,,,,,,,,,,,,,,,,,,,,,,,,,,,,,,,,,,,,,,,,,,,,,,,,,,,,,,,,,,<<<<<<<<[[[[[[[[;;;;;;;;",
"++++++++::::::::<<<<<<<<,,,,,,,,,,,,,,,,,,,,,,,,,,,,,,,,,,,,,,,,,,,,,,,,,,,,,,,,,,,,,,,,,,,,,,,,,,,,,,,,<<<<<<<<[[[[[[[[;;;;;;;;",
"++++++++::::::::<<<<<<<<,,,,,,,,,,,,,,,,,,,,,,,,,,,,,,,,,,,,,,,,,,,,,,,,,,,,,,,,,,,,,,,,,,,,,,,,,,,,,,,,<<<<<<<<[[[[[[[[;;;;;;;;",
"++++++++::::::::<<<<<<<<,,,,,,,,,,,,,,,,,,,,,,,,,,,,,,,,,,,,,,,,,,,,,,,,,,,,,,,,,,,,,,,,,,,,,,,,,,,,,,,,<<<<<<<<[[[[[[[[;;;;;;;;",
"++++++++::::::::<<<<<<<<,,,,,,,,,,,,,,,,,,,,,,,,,,,,,,,,,,,,,,,,,,,,,,,,,,,,,,,,,,,,,,,,,,,,,,,,,,,,,,,,<<<<<<<<[[[[[[[[;;;;;;;;",
"++++++++::::::::<<<<<<<<,,,,,,,,,,,,,,,,,,,,,,,,,,,,,,,,,,,,,,,,,,,,,,,,,,,,,,,,,,,,,,,,,,,,,,,,,,,,,,,,<<<<<<<<[[[[[[[[;;;;;;;;"};
