/* XPM */
static char * cesped_5_xpm[] = {
"128 128 17 1",
" 	c #655A4C",
".	c #625D2B",
"+	c #6A7029",
"@	c #72751B",
"#	c #5C402D",
"$	c #777064",
"%	c #787165",
"&	c #99978F",
"*	c #868579",
"=	c #6E6559",
"-	c #71685C",
";	c #70685C",
">	c #5B3C29",
",	c #766F63",
"'	c #767064",
")	c #70675B",
"!	c #736B5F",
"        ........        ........                ........                ........                ........                ........",
"        ........        ........                ........                ........                ........                ........",
"        ........        ........                ........                ........                ........                ........",
"        ........        ........                ........                ........                ........                ........",
"        ........        ........                ........                ........                ........                ........",
"        ........        ........                ........                ........                ........                ........",
"        ........        ........                ........                ........                ........                ........",
"        ........        ........                ........                ........                ........                ........",
"++++++++........................++++++++................++++++++................++++++++++++++++........................++++++++",
"++++++++........................++++++++................++++++++................++++++++++++++++........................++++++++",
"++++++++........................++++++++................++++++++................++++++++++++++++........................++++++++",
"++++++++........................++++++++................++++++++................++++++++++++++++........................++++++++",
"++++++++........................++++++++................++++++++................++++++++++++++++........................++++++++",
"++++++++........................++++++++................++++++++................++++++++++++++++........................++++++++",
"++++++++........................++++++++................++++++++................++++++++++++++++........................++++++++",
"++++++++........................++++++++................++++++++................++++++++++++++++........................++++++++",
"@@@@@@@@++++++++++++++++@@@@@@@@++++++++@@@@@@@@++++++++++++++++++++++++@@@@@@@@++++++++++++++++@@@@@@@@++++++++++++++++@@@@@@@@",
"@@@@@@@@++++++++++++++++@@@@@@@@++++++++@@@@@@@@++++++++++++++++++++++++@@@@@@@@++++++++++++++++@@@@@@@@++++++++++++++++@@@@@@@@",
"@@@@@@@@++++++++++++++++@@@@@@@@++++++++@@@@@@@@++++++++++++++++++++++++@@@@@@@@++++++++++++++++@@@@@@@@++++++++++++++++@@@@@@@@",
"@@@@@@@@++++++++++++++++@@@@@@@@++++++++@@@@@@@@++++++++++++++++++++++++@@@@@@@@++++++++++++++++@@@@@@@@++++++++++++++++@@@@@@@@",
"@@@@@@@@++++++++++++++++@@@@@@@@++++++++@@@@@@@@++++++++++++++++++++++++@@@@@@@@++++++++++++++++@@@@@@@@++++++++++++++++@@@@@@@@",
"@@@@@@@@++++++++++++++++@@@@@@@@++++++++@@@@@@@@++++++++++++++++++++++++@@@@@@@@++++++++++++++++@@@@@@@@++++++++++++++++@@@@@@@@",
"@@@@@@@@++++++++++++++++@@@@@@@@++++++++@@@@@@@@++++++++++++++++++++++++@@@@@@@@++++++++++++++++@@@@@@@@++++++++++++++++@@@@@@@@",
"@@@@@@@@++++++++++++++++@@@@@@@@++++++++@@@@@@@@++++++++++++++++++++++++@@@@@@@@++++++++++++++++@@@@@@@@++++++++++++++++@@@@@@@@",
"@@@@@@@@@@@@@@@@@@@@@@@@@@@@@@@@@@@@@@@@@@@@@@@@@@@@@@@@@@@@@@@@@@@@@@@@@@@@@@@@@@@@@@@@@@@@@@@@@@@@@@@@@@@@@@@@@@@@@@@@@@@@@@@@",
"@@@@@@@@@@@@@@@@@@@@@@@@@@@@@@@@@@@@@@@@@@@@@@@@@@@@@@@@@@@@@@@@@@@@@@@@@@@@@@@@@@@@@@@@@@@@@@@@@@@@@@@@@@@@@@@@@@@@@@@@@@@@@@@@",
"@@@@@@@@@@@@@@@@@@@@@@@@@@@@@@@@@@@@@@@@@@@@@@@@@@@@@@@@@@@@@@@@@@@@@@@@@@@@@@@@@@@@@@@@@@@@@@@@@@@@@@@@@@@@@@@@@@@@@@@@@@@@@@@@",
"@@@@@@@@@@@@@@@@@@@@@@@@@@@@@@@@@@@@@@@@@@@@@@@@@@@@@@@@@@@@@@@@@@@@@@@@@@@@@@@@@@@@@@@@@@@@@@@@@@@@@@@@@@@@@@@@@@@@@@@@@@@@@@@@",
"@@@@@@@@@@@@@@@@@@@@@@@@@@@@@@@@@@@@@@@@@@@@@@@@@@@@@@@@@@@@@@@@@@@@@@@@@@@@@@@@@@@@@@@@@@@@@@@@@@@@@@@@@@@@@@@@@@@@@@@@@@@@@@@@",
"@@@@@@@@@@@@@@@@@@@@@@@@@@@@@@@@@@@@@@@@@@@@@@@@@@@@@@@@@@@@@@@@@@@@@@@@@@@@@@@@@@@@@@@@@@@@@@@@@@@@@@@@@@@@@@@@@@@@@@@@@@@@@@@@",
"@@@@@@@@@@@@@@@@@@@@@@@@@@@@@@@@@@@@@@@@@@@@@@@@@@@@@@@@@@@@@@@@@@@@@@@@@@@@@@@@@@@@@@@@@@@@@@@@@@@@@@@@@@@@@@@@@@@@@@@@@@@@@@@@",
"@@@@@@@@@@@@@@@@@@@@@@@@@@@@@@@@@@@@@@@@@@@@@@@@@@@@@@@@@@@@@@@@@@@@@@@@@@@@@@@@@@@@@@@@@@@@@@@@@@@@@@@@@@@@@@@@@@@@@@@@@@@@@@@@",
"@@@@@@@@@@@@@@@@@@@@@@@@@@@@@@@@@@@@@@@@@@@@@@@@@@@@@@@@@@@@@@@@@@@@@@@@@@@@@@@@@@@@@@@@@@@@@@@@@@@@@@@@@@@@@@@@@@@@@@@@@@@@@@@@",
"@@@@@@@@@@@@@@@@@@@@@@@@@@@@@@@@@@@@@@@@@@@@@@@@@@@@@@@@@@@@@@@@@@@@@@@@@@@@@@@@@@@@@@@@@@@@@@@@@@@@@@@@@@@@@@@@@@@@@@@@@@@@@@@@",
"@@@@@@@@@@@@@@@@@@@@@@@@@@@@@@@@@@@@@@@@@@@@@@@@@@@@@@@@@@@@@@@@@@@@@@@@@@@@@@@@@@@@@@@@@@@@@@@@@@@@@@@@@@@@@@@@@@@@@@@@@@@@@@@@",
"@@@@@@@@@@@@@@@@@@@@@@@@@@@@@@@@@@@@@@@@@@@@@@@@@@@@@@@@@@@@@@@@@@@@@@@@@@@@@@@@@@@@@@@@@@@@@@@@@@@@@@@@@@@@@@@@@@@@@@@@@@@@@@@@",
"@@@@@@@@@@@@@@@@@@@@@@@@@@@@@@@@@@@@@@@@@@@@@@@@@@@@@@@@@@@@@@@@@@@@@@@@@@@@@@@@@@@@@@@@@@@@@@@@@@@@@@@@@@@@@@@@@@@@@@@@@@@@@@@@",
"@@@@@@@@@@@@@@@@@@@@@@@@@@@@@@@@@@@@@@@@@@@@@@@@@@@@@@@@@@@@@@@@@@@@@@@@@@@@@@@@@@@@@@@@@@@@@@@@@@@@@@@@@@@@@@@@@@@@@@@@@@@@@@@@",
"@@@@@@@@@@@@@@@@@@@@@@@@@@@@@@@@@@@@@@@@@@@@@@@@@@@@@@@@@@@@@@@@@@@@@@@@@@@@@@@@@@@@@@@@@@@@@@@@@@@@@@@@@@@@@@@@@@@@@@@@@@@@@@@@",
"@@@@@@@@@@@@@@@@@@@@@@@@@@@@@@@@@@@@@@@@@@@@@@@@@@@@@@@@@@@@@@@@@@@@@@@@@@@@@@@@@@@@@@@@@@@@@@@@@@@@@@@@@@@@@@@@@@@@@@@@@@@@@@@@",
"@@@@@@@@@@@@@@@@@@@@@@@@@@@@@@@@@@@@@@@@@@@@@@@@@@@@@@@@@@@@@@@@@@@@@@@@@@@@@@@@@@@@@@@@@@@@@@@@@@@@@@@@@@@@@@@@@@@@@@@@@@@@@@@@",
"@@@@@@@@@@@@@@@@@@@@@@@@@@@@@@@@@@@@@@@@@@@@@@@@@@@@@@@@@@@@@@@@@@@@@@@@@@@@@@@@@@@@@@@@@@@@@@@@@@@@@@@@@@@@@@@@@@@@@@@@@@@@@@@@",
"@@@@@@@@@@@@@@@@@@@@@@@@@@@@@@@@@@@@@@@@@@@@@@@@@@@@@@@@@@@@@@@@@@@@@@@@@@@@@@@@@@@@@@@@@@@@@@@@@@@@@@@@@@@@@@@@@@@@@@@@@@@@@@@@",
"@@@@@@@@@@@@@@@@@@@@@@@@@@@@@@@@@@@@@@@@@@@@@@@@@@@@@@@@@@@@@@@@@@@@@@@@@@@@@@@@@@@@@@@@@@@@@@@@@@@@@@@@@@@@@@@@@@@@@@@@@@@@@@@@",
"@@@@@@@@@@@@@@@@@@@@@@@@@@@@@@@@@@@@@@@@@@@@@@@@@@@@@@@@@@@@@@@@@@@@@@@@@@@@@@@@@@@@@@@@@@@@@@@@@@@@@@@@@@@@@@@@@@@@@@@@@@@@@@@@",
"@@@@@@@@@@@@@@@@@@@@@@@@@@@@@@@@@@@@@@@@@@@@@@@@@@@@@@@@@@@@@@@@@@@@@@@@@@@@@@@@@@@@@@@@@@@@@@@@@@@@@@@@@@@@@@@@@@@@@@@@@@@@@@@@",
"@@@@@@@@@@@@@@@@@@@@@@@@@@@@@@@@@@@@@@@@@@@@@@@@@@@@@@@@@@@@@@@@@@@@@@@@@@@@@@@@@@@@@@@@@@@@@@@@@@@@@@@@@@@@@@@@@@@@@@@@@@@@@@@@",
"@@@@@@@@@@@@@@@@@@@@@@@@@@@@@@@@@@@@@@@@@@@@@@@@@@@@@@@@@@@@@@@@@@@@@@@@@@@@@@@@@@@@@@@@@@@@@@@@@@@@@@@@@@@@@@@@@@@@@@@@@@@@@@@@",
"@@@@@@@@@@@@@@@@@@@@@@@@@@@@@@@@@@@@@@@@@@@@@@@@@@@@@@@@@@@@@@@@@@@@@@@@@@@@@@@@@@@@@@@@@@@@@@@@@@@@@@@@@@@@@@@@@@@@@@@@@@@@@@@@",
"@@@@@@@@@@@@@@@@@@@@@@@@@@@@@@@@@@@@@@@@@@@@@@@@@@@@@@@@@@@@@@@@@@@@@@@@@@@@@@@@@@@@@@@@@@@@@@@@@@@@@@@@@@@@@@@@@@@@@@@@@@@@@@@@",
"@@@@@@@@@@@@@@@@@@@@@@@@@@@@@@@@@@@@@@@@@@@@@@@@@@@@@@@@@@@@@@@@@@@@@@@@@@@@@@@@@@@@@@@@@@@@@@@@@@@@@@@@@@@@@@@@@@@@@@@@@@@@@@@@",
"@@@@@@@@@@@@@@@@@@@@@@@@@@@@@@@@@@@@@@@@@@@@@@@@@@@@@@@@@@@@@@@@@@@@@@@@@@@@@@@@@@@@@@@@@@@@@@@@@@@@@@@@@@@@@@@@@@@@@@@@@@@@@@@@",
"@@@@@@@@@@@@@@@@@@@@@@@@@@@@@@@@@@@@@@@@@@@@@@@@@@@@@@@@@@@@@@@@@@@@@@@@@@@@@@@@@@@@@@@@@@@@@@@@@@@@@@@@@@@@@@@@@@@@@@@@@@@@@@@@",
"@@@@@@@@@@@@@@@@@@@@@@@@@@@@@@@@@@@@@@@@@@@@@@@@@@@@@@@@@@@@@@@@@@@@@@@@@@@@@@@@@@@@@@@@@@@@@@@@@@@@@@@@@@@@@@@@@@@@@@@@@@@@@@@@",
"@@@@@@@@@@@@@@@@@@@@@@@@@@@@@@@@@@@@@@@@@@@@@@@@@@@@@@@@@@@@@@@@@@@@@@@@@@@@@@@@@@@@@@@@@@@@@@@@@@@@@@@@@@@@@@@@@@@@@@@@@@@@@@@@",
"@@@@@@@@@@@@@@@@@@@@@@@@@@@@@@@@@@@@@@@@@@@@@@@@@@@@@@@@@@@@@@@@@@@@@@@@@@@@@@@@@@@@@@@@@@@@@@@@@@@@@@@@@@@@@@@@@@@@@@@@@@@@@@@@",
"@@@@@@@@@@@@@@@@@@@@@@@@@@@@@@@@@@@@@@@@@@@@@@@@@@@@@@@@@@@@@@@@@@@@@@@@@@@@@@@@@@@@@@@@@@@@@@@@@@@@@@@@@@@@@@@@@@@@@@@@@@@@@@@@",
"@@@@@@@@@@@@@@@@@@@@@@@@@@@@@@@@@@@@@@@@@@@@@@@@@@@@@@@@@@@@@@@@@@@@@@@@@@@@@@@@@@@@@@@@@@@@@@@@@@@@@@@@@@@@@@@@@@@@@@@@@@@@@@@@",
"@@@@@@@@@@@@@@@@@@@@@@@@@@@@@@@@@@@@@@@@@@@@@@@@@@@@@@@@@@@@@@@@@@@@@@@@@@@@@@@@@@@@@@@@@@@@@@@@@@@@@@@@@@@@@@@@@@@@@@@@@@@@@@@@",
"@@@@@@@@@@@@@@@@@@@@@@@@@@@@@@@@@@@@@@@@@@@@@@@@@@@@@@@@@@@@@@@@@@@@@@@@@@@@@@@@@@@@@@@@@@@@@@@@@@@@@@@@@@@@@@@@@@@@@@@@@@@@@@@@",
"@@@@@@@@@@@@@@@@@@@@@@@@@@@@@@@@@@@@@@@@@@@@@@@@@@@@@@@@@@@@@@@@@@@@@@@@@@@@@@@@@@@@@@@@@@@@@@@@@@@@@@@@@@@@@@@@@@@@@@@@@@@@@@@@",
"@@@@@@@@@@@@@@@@@@@@@@@@@@@@@@@@@@@@@@@@@@@@@@@@@@@@@@@@@@@@@@@@@@@@@@@@@@@@@@@@@@@@@@@@@@@@@@@@@@@@@@@@@@@@@@@@@@@@@@@@@@@@@@@@",
"@@@@@@@@@@@@@@@@@@@@@@@@@@@@@@@@@@@@@@@@@@@@@@@@@@@@@@@@@@@@@@@@@@@@@@@@@@@@@@@@@@@@@@@@@@@@@@@@@@@@@@@@@@@@@@@@@@@@@@@@@@@@@@@@",
"@@@@@@@@@@@@@@@@@@@@@@@@@@@@@@@@@@@@@@@@@@@@@@@@@@@@@@@@@@@@@@@@@@@@@@@@@@@@@@@@@@@@@@@@@@@@@@@@@@@@@@@@@@@@@@@@@@@@@@@@@@@@@@@@",
"@@@@@@@@@@@@@@@@################################################################################################@@@@@@@@@@@@@@@@",
"@@@@@@@@@@@@@@@@################################################################################################@@@@@@@@@@@@@@@@",
"@@@@@@@@@@@@@@@@################################################################################################@@@@@@@@@@@@@@@@",
"@@@@@@@@@@@@@@@@################################################################################################@@@@@@@@@@@@@@@@",
"@@@@@@@@@@@@@@@@################################################################################################@@@@@@@@@@@@@@@@",
"@@@@@@@@@@@@@@@@################################################################################################@@@@@@@@@@@@@@@@",
"@@@@@@@@@@@@@@@@################################################################################################@@@@@@@@@@@@@@@@",
"@@@@@@@@@@@@@@@@################################################################################################@@@@@@@@@@@@@@@@",
"@@@@@@@@########$$$$$$$$%%%%%%%%&&&&&&&&********************************&&&&&&&&========--------;;;;;;;;;;;;;;;;########@@@@@@@@",
"@@@@@@@@########$$$$$$$$%%%%%%%%&&&&&&&&********************************&&&&&&&&========--------;;;;;;;;;;;;;;;;########@@@@@@@@",
"@@@@@@@@########$$$$$$$$%%%%%%%%&&&&&&&&********************************&&&&&&&&========--------;;;;;;;;;;;;;;;;########@@@@@@@@",
"@@@@@@@@########$$$$$$$$%%%%%%%%&&&&&&&&********************************&&&&&&&&========--------;;;;;;;;;;;;;;;;########@@@@@@@@",
"@@@@@@@@########$$$$$$$$%%%%%%%%&&&&&&&&********************************&&&&&&&&========--------;;;;;;;;;;;;;;;;########@@@@@@@@",
"@@@@@@@@########$$$$$$$$%%%%%%%%&&&&&&&&********************************&&&&&&&&========--------;;;;;;;;;;;;;;;;########@@@@@@@@",
"@@@@@@@@########$$$$$$$$%%%%%%%%&&&&&&&&********************************&&&&&&&&========--------;;;;;;;;;;;;;;;;########@@@@@@@@",
"@@@@@@@@########$$$$$$$$%%%%%%%%&&&&&&&&********************************&&&&&&&&========--------;;;;;;;;;;;;;;;;########@@@@@@@@",
">>>>>>>>,,,,,,,,''''''''&&&&&&&&****************************************************************&&&&&&&&--------))))))))>>>>>>>>",
">>>>>>>>,,,,,,,,''''''''&&&&&&&&****************************************************************&&&&&&&&--------))))))))>>>>>>>>",
">>>>>>>>,,,,,,,,''''''''&&&&&&&&****************************************************************&&&&&&&&--------))))))))>>>>>>>>",
">>>>>>>>,,,,,,,,''''''''&&&&&&&&****************************************************************&&&&&&&&--------))))))))>>>>>>>>",
">>>>>>>>,,,,,,,,''''''''&&&&&&&&****************************************************************&&&&&&&&--------))))))))>>>>>>>>",
">>>>>>>>,,,,,,,,''''''''&&&&&&&&****************************************************************&&&&&&&&--------))))))))>>>>>>>>",
">>>>>>>>,,,,,,,,''''''''&&&&&&&&****************************************************************&&&&&&&&--------))))))))>>>>>>>>",
">>>>>>>>,,,,,,,,''''''''&&&&&&&&****************************************************************&&&&&&&&--------))))))))>>>>>>>>",
">>>>>>>>!!!!!!!!&&&&&&&&********************************************************************************&&&&&&&&))))))))>>>>>>>>",
">>>>>>>>!!!!!!!!&&&&&&&&********************************************************************************&&&&&&&&))))))))>>>>>>>>",
">>>>>>>>!!!!!!!!&&&&&&&&********************************************************************************&&&&&&&&))))))))>>>>>>>>",
">>>>>>>>!!!!!!!!&&&&&&&&********************************************************************************&&&&&&&&))))))))>>>>>>>>",
">>>>>>>>!!!!!!!!&&&&&&&&********************************************************************************&&&&&&&&))))))))>>>>>>>>",
">>>>>>>>!!!!!!!!&&&&&&&&********************************************************************************&&&&&&&&))))))))>>>>>>>>",
">>>>>>>>!!!!!!!!&&&&&&&&********************************************************************************&&&&&&&&))))))))>>>>>>>>",
">>>>>>>>!!!!!!!!&&&&&&&&********************************************************************************&&&&&&&&))))))))>>>>>>>>",
">>>>>>>>&&&&&&&&************************************************************************************************&&&&&&&&>>>>>>>>",
">>>>>>>>&&&&&&&&************************************************************************************************&&&&&&&&>>>>>>>>",
">>>>>>>>&&&&&&&&************************************************************************************************&&&&&&&&>>>>>>>>",
">>>>>>>>&&&&&&&&************************************************************************************************&&&&&&&&>>>>>>>>",
">>>>>>>>&&&&&&&&************************************************************************************************&&&&&&&&>>>>>>>>",
">>>>>>>>&&&&&&&&************************************************************************************************&&&&&&&&>>>>>>>>",
">>>>>>>>&&&&&&&&************************************************************************************************&&&&&&&&>>>>>>>>",
">>>>>>>>&&&&&&&&************************************************************************************************&&&&&&&&>>>>>>>>",
">>>>>>>>&&&&&&&&************************************************************************************************&&&&&&&&>>>>>>>>",
">>>>>>>>&&&&&&&&************************************************************************************************&&&&&&&&>>>>>>>>",
">>>>>>>>&&&&&&&&************************************************************************************************&&&&&&&&>>>>>>>>",
">>>>>>>>&&&&&&&&************************************************************************************************&&&&&&&&>>>>>>>>",
">>>>>>>>&&&&&&&&************************************************************************************************&&&&&&&&>>>>>>>>",
">>>>>>>>&&&&&&&&************************************************************************************************&&&&&&&&>>>>>>>>",
">>>>>>>>&&&&&&&&************************************************************************************************&&&&&&&&>>>>>>>>",
">>>>>>>>&&&&&&&&************************************************************************************************&&&&&&&&>>>>>>>>",
">>>>>>>>&&&&&&&&************************************************************************************************&&&&&&&&>>>>>>>>",
">>>>>>>>&&&&&&&&************************************************************************************************&&&&&&&&>>>>>>>>",
">>>>>>>>&&&&&&&&************************************************************************************************&&&&&&&&>>>>>>>>",
">>>>>>>>&&&&&&&&************************************************************************************************&&&&&&&&>>>>>>>>",
">>>>>>>>&&&&&&&&************************************************************************************************&&&&&&&&>>>>>>>>",
">>>>>>>>&&&&&&&&************************************************************************************************&&&&&&&&>>>>>>>>",
">>>>>>>>&&&&&&&&************************************************************************************************&&&&&&&&>>>>>>>>",
">>>>>>>>&&&&&&&&************************************************************************************************&&&&&&&&>>>>>>>>",
">>>>>>>>&&&&&&&&************************************************************************************************&&&&&&&&>>>>>>>>",
">>>>>>>>&&&&&&&&************************************************************************************************&&&&&&&&>>>>>>>>",
">>>>>>>>&&&&&&&&************************************************************************************************&&&&&&&&>>>>>>>>",
">>>>>>>>&&&&&&&&************************************************************************************************&&&&&&&&>>>>>>>>",
">>>>>>>>&&&&&&&&************************************************************************************************&&&&&&&&>>>>>>>>",
">>>>>>>>&&&&&&&&************************************************************************************************&&&&&&&&>>>>>>>>",
">>>>>>>>&&&&&&&&************************************************************************************************&&&&&&&&>>>>>>>>",
">>>>>>>>&&&&&&&&************************************************************************************************&&&&&&&&>>>>>>>>"};
