/* XPM */
static char * cesped_14_xpm[] = {
"128 128 37 1",
" 	c #625D35",
".	c #65622A",
"+	c #70731E",
"@	c #72751B",
"#	c #65622D",
"$	c #655B49",
"%	c #655C48",
"&	c #696C2D",
"*	c #6C7027",
"=	c #686C2A",
"-	c #635E34",
";	c #655B48",
">	c #64602E",
",	c #6B7027",
"'	c #645B47",
")	c #635F2B",
"!	c #6F721F",
"~	c #70721F",
"{	c #64612B",
"]	c #635D35",
"^	c #6C7126",
"/	c #64602D",
"(	c #63602B",
"_	c #6B7028",
":	c #5C402D",
"<	c #777064",
"[	c #787165",
"}	c #99978F",
"|	c #868579",
"1	c #6E6559",
"2	c #71685C",
"3	c #70685C",
"4	c #5B3C29",
"5	c #766F63",
"6	c #767064",
"7	c #70675B",
"8	c #736B5F",
"        ........++++++++@@@@@@@@@@@@@@@@@@@@@@@@@@@@@@@@@@@@@@@@@@@@@@@@@@@@@@@@@@@@@@@@@@@@@@@@@@@@@@@@++++++++########$$$$$$$$",
"        ........++++++++@@@@@@@@@@@@@@@@@@@@@@@@@@@@@@@@@@@@@@@@@@@@@@@@@@@@@@@@@@@@@@@@@@@@@@@@@@@@@@@@++++++++########$$$$$$$$",
"        ........++++++++@@@@@@@@@@@@@@@@@@@@@@@@@@@@@@@@@@@@@@@@@@@@@@@@@@@@@@@@@@@@@@@@@@@@@@@@@@@@@@@@++++++++########$$$$$$$$",
"        ........++++++++@@@@@@@@@@@@@@@@@@@@@@@@@@@@@@@@@@@@@@@@@@@@@@@@@@@@@@@@@@@@@@@@@@@@@@@@@@@@@@@@++++++++########$$$$$$$$",
"        ........++++++++@@@@@@@@@@@@@@@@@@@@@@@@@@@@@@@@@@@@@@@@@@@@@@@@@@@@@@@@@@@@@@@@@@@@@@@@@@@@@@@@++++++++########$$$$$$$$",
"        ........++++++++@@@@@@@@@@@@@@@@@@@@@@@@@@@@@@@@@@@@@@@@@@@@@@@@@@@@@@@@@@@@@@@@@@@@@@@@@@@@@@@@++++++++########$$$$$$$$",
"        ........++++++++@@@@@@@@@@@@@@@@@@@@@@@@@@@@@@@@@@@@@@@@@@@@@@@@@@@@@@@@@@@@@@@@@@@@@@@@@@@@@@@@++++++++########$$$$$$$$",
"        ........++++++++@@@@@@@@@@@@@@@@@@@@@@@@@@@@@@@@@@@@@@@@@@@@@@@@@@@@@@@@@@@@@@@@@@@@@@@@@@@@@@@@++++++++########$$$$$$$$",
"%%%%%%%%&&&&&&&&********@@@@@@@@@@@@@@@@@@@@@@@@@@@@@@@@@@@@@@@@@@@@@@@@@@@@@@@@@@@@@@@@@@@@@@@@@@@@@@@@********========--------",
"%%%%%%%%&&&&&&&&********@@@@@@@@@@@@@@@@@@@@@@@@@@@@@@@@@@@@@@@@@@@@@@@@@@@@@@@@@@@@@@@@@@@@@@@@@@@@@@@@********========--------",
"%%%%%%%%&&&&&&&&********@@@@@@@@@@@@@@@@@@@@@@@@@@@@@@@@@@@@@@@@@@@@@@@@@@@@@@@@@@@@@@@@@@@@@@@@@@@@@@@@********========--------",
"%%%%%%%%&&&&&&&&********@@@@@@@@@@@@@@@@@@@@@@@@@@@@@@@@@@@@@@@@@@@@@@@@@@@@@@@@@@@@@@@@@@@@@@@@@@@@@@@@********========--------",
"%%%%%%%%&&&&&&&&********@@@@@@@@@@@@@@@@@@@@@@@@@@@@@@@@@@@@@@@@@@@@@@@@@@@@@@@@@@@@@@@@@@@@@@@@@@@@@@@@********========--------",
"%%%%%%%%&&&&&&&&********@@@@@@@@@@@@@@@@@@@@@@@@@@@@@@@@@@@@@@@@@@@@@@@@@@@@@@@@@@@@@@@@@@@@@@@@@@@@@@@@********========--------",
"%%%%%%%%&&&&&&&&********@@@@@@@@@@@@@@@@@@@@@@@@@@@@@@@@@@@@@@@@@@@@@@@@@@@@@@@@@@@@@@@@@@@@@@@@@@@@@@@@********========--------",
"%%%%%%%%&&&&&&&&********@@@@@@@@@@@@@@@@@@@@@@@@@@@@@@@@@@@@@@@@@@@@@@@@@@@@@@@@@@@@@@@@@@@@@@@@@@@@@@@@********========--------",
";;;;;;;;>>>>>>>>,,,,,,,,@@@@@@@@@@@@@@@@@@@@@@@@@@@@@@@@@@@@@@@@@@@@@@@@@@@@@@@@@@@@@@@@@@@@@@@@@@@@@@@@,,,,,,,,>>>>>>>>''''''''",
";;;;;;;;>>>>>>>>,,,,,,,,@@@@@@@@@@@@@@@@@@@@@@@@@@@@@@@@@@@@@@@@@@@@@@@@@@@@@@@@@@@@@@@@@@@@@@@@@@@@@@@@,,,,,,,,>>>>>>>>''''''''",
";;;;;;;;>>>>>>>>,,,,,,,,@@@@@@@@@@@@@@@@@@@@@@@@@@@@@@@@@@@@@@@@@@@@@@@@@@@@@@@@@@@@@@@@@@@@@@@@@@@@@@@@,,,,,,,,>>>>>>>>''''''''",
";;;;;;;;>>>>>>>>,,,,,,,,@@@@@@@@@@@@@@@@@@@@@@@@@@@@@@@@@@@@@@@@@@@@@@@@@@@@@@@@@@@@@@@@@@@@@@@@@@@@@@@@,,,,,,,,>>>>>>>>''''''''",
";;;;;;;;>>>>>>>>,,,,,,,,@@@@@@@@@@@@@@@@@@@@@@@@@@@@@@@@@@@@@@@@@@@@@@@@@@@@@@@@@@@@@@@@@@@@@@@@@@@@@@@@,,,,,,,,>>>>>>>>''''''''",
";;;;;;;;>>>>>>>>,,,,,,,,@@@@@@@@@@@@@@@@@@@@@@@@@@@@@@@@@@@@@@@@@@@@@@@@@@@@@@@@@@@@@@@@@@@@@@@@@@@@@@@@,,,,,,,,>>>>>>>>''''''''",
";;;;;;;;>>>>>>>>,,,,,,,,@@@@@@@@@@@@@@@@@@@@@@@@@@@@@@@@@@@@@@@@@@@@@@@@@@@@@@@@@@@@@@@@@@@@@@@@@@@@@@@@,,,,,,,,>>>>>>>>''''''''",
";;;;;;;;>>>>>>>>,,,,,,,,@@@@@@@@@@@@@@@@@@@@@@@@@@@@@@@@@@@@@@@@@@@@@@@@@@@@@@@@@@@@@@@@@@@@@@@@@@@@@@@@,,,,,,,,>>>>>>>>''''''''",
"        ))))))))!!!!!!!!@@@@@@@@@@@@@@@@@@@@@@@@@@@@@@@@@@@@@@@@@@@@@@@@@@@@@@@@@@@@@@@@@@@@@@@@@@@@@@@@~~~~~~~~{{{{{{{{]]]]]]]]",
"        ))))))))!!!!!!!!@@@@@@@@@@@@@@@@@@@@@@@@@@@@@@@@@@@@@@@@@@@@@@@@@@@@@@@@@@@@@@@@@@@@@@@@@@@@@@@@~~~~~~~~{{{{{{{{]]]]]]]]",
"        ))))))))!!!!!!!!@@@@@@@@@@@@@@@@@@@@@@@@@@@@@@@@@@@@@@@@@@@@@@@@@@@@@@@@@@@@@@@@@@@@@@@@@@@@@@@@~~~~~~~~{{{{{{{{]]]]]]]]",
"        ))))))))!!!!!!!!@@@@@@@@@@@@@@@@@@@@@@@@@@@@@@@@@@@@@@@@@@@@@@@@@@@@@@@@@@@@@@@@@@@@@@@@@@@@@@@@~~~~~~~~{{{{{{{{]]]]]]]]",
"        ))))))))!!!!!!!!@@@@@@@@@@@@@@@@@@@@@@@@@@@@@@@@@@@@@@@@@@@@@@@@@@@@@@@@@@@@@@@@@@@@@@@@@@@@@@@@~~~~~~~~{{{{{{{{]]]]]]]]",
"        ))))))))!!!!!!!!@@@@@@@@@@@@@@@@@@@@@@@@@@@@@@@@@@@@@@@@@@@@@@@@@@@@@@@@@@@@@@@@@@@@@@@@@@@@@@@@~~~~~~~~{{{{{{{{]]]]]]]]",
"        ))))))))!!!!!!!!@@@@@@@@@@@@@@@@@@@@@@@@@@@@@@@@@@@@@@@@@@@@@@@@@@@@@@@@@@@@@@@@@@@@@@@@@@@@@@@@~~~~~~~~{{{{{{{{]]]]]]]]",
"        ))))))))!!!!!!!!@@@@@@@@@@@@@@@@@@@@@@@@@@@@@@@@@@@@@@@@@@@@@@@@@@@@@@@@@@@@@@@@@@@@@@@@@@@@@@@@~~~~~~~~{{{{{{{{]]]]]]]]",
";;;;;;;;>>>>>>>>,,,,,,,,@@@@@@@@@@@@@@@@@@@@@@@@@@@@@@@@@@@@@@@@@@@@@@@@@@@@@@@@@@@@@@@@@@@@@@@@@@@@@@@@^^^^^^^^&&&&&&&&%%%%%%%%",
";;;;;;;;>>>>>>>>,,,,,,,,@@@@@@@@@@@@@@@@@@@@@@@@@@@@@@@@@@@@@@@@@@@@@@@@@@@@@@@@@@@@@@@@@@@@@@@@@@@@@@@@^^^^^^^^&&&&&&&&%%%%%%%%",
";;;;;;;;>>>>>>>>,,,,,,,,@@@@@@@@@@@@@@@@@@@@@@@@@@@@@@@@@@@@@@@@@@@@@@@@@@@@@@@@@@@@@@@@@@@@@@@@@@@@@@@@^^^^^^^^&&&&&&&&%%%%%%%%",
";;;;;;;;>>>>>>>>,,,,,,,,@@@@@@@@@@@@@@@@@@@@@@@@@@@@@@@@@@@@@@@@@@@@@@@@@@@@@@@@@@@@@@@@@@@@@@@@@@@@@@@@^^^^^^^^&&&&&&&&%%%%%%%%",
";;;;;;;;>>>>>>>>,,,,,,,,@@@@@@@@@@@@@@@@@@@@@@@@@@@@@@@@@@@@@@@@@@@@@@@@@@@@@@@@@@@@@@@@@@@@@@@@@@@@@@@@^^^^^^^^&&&&&&&&%%%%%%%%",
";;;;;;;;>>>>>>>>,,,,,,,,@@@@@@@@@@@@@@@@@@@@@@@@@@@@@@@@@@@@@@@@@@@@@@@@@@@@@@@@@@@@@@@@@@@@@@@@@@@@@@@@^^^^^^^^&&&&&&&&%%%%%%%%",
";;;;;;;;>>>>>>>>,,,,,,,,@@@@@@@@@@@@@@@@@@@@@@@@@@@@@@@@@@@@@@@@@@@@@@@@@@@@@@@@@@@@@@@@@@@@@@@@@@@@@@@@^^^^^^^^&&&&&&&&%%%%%%%%",
";;;;;;;;>>>>>>>>,,,,,,,,@@@@@@@@@@@@@@@@@@@@@@@@@@@@@@@@@@@@@@@@@@@@@@@@@@@@@@@@@@@@@@@@@@@@@@@@@@@@@@@@^^^^^^^^&&&&&&&&%%%%%%%%",
"%%%%%%%%&&&&&&&&********@@@@@@@@@@@@@@@@@@@@@@@@@@@@@@@@@@@@@@@@@@@@@@@@@@@@@@@@@@@@@@@@@@@@@@@@@@@@@@@@~~~~~~~~////////;;;;;;;;",
"%%%%%%%%&&&&&&&&********@@@@@@@@@@@@@@@@@@@@@@@@@@@@@@@@@@@@@@@@@@@@@@@@@@@@@@@@@@@@@@@@@@@@@@@@@@@@@@@@~~~~~~~~////////;;;;;;;;",
"%%%%%%%%&&&&&&&&********@@@@@@@@@@@@@@@@@@@@@@@@@@@@@@@@@@@@@@@@@@@@@@@@@@@@@@@@@@@@@@@@@@@@@@@@@@@@@@@@~~~~~~~~////////;;;;;;;;",
"%%%%%%%%&&&&&&&&********@@@@@@@@@@@@@@@@@@@@@@@@@@@@@@@@@@@@@@@@@@@@@@@@@@@@@@@@@@@@@@@@@@@@@@@@@@@@@@@@~~~~~~~~////////;;;;;;;;",
"%%%%%%%%&&&&&&&&********@@@@@@@@@@@@@@@@@@@@@@@@@@@@@@@@@@@@@@@@@@@@@@@@@@@@@@@@@@@@@@@@@@@@@@@@@@@@@@@@~~~~~~~~////////;;;;;;;;",
"%%%%%%%%&&&&&&&&********@@@@@@@@@@@@@@@@@@@@@@@@@@@@@@@@@@@@@@@@@@@@@@@@@@@@@@@@@@@@@@@@@@@@@@@@@@@@@@@@~~~~~~~~////////;;;;;;;;",
"%%%%%%%%&&&&&&&&********@@@@@@@@@@@@@@@@@@@@@@@@@@@@@@@@@@@@@@@@@@@@@@@@@@@@@@@@@@@@@@@@@@@@@@@@@@@@@@@@~~~~~~~~////////;;;;;;;;",
"%%%%%%%%&&&&&&&&********@@@@@@@@@@@@@@@@@@@@@@@@@@@@@@@@@@@@@@@@@@@@@@@@@@@@@@@@@@@@@@@@@@@@@@@@@@@@@@@@~~~~~~~~////////;;;;;;;;",
"]]]]]]]]{{{{{{{{~~~~~~~~@@@@@@@@@@@@@@@@@@@@@@@@@@@@@@@@@@@@@@@@@@@@@@@@@@@@@@@@@@@@@@@@@@@@@@@@@@@@@@@@,,,,,,,,((((((((]]]]]]]]",
"]]]]]]]]{{{{{{{{~~~~~~~~@@@@@@@@@@@@@@@@@@@@@@@@@@@@@@@@@@@@@@@@@@@@@@@@@@@@@@@@@@@@@@@@@@@@@@@@@@@@@@@@,,,,,,,,((((((((]]]]]]]]",
"]]]]]]]]{{{{{{{{~~~~~~~~@@@@@@@@@@@@@@@@@@@@@@@@@@@@@@@@@@@@@@@@@@@@@@@@@@@@@@@@@@@@@@@@@@@@@@@@@@@@@@@@,,,,,,,,((((((((]]]]]]]]",
"]]]]]]]]{{{{{{{{~~~~~~~~@@@@@@@@@@@@@@@@@@@@@@@@@@@@@@@@@@@@@@@@@@@@@@@@@@@@@@@@@@@@@@@@@@@@@@@@@@@@@@@@,,,,,,,,((((((((]]]]]]]]",
"]]]]]]]]{{{{{{{{~~~~~~~~@@@@@@@@@@@@@@@@@@@@@@@@@@@@@@@@@@@@@@@@@@@@@@@@@@@@@@@@@@@@@@@@@@@@@@@@@@@@@@@@,,,,,,,,((((((((]]]]]]]]",
"]]]]]]]]{{{{{{{{~~~~~~~~@@@@@@@@@@@@@@@@@@@@@@@@@@@@@@@@@@@@@@@@@@@@@@@@@@@@@@@@@@@@@@@@@@@@@@@@@@@@@@@@,,,,,,,,((((((((]]]]]]]]",
"]]]]]]]]{{{{{{{{~~~~~~~~@@@@@@@@@@@@@@@@@@@@@@@@@@@@@@@@@@@@@@@@@@@@@@@@@@@@@@@@@@@@@@@@@@@@@@@@@@@@@@@@,,,,,,,,((((((((]]]]]]]]",
"]]]]]]]]{{{{{{{{~~~~~~~~@@@@@@@@@@@@@@@@@@@@@@@@@@@@@@@@@@@@@@@@@@@@@@@@@@@@@@@@@@@@@@@@@@@@@@@@@@@@@@@@,,,,,,,,((((((((]]]]]]]]",
";;;;;;;;>>>>>>>>,,,,,,,,@@@@@@@@@@@@@@@@@@@@@@@@@@@@@@@@@@@@@@@@@@@@@@@@@@@@@@@@@@@@@@@@@@@@@@@@@@@@@@@@________&&&&&&&&%%%%%%%%",
";;;;;;;;>>>>>>>>,,,,,,,,@@@@@@@@@@@@@@@@@@@@@@@@@@@@@@@@@@@@@@@@@@@@@@@@@@@@@@@@@@@@@@@@@@@@@@@@@@@@@@@@________&&&&&&&&%%%%%%%%",
";;;;;;;;>>>>>>>>,,,,,,,,@@@@@@@@@@@@@@@@@@@@@@@@@@@@@@@@@@@@@@@@@@@@@@@@@@@@@@@@@@@@@@@@@@@@@@@@@@@@@@@@________&&&&&&&&%%%%%%%%",
";;;;;;;;>>>>>>>>,,,,,,,,@@@@@@@@@@@@@@@@@@@@@@@@@@@@@@@@@@@@@@@@@@@@@@@@@@@@@@@@@@@@@@@@@@@@@@@@@@@@@@@@________&&&&&&&&%%%%%%%%",
";;;;;;;;>>>>>>>>,,,,,,,,@@@@@@@@@@@@@@@@@@@@@@@@@@@@@@@@@@@@@@@@@@@@@@@@@@@@@@@@@@@@@@@@@@@@@@@@@@@@@@@@________&&&&&&&&%%%%%%%%",
";;;;;;;;>>>>>>>>,,,,,,,,@@@@@@@@@@@@@@@@@@@@@@@@@@@@@@@@@@@@@@@@@@@@@@@@@@@@@@@@@@@@@@@@@@@@@@@@@@@@@@@@________&&&&&&&&%%%%%%%%",
";;;;;;;;>>>>>>>>,,,,,,,,@@@@@@@@@@@@@@@@@@@@@@@@@@@@@@@@@@@@@@@@@@@@@@@@@@@@@@@@@@@@@@@@@@@@@@@@@@@@@@@@________&&&&&&&&%%%%%%%%",
";;;;;;;;>>>>>>>>,,,,,,,,@@@@@@@@@@@@@@@@@@@@@@@@@@@@@@@@@@@@@@@@@@@@@@@@@@@@@@@@@@@@@@@@@@@@@@@@@@@@@@@@________&&&&&&&&%%%%%%%%",
"%%%%%%%%&&&&&&&&::::::::::::::::::::::::::::::::::::::::::::::::::::::::::::::::::::::::::::::::::::::::::::::::>>>>>>>>;;;;;;;;",
"%%%%%%%%&&&&&&&&::::::::::::::::::::::::::::::::::::::::::::::::::::::::::::::::::::::::::::::::::::::::::::::::>>>>>>>>;;;;;;;;",
"%%%%%%%%&&&&&&&&::::::::::::::::::::::::::::::::::::::::::::::::::::::::::::::::::::::::::::::::::::::::::::::::>>>>>>>>;;;;;;;;",
"%%%%%%%%&&&&&&&&::::::::::::::::::::::::::::::::::::::::::::::::::::::::::::::::::::::::::::::::::::::::::::::::>>>>>>>>;;;;;;;;",
"%%%%%%%%&&&&&&&&::::::::::::::::::::::::::::::::::::::::::::::::::::::::::::::::::::::::::::::::::::::::::::::::>>>>>>>>;;;;;;;;",
"%%%%%%%%&&&&&&&&::::::::::::::::::::::::::::::::::::::::::::::::::::::::::::::::::::::::::::::::::::::::::::::::>>>>>>>>;;;;;;;;",
"%%%%%%%%&&&&&&&&::::::::::::::::::::::::::::::::::::::::::::::::::::::::::::::::::::::::::::::::::::::::::::::::>>>>>>>>;;;;;;;;",
"%%%%%%%%&&&&&&&&::::::::::::::::::::::::::::::::::::::::::::::::::::::::::::::::::::::::::::::::::::::::::::::::>>>>>>>>;;;;;;;;",
"]]]]]]]]::::::::<<<<<<<<[[[[[[[[}}}}}}}}||||||||||||||||||||||||||||||||}}}}}}}}11111111222222223333333333333333::::::::]]]]]]]]",
"]]]]]]]]::::::::<<<<<<<<[[[[[[[[}}}}}}}}||||||||||||||||||||||||||||||||}}}}}}}}11111111222222223333333333333333::::::::]]]]]]]]",
"]]]]]]]]::::::::<<<<<<<<[[[[[[[[}}}}}}}}||||||||||||||||||||||||||||||||}}}}}}}}11111111222222223333333333333333::::::::]]]]]]]]",
"]]]]]]]]::::::::<<<<<<<<[[[[[[[[}}}}}}}}||||||||||||||||||||||||||||||||}}}}}}}}11111111222222223333333333333333::::::::]]]]]]]]",
"]]]]]]]]::::::::<<<<<<<<[[[[[[[[}}}}}}}}||||||||||||||||||||||||||||||||}}}}}}}}11111111222222223333333333333333::::::::]]]]]]]]",
"]]]]]]]]::::::::<<<<<<<<[[[[[[[[}}}}}}}}||||||||||||||||||||||||||||||||}}}}}}}}11111111222222223333333333333333::::::::]]]]]]]]",
"]]]]]]]]::::::::<<<<<<<<[[[[[[[[}}}}}}}}||||||||||||||||||||||||||||||||}}}}}}}}11111111222222223333333333333333::::::::]]]]]]]]",
"]]]]]]]]::::::::<<<<<<<<[[[[[[[[}}}}}}}}||||||||||||||||||||||||||||||||}}}}}}}}11111111222222223333333333333333::::::::]]]]]]]]",
"444444445555555566666666}}}}}}}}||||||||||||||||||||||||||||||||||||||||||||||||||||||||||||||||}}}}}}}}222222227777777744444444",
"444444445555555566666666}}}}}}}}||||||||||||||||||||||||||||||||||||||||||||||||||||||||||||||||}}}}}}}}222222227777777744444444",
"444444445555555566666666}}}}}}}}||||||||||||||||||||||||||||||||||||||||||||||||||||||||||||||||}}}}}}}}222222227777777744444444",
"444444445555555566666666}}}}}}}}||||||||||||||||||||||||||||||||||||||||||||||||||||||||||||||||}}}}}}}}222222227777777744444444",
"444444445555555566666666}}}}}}}}||||||||||||||||||||||||||||||||||||||||||||||||||||||||||||||||}}}}}}}}222222227777777744444444",
"444444445555555566666666}}}}}}}}||||||||||||||||||||||||||||||||||||||||||||||||||||||||||||||||}}}}}}}}222222227777777744444444",
"444444445555555566666666}}}}}}}}||||||||||||||||||||||||||||||||||||||||||||||||||||||||||||||||}}}}}}}}222222227777777744444444",
"444444445555555566666666}}}}}}}}||||||||||||||||||||||||||||||||||||||||||||||||||||||||||||||||}}}}}}}}222222227777777744444444",
"4444444488888888}}}}}}}}||||||||||||||||||||||||||||||||||||||||||||||||||||||||||||||||||||||||||||||||}}}}}}}}7777777744444444",
"4444444488888888}}}}}}}}||||||||||||||||||||||||||||||||||||||||||||||||||||||||||||||||||||||||||||||||}}}}}}}}7777777744444444",
"4444444488888888}}}}}}}}||||||||||||||||||||||||||||||||||||||||||||||||||||||||||||||||||||||||||||||||}}}}}}}}7777777744444444",
"4444444488888888}}}}}}}}||||||||||||||||||||||||||||||||||||||||||||||||||||||||||||||||||||||||||||||||}}}}}}}}7777777744444444",
"4444444488888888}}}}}}}}||||||||||||||||||||||||||||||||||||||||||||||||||||||||||||||||||||||||||||||||}}}}}}}}7777777744444444",
"4444444488888888}}}}}}}}||||||||||||||||||||||||||||||||||||||||||||||||||||||||||||||||||||||||||||||||}}}}}}}}7777777744444444",
"4444444488888888}}}}}}}}||||||||||||||||||||||||||||||||||||||||||||||||||||||||||||||||||||||||||||||||}}}}}}}}7777777744444444",
"4444444488888888}}}}}}}}||||||||||||||||||||||||||||||||||||||||||||||||||||||||||||||||||||||||||||||||}}}}}}}}7777777744444444",
"44444444}}}}}}}}||||||||||||||||||||||||||||||||||||||||||||||||||||||||||||||||||||||||||||||||||||||||||||||||}}}}}}}}44444444",
"44444444}}}}}}}}||||||||||||||||||||||||||||||||||||||||||||||||||||||||||||||||||||||||||||||||||||||||||||||||}}}}}}}}44444444",
"44444444}}}}}}}}||||||||||||||||||||||||||||||||||||||||||||||||||||||||||||||||||||||||||||||||||||||||||||||||}}}}}}}}44444444",
"44444444}}}}}}}}||||||||||||||||||||||||||||||||||||||||||||||||||||||||||||||||||||||||||||||||||||||||||||||||}}}}}}}}44444444",
"44444444}}}}}}}}||||||||||||||||||||||||||||||||||||||||||||||||||||||||||||||||||||||||||||||||||||||||||||||||}}}}}}}}44444444",
"44444444}}}}}}}}||||||||||||||||||||||||||||||||||||||||||||||||||||||||||||||||||||||||||||||||||||||||||||||||}}}}}}}}44444444",
"44444444}}}}}}}}||||||||||||||||||||||||||||||||||||||||||||||||||||||||||||||||||||||||||||||||||||||||||||||||}}}}}}}}44444444",
"44444444}}}}}}}}||||||||||||||||||||||||||||||||||||||||||||||||||||||||||||||||||||||||||||||||||||||||||||||||}}}}}}}}44444444",
"44444444}}}}}}}}||||||||||||||||||||||||||||||||||||||||||||||||||||||||||||||||||||||||||||||||||||||||||||||||}}}}}}}}44444444",
"44444444}}}}}}}}||||||||||||||||||||||||||||||||||||||||||||||||||||||||||||||||||||||||||||||||||||||||||||||||}}}}}}}}44444444",
"44444444}}}}}}}}||||||||||||||||||||||||||||||||||||||||||||||||||||||||||||||||||||||||||||||||||||||||||||||||}}}}}}}}44444444",
"44444444}}}}}}}}||||||||||||||||||||||||||||||||||||||||||||||||||||||||||||||||||||||||||||||||||||||||||||||||}}}}}}}}44444444",
"44444444}}}}}}}}||||||||||||||||||||||||||||||||||||||||||||||||||||||||||||||||||||||||||||||||||||||||||||||||}}}}}}}}44444444",
"44444444}}}}}}}}||||||||||||||||||||||||||||||||||||||||||||||||||||||||||||||||||||||||||||||||||||||||||||||||}}}}}}}}44444444",
"44444444}}}}}}}}||||||||||||||||||||||||||||||||||||||||||||||||||||||||||||||||||||||||||||||||||||||||||||||||}}}}}}}}44444444",
"44444444}}}}}}}}||||||||||||||||||||||||||||||||||||||||||||||||||||||||||||||||||||||||||||||||||||||||||||||||}}}}}}}}44444444",
"44444444}}}}}}}}||||||||||||||||||||||||||||||||||||||||||||||||||||||||||||||||||||||||||||||||||||||||||||||||}}}}}}}}44444444",
"44444444}}}}}}}}||||||||||||||||||||||||||||||||||||||||||||||||||||||||||||||||||||||||||||||||||||||||||||||||}}}}}}}}44444444",
"44444444}}}}}}}}||||||||||||||||||||||||||||||||||||||||||||||||||||||||||||||||||||||||||||||||||||||||||||||||}}}}}}}}44444444",
"44444444}}}}}}}}||||||||||||||||||||||||||||||||||||||||||||||||||||||||||||||||||||||||||||||||||||||||||||||||}}}}}}}}44444444",
"44444444}}}}}}}}||||||||||||||||||||||||||||||||||||||||||||||||||||||||||||||||||||||||||||||||||||||||||||||||}}}}}}}}44444444",
"44444444}}}}}}}}||||||||||||||||||||||||||||||||||||||||||||||||||||||||||||||||||||||||||||||||||||||||||||||||}}}}}}}}44444444",
"44444444}}}}}}}}||||||||||||||||||||||||||||||||||||||||||||||||||||||||||||||||||||||||||||||||||||||||||||||||}}}}}}}}44444444",
"44444444}}}}}}}}||||||||||||||||||||||||||||||||||||||||||||||||||||||||||||||||||||||||||||||||||||||||||||||||}}}}}}}}44444444",
"44444444}}}}}}}}||||||||||||||||||||||||||||||||||||||||||||||||||||||||||||||||||||||||||||||||||||||||||||||||}}}}}}}}44444444",
"44444444}}}}}}}}||||||||||||||||||||||||||||||||||||||||||||||||||||||||||||||||||||||||||||||||||||||||||||||||}}}}}}}}44444444",
"44444444}}}}}}}}||||||||||||||||||||||||||||||||||||||||||||||||||||||||||||||||||||||||||||||||||||||||||||||||}}}}}}}}44444444",
"44444444}}}}}}}}||||||||||||||||||||||||||||||||||||||||||||||||||||||||||||||||||||||||||||||||||||||||||||||||}}}}}}}}44444444",
"44444444}}}}}}}}||||||||||||||||||||||||||||||||||||||||||||||||||||||||||||||||||||||||||||||||||||||||||||||||}}}}}}}}44444444",
"44444444}}}}}}}}||||||||||||||||||||||||||||||||||||||||||||||||||||||||||||||||||||||||||||||||||||||||||||||||}}}}}}}}44444444",
"44444444}}}}}}}}||||||||||||||||||||||||||||||||||||||||||||||||||||||||||||||||||||||||||||||||||||||||||||||||}}}}}}}}44444444",
"44444444}}}}}}}}||||||||||||||||||||||||||||||||||||||||||||||||||||||||||||||||||||||||||||||||||||||||||||||||}}}}}}}}44444444"};
