/* XPM */
static char * cesped_2_xpm[] = {
"128 128 23 1",
" 	c #72751B",
".	c #70731E",
"+	c #65622D",
"@	c #655B49",
"#	c #6C7027",
"$	c #635E34",
"%	c #6B7027",
"&	c #686C2A",
"*	c #645B47",
"=	c #70721F",
"-	c #64612B",
";	c #635D35",
">	c #6C7126",
",	c #696C2D",
"'	c #655C48",
")	c #64602D",
"!	c #655B48",
"~	c #63602B",
"{	c #6B7028",
"]	c #64602E",
"^	c #6F721F",
"/	c #635F2B",
"(	c #625D35",
"                                                                                                        ........++++++++@@@@@@@@",
"                                                                                                        ........++++++++@@@@@@@@",
"                                                                                                        ........++++++++@@@@@@@@",
"                                                                                                        ........++++++++@@@@@@@@",
"                                                                                                        ........++++++++@@@@@@@@",
"                                                                                                        ........++++++++@@@@@@@@",
"                                                                                                        ........++++++++@@@@@@@@",
"                                                                                                        ........++++++++@@@@@@@@",
"                                                                                                        ########++++++++$$$$$$$$",
"                                                                                                        ########++++++++$$$$$$$$",
"                                                                                                        ########++++++++$$$$$$$$",
"                                                                                                        ########++++++++$$$$$$$$",
"                                                                                                        ########++++++++$$$$$$$$",
"                                                                                                        ########++++++++$$$$$$$$",
"                                                                                                        ########++++++++$$$$$$$$",
"                                                                                                        ########++++++++$$$$$$$$",
"                                                                                                        %%%%%%%%&&&&&&&&********",
"                                                                                                        %%%%%%%%&&&&&&&&********",
"                                                                                                        %%%%%%%%&&&&&&&&********",
"                                                                                                        %%%%%%%%&&&&&&&&********",
"                                                                                                        %%%%%%%%&&&&&&&&********",
"                                                                                                        %%%%%%%%&&&&&&&&********",
"                                                                                                        %%%%%%%%&&&&&&&&********",
"                                                                                                        %%%%%%%%&&&&&&&&********",
"                                                                                                        ========--------;;;;;;;;",
"                                                                                                        ========--------;;;;;;;;",
"                                                                                                        ========--------;;;;;;;;",
"                                                                                                        ========--------;;;;;;;;",
"                                                                                                        ========--------;;;;;;;;",
"                                                                                                        ========--------;;;;;;;;",
"                                                                                                        ========--------;;;;;;;;",
"                                                                                                        ========--------;;;;;;;;",
"                                                                                                        >>>>>>>>,,,,,,,,''''''''",
"                                                                                                        >>>>>>>>,,,,,,,,''''''''",
"                                                                                                        >>>>>>>>,,,,,,,,''''''''",
"                                                                                                        >>>>>>>>,,,,,,,,''''''''",
"                                                                                                        >>>>>>>>,,,,,,,,''''''''",
"                                                                                                        >>>>>>>>,,,,,,,,''''''''",
"                                                                                                        >>>>>>>>,,,,,,,,''''''''",
"                                                                                                        >>>>>>>>,,,,,,,,''''''''",
"                                                                                                        ========))))))))!!!!!!!!",
"                                                                                                        ========))))))))!!!!!!!!",
"                                                                                                        ========))))))))!!!!!!!!",
"                                                                                                        ========))))))))!!!!!!!!",
"                                                                                                        ========))))))))!!!!!!!!",
"                                                                                                        ========))))))))!!!!!!!!",
"                                                                                                        ========))))))))!!!!!!!!",
"                                                                                                        ========))))))))!!!!!!!!",
"                                                                                                        %%%%%%%%~~~~~~~~;;;;;;;;",
"                                                                                                        %%%%%%%%~~~~~~~~;;;;;;;;",
"                                                                                                        %%%%%%%%~~~~~~~~;;;;;;;;",
"                                                                                                        %%%%%%%%~~~~~~~~;;;;;;;;",
"                                                                                                        %%%%%%%%~~~~~~~~;;;;;;;;",
"                                                                                                        %%%%%%%%~~~~~~~~;;;;;;;;",
"                                                                                                        %%%%%%%%~~~~~~~~;;;;;;;;",
"                                                                                                        %%%%%%%%~~~~~~~~;;;;;;;;",
"                                                                                                        {{{{{{{{,,,,,,,,''''''''",
"                                                                                                        {{{{{{{{,,,,,,,,''''''''",
"                                                                                                        {{{{{{{{,,,,,,,,''''''''",
"                                                                                                        {{{{{{{{,,,,,,,,''''''''",
"                                                                                                        {{{{{{{{,,,,,,,,''''''''",
"                                                                                                        {{{{{{{{,,,,,,,,''''''''",
"                                                                                                        {{{{{{{{,,,,,,,,''''''''",
"                                                                                                        {{{{{{{{,,,,,,,,''''''''",
"                                                                                                        %%%%%%%%]]]]]]]]!!!!!!!!",
"                                                                                                        %%%%%%%%]]]]]]]]!!!!!!!!",
"                                                                                                        %%%%%%%%]]]]]]]]!!!!!!!!",
"                                                                                                        %%%%%%%%]]]]]]]]!!!!!!!!",
"                                                                                                        %%%%%%%%]]]]]]]]!!!!!!!!",
"                                                                                                        %%%%%%%%]]]]]]]]!!!!!!!!",
"                                                                                                        %%%%%%%%]]]]]]]]!!!!!!!!",
"                                                                                                        %%%%%%%%]]]]]]]]!!!!!!!!",
"                                                                                                        ========--------;;;;;;;;",
"                                                                                                        ========--------;;;;;;;;",
"                                                                                                        ========--------;;;;;;;;",
"                                                                                                        ========--------;;;;;;;;",
"                                                                                                        ========--------;;;;;;;;",
"                                                                                                        ========--------;;;;;;;;",
"                                                                                                        ========--------;;;;;;;;",
"                                                                                                        ========--------;;;;;;;;",
"                                                                                                        ########,,,,,,,,''''''''",
"                                                                                                        ########,,,,,,,,''''''''",
"                                                                                                        ########,,,,,,,,''''''''",
"                                                                                                        ########,,,,,,,,''''''''",
"                                                                                                        ########,,,,,,,,''''''''",
"                                                                                                        ########,,,,,,,,''''''''",
"                                                                                                        ########,,,,,,,,''''''''",
"                                                                                                        ########,,,,,,,,''''''''",
"                                                                                                        %%%%%%%%]]]]]]]]!!!!!!!!",
"                                                                                                        %%%%%%%%]]]]]]]]!!!!!!!!",
"                                                                                                        %%%%%%%%]]]]]]]]!!!!!!!!",
"                                                                                                        %%%%%%%%]]]]]]]]!!!!!!!!",
"                                                                                                        %%%%%%%%]]]]]]]]!!!!!!!!",
"                                                                                                        %%%%%%%%]]]]]]]]!!!!!!!!",
"                                                                                                        %%%%%%%%]]]]]]]]!!!!!!!!",
"                                                                                                        %%%%%%%%]]]]]]]]!!!!!!!!",
"                                                                                                        ^^^^^^^^////////((((((((",
"                                                                                                        ^^^^^^^^////////((((((((",
"                                                                                                        ^^^^^^^^////////((((((((",
"                                                                                                        ^^^^^^^^////////((((((((",
"                                                                                                        ^^^^^^^^////////((((((((",
"                                                                                                        ^^^^^^^^////////((((((((",
"                                                                                                        ^^^^^^^^////////((((((((",
"                                                                                                        ^^^^^^^^////////((((((((",
"                                                                                                        %%%%%%%%]]]]]]]]!!!!!!!!",
"                                                                                                        %%%%%%%%]]]]]]]]!!!!!!!!",
"                                                                                                        %%%%%%%%]]]]]]]]!!!!!!!!",
"                                                                                                        %%%%%%%%]]]]]]]]!!!!!!!!",
"                                                                                                        %%%%%%%%]]]]]]]]!!!!!!!!",
"                                                                                                        %%%%%%%%]]]]]]]]!!!!!!!!",
"                                                                                                        %%%%%%%%]]]]]]]]!!!!!!!!",
"                                                                                                        %%%%%%%%]]]]]]]]!!!!!!!!",
"                                                                                                        ########]]]]]]]]''''''''",
"                                                                                                        ########]]]]]]]]''''''''",
"                                                                                                        ########]]]]]]]]''''''''",
"                                                                                                        ########]]]]]]]]''''''''",
"                                                                                                        ########]]]]]]]]''''''''",
"                                                                                                        ########]]]]]]]]''''''''",
"                                                                                                        ########]]]]]]]]''''''''",
"                                                                                                        ########]]]]]]]]''''''''",
"                                                                                                        ........,,,,,,,,((((((((",
"                                                                                                        ........,,,,,,,,((((((((",
"                                                                                                        ........,,,,,,,,((((((((",
"                                                                                                        ........,,,,,,,,((((((((",
"                                                                                                        ........,,,,,,,,((((((((",
"                                                                                                        ........,,,,,,,,((((((((",
"                                                                                                        ........,,,,,,,,((((((((",
"                                                                                                        ........,,,,,,,,(((((((("};
