/* XPM */
static char * esqueleto_1_xpm[] = {
"128 128 7 1",
" 	c #72751B",
".	c #4D3D16",
"+	c #888888",
"@	c #C3BFA0",
"#	c #595752",
"$	c #5C3408",
"%	c #7C795E",
"                ........................................................................                        ++++++++        ",
"                ........................................................................                        ++++++++        ",
"                ........................................................................                        ++++++++        ",
"                ........................................................................                        ++++++++        ",
"                ........................................................................                        ++++++++        ",
"                ........................................................................                        ++++++++        ",
"                ........................................................................                        ++++++++        ",
"                ........................................................................                        ++++++++        ",
"        ........@@@@@@@@@@@@@@@@@@@@@@@@@@@@@@@@@@@@@@@@@@@@@@@@@@@@@@@@@@@@@@@@@@@@@@@@........        ++++++++########++++++++",
"        ........@@@@@@@@@@@@@@@@@@@@@@@@@@@@@@@@@@@@@@@@@@@@@@@@@@@@@@@@@@@@@@@@@@@@@@@@........        ++++++++########++++++++",
"        ........@@@@@@@@@@@@@@@@@@@@@@@@@@@@@@@@@@@@@@@@@@@@@@@@@@@@@@@@@@@@@@@@@@@@@@@@........        ++++++++########++++++++",
"        ........@@@@@@@@@@@@@@@@@@@@@@@@@@@@@@@@@@@@@@@@@@@@@@@@@@@@@@@@@@@@@@@@@@@@@@@@........        ++++++++########++++++++",
"        ........@@@@@@@@@@@@@@@@@@@@@@@@@@@@@@@@@@@@@@@@@@@@@@@@@@@@@@@@@@@@@@@@@@@@@@@@........        ++++++++########++++++++",
"        ........@@@@@@@@@@@@@@@@@@@@@@@@@@@@@@@@@@@@@@@@@@@@@@@@@@@@@@@@@@@@@@@@@@@@@@@@........        ++++++++########++++++++",
"        ........@@@@@@@@@@@@@@@@@@@@@@@@@@@@@@@@@@@@@@@@@@@@@@@@@@@@@@@@@@@@@@@@@@@@@@@@........        ++++++++########++++++++",
"        ........@@@@@@@@@@@@@@@@@@@@@@@@@@@@@@@@@@@@@@@@@@@@@@@@@@@@@@@@@@@@@@@@@@@@@@@@........        ++++++++########++++++++",
"        ........@@@@@@@@@@@@@@@@@@@@@@@@@@@@@@@@@@@@@@@@@@@@@@@@@@@@@@@@@@@@@@@@@@@@@@@@........        ++++++++########++++++++",
"        ........@@@@@@@@@@@@@@@@@@@@@@@@@@@@@@@@@@@@@@@@@@@@@@@@@@@@@@@@@@@@@@@@@@@@@@@@........        ++++++++########++++++++",
"        ........@@@@@@@@@@@@@@@@@@@@@@@@@@@@@@@@@@@@@@@@@@@@@@@@@@@@@@@@@@@@@@@@@@@@@@@@........        ++++++++########++++++++",
"        ........@@@@@@@@@@@@@@@@@@@@@@@@@@@@@@@@@@@@@@@@@@@@@@@@@@@@@@@@@@@@@@@@@@@@@@@@........        ++++++++########++++++++",
"        ........@@@@@@@@@@@@@@@@@@@@@@@@@@@@@@@@@@@@@@@@@@@@@@@@@@@@@@@@@@@@@@@@@@@@@@@@........        ++++++++########++++++++",
"        ........@@@@@@@@@@@@@@@@@@@@@@@@@@@@@@@@@@@@@@@@@@@@@@@@@@@@@@@@@@@@@@@@@@@@@@@@........        ++++++++########++++++++",
"        ........@@@@@@@@@@@@@@@@@@@@@@@@@@@@@@@@@@@@@@@@@@@@@@@@@@@@@@@@@@@@@@@@@@@@@@@@........        ++++++++########++++++++",
"        ........@@@@@@@@@@@@@@@@@@@@@@@@@@@@@@@@@@@@@@@@@@@@@@@@@@@@@@@@@@@@@@@@@@@@@@@@........        ++++++++########++++++++",
"        ........@@@@@@@@@@@@@@@@@@@@@@@@@@@@@@@@@@@@@@@@@@@@@@@@@@@@@@@@@@@@@@@@@@@@@@@@........        ++++++++########++++++++",
"        ........@@@@@@@@@@@@@@@@@@@@@@@@@@@@@@@@@@@@@@@@@@@@@@@@@@@@@@@@@@@@@@@@@@@@@@@@........        ++++++++########++++++++",
"        ........@@@@@@@@@@@@@@@@@@@@@@@@@@@@@@@@@@@@@@@@@@@@@@@@@@@@@@@@@@@@@@@@@@@@@@@@........        ++++++++########++++++++",
"        ........@@@@@@@@@@@@@@@@@@@@@@@@@@@@@@@@@@@@@@@@@@@@@@@@@@@@@@@@@@@@@@@@@@@@@@@@........        ++++++++########++++++++",
"        ........@@@@@@@@@@@@@@@@@@@@@@@@@@@@@@@@@@@@@@@@@@@@@@@@@@@@@@@@@@@@@@@@@@@@@@@@........        ++++++++########++++++++",
"        ........@@@@@@@@@@@@@@@@@@@@@@@@@@@@@@@@@@@@@@@@@@@@@@@@@@@@@@@@@@@@@@@@@@@@@@@@........        ++++++++########++++++++",
"        ........@@@@@@@@@@@@@@@@@@@@@@@@@@@@@@@@@@@@@@@@@@@@@@@@@@@@@@@@@@@@@@@@@@@@@@@@........        ++++++++########++++++++",
"        ........@@@@@@@@@@@@@@@@@@@@@@@@@@@@@@@@@@@@@@@@@@@@@@@@@@@@@@@@@@@@@@@@@@@@@@@@........        ++++++++########++++++++",
"        ........@@@@@@@@................@@@@@@@@@@@@@@@@@@@@@@@@................@@@@@@@@........                ########        ",
"        ........@@@@@@@@................@@@@@@@@@@@@@@@@@@@@@@@@................@@@@@@@@........                ########        ",
"        ........@@@@@@@@................@@@@@@@@@@@@@@@@@@@@@@@@................@@@@@@@@........                ########        ",
"        ........@@@@@@@@................@@@@@@@@@@@@@@@@@@@@@@@@................@@@@@@@@........                ########        ",
"        ........@@@@@@@@................@@@@@@@@@@@@@@@@@@@@@@@@................@@@@@@@@........                ########        ",
"        ........@@@@@@@@................@@@@@@@@@@@@@@@@@@@@@@@@................@@@@@@@@........                ########        ",
"        ........@@@@@@@@................@@@@@@@@@@@@@@@@@@@@@@@@................@@@@@@@@........                ########        ",
"        ........@@@@@@@@................@@@@@@@@@@@@@@@@@@@@@@@@................@@@@@@@@........                ########        ",
"        ........@@@@@@@@................@@@@@@@@@@@@@@@@@@@@@@@@................@@@@@@@@........        ++++++++########++++++++",
"        ........@@@@@@@@................@@@@@@@@@@@@@@@@@@@@@@@@................@@@@@@@@........        ++++++++########++++++++",
"        ........@@@@@@@@................@@@@@@@@@@@@@@@@@@@@@@@@................@@@@@@@@........        ++++++++########++++++++",
"        ........@@@@@@@@................@@@@@@@@@@@@@@@@@@@@@@@@................@@@@@@@@........        ++++++++########++++++++",
"        ........@@@@@@@@................@@@@@@@@@@@@@@@@@@@@@@@@................@@@@@@@@........        ++++++++########++++++++",
"        ........@@@@@@@@................@@@@@@@@@@@@@@@@@@@@@@@@................@@@@@@@@........        ++++++++########++++++++",
"        ........@@@@@@@@................@@@@@@@@@@@@@@@@@@@@@@@@................@@@@@@@@........        ++++++++########++++++++",
"        ........@@@@@@@@................@@@@@@@@@@@@@@@@@@@@@@@@................@@@@@@@@........        ++++++++########++++++++",
"        ........@@@@@@@@@@@@@@@@@@@@@@@@@@@@@@@@........@@@@@@@@@@@@@@@@@@@@@@@@@@@@@@@@........                $$$$$$$$        ",
"        ........@@@@@@@@@@@@@@@@@@@@@@@@@@@@@@@@........@@@@@@@@@@@@@@@@@@@@@@@@@@@@@@@@........                $$$$$$$$        ",
"        ........@@@@@@@@@@@@@@@@@@@@@@@@@@@@@@@@........@@@@@@@@@@@@@@@@@@@@@@@@@@@@@@@@........                $$$$$$$$        ",
"        ........@@@@@@@@@@@@@@@@@@@@@@@@@@@@@@@@........@@@@@@@@@@@@@@@@@@@@@@@@@@@@@@@@........                $$$$$$$$        ",
"        ........@@@@@@@@@@@@@@@@@@@@@@@@@@@@@@@@........@@@@@@@@@@@@@@@@@@@@@@@@@@@@@@@@........                $$$$$$$$        ",
"        ........@@@@@@@@@@@@@@@@@@@@@@@@@@@@@@@@........@@@@@@@@@@@@@@@@@@@@@@@@@@@@@@@@........                $$$$$$$$        ",
"        ........@@@@@@@@@@@@@@@@@@@@@@@@@@@@@@@@........@@@@@@@@@@@@@@@@@@@@@@@@@@@@@@@@........                $$$$$$$$        ",
"        ........@@@@@@@@@@@@@@@@@@@@@@@@@@@@@@@@........@@@@@@@@@@@@@@@@@@@@@@@@@@@@@@@@........                $$$$$$$$        ",
"        ........@@@@@@@@@@@@@@@@@@@@@@@@@@@@@@@@@@@@@@@@@@@@@@@@@@@@@@@@@@@@@@@@@@@@@@@@........                $$$$$$$$        ",
"        ........@@@@@@@@@@@@@@@@@@@@@@@@@@@@@@@@@@@@@@@@@@@@@@@@@@@@@@@@@@@@@@@@@@@@@@@@........                $$$$$$$$        ",
"        ........@@@@@@@@@@@@@@@@@@@@@@@@@@@@@@@@@@@@@@@@@@@@@@@@@@@@@@@@@@@@@@@@@@@@@@@@........                $$$$$$$$        ",
"        ........@@@@@@@@@@@@@@@@@@@@@@@@@@@@@@@@@@@@@@@@@@@@@@@@@@@@@@@@@@@@@@@@@@@@@@@@........                $$$$$$$$        ",
"        ........@@@@@@@@@@@@@@@@@@@@@@@@@@@@@@@@@@@@@@@@@@@@@@@@@@@@@@@@@@@@@@@@@@@@@@@@........                $$$$$$$$        ",
"        ........@@@@@@@@@@@@@@@@@@@@@@@@@@@@@@@@@@@@@@@@@@@@@@@@@@@@@@@@@@@@@@@@@@@@@@@@........                $$$$$$$$        ",
"        ........@@@@@@@@@@@@@@@@@@@@@@@@@@@@@@@@@@@@@@@@@@@@@@@@@@@@@@@@@@@@@@@@@@@@@@@@........                $$$$$$$$        ",
"        ........@@@@@@@@@@@@@@@@@@@@@@@@@@@@@@@@@@@@@@@@@@@@@@@@@@@@@@@@@@@@@@@@@@@@@@@@........                $$$$$$$$        ",
"                ........@@@@@@@@........@@@@@@@@........@@@@@@@@........@@@@@@@@........                ................        ",
"                ........@@@@@@@@........@@@@@@@@........@@@@@@@@........@@@@@@@@........                ................        ",
"                ........@@@@@@@@........@@@@@@@@........@@@@@@@@........@@@@@@@@........                ................        ",
"                ........@@@@@@@@........@@@@@@@@........@@@@@@@@........@@@@@@@@........                ................        ",
"                ........@@@@@@@@........@@@@@@@@........@@@@@@@@........@@@@@@@@........                ................        ",
"                ........@@@@@@@@........@@@@@@@@........@@@@@@@@........@@@@@@@@........                ................        ",
"                ........@@@@@@@@........@@@@@@@@........@@@@@@@@........@@@@@@@@........                ................        ",
"                ........@@@@@@@@........@@@@@@@@........@@@@@@@@........@@@@@@@@........                ................        ",
"                ................%%%%%%%%........%%%%%%%%........%%%%%%%%................................@@@@@@@@@@@@@@@@........",
"                ................%%%%%%%%........%%%%%%%%........%%%%%%%%................................@@@@@@@@@@@@@@@@........",
"                ................%%%%%%%%........%%%%%%%%........%%%%%%%%................................@@@@@@@@@@@@@@@@........",
"                ................%%%%%%%%........%%%%%%%%........%%%%%%%%................................@@@@@@@@@@@@@@@@........",
"                ................%%%%%%%%........%%%%%%%%........%%%%%%%%................................@@@@@@@@@@@@@@@@........",
"                ................%%%%%%%%........%%%%%%%%........%%%%%%%%................................@@@@@@@@@@@@@@@@........",
"                ................%%%%%%%%........%%%%%%%%........%%%%%%%%................................@@@@@@@@@@@@@@@@........",
"                ................%%%%%%%%........%%%%%%%%........%%%%%%%%................................@@@@@@@@@@@@@@@@........",
"        ........@@@@@@@@%%%%%%%%@@@@@@@@@@@@@@@@@@@@@@@@@@@@@@@@@@@@@@@@%%%%%%%%@@@@@@@@@@@@@@@@@@@@@@@@@@@@@@@@@@@@@@@@........",
"        ........@@@@@@@@%%%%%%%%@@@@@@@@@@@@@@@@@@@@@@@@@@@@@@@@@@@@@@@@%%%%%%%%@@@@@@@@@@@@@@@@@@@@@@@@@@@@@@@@@@@@@@@@........",
"        ........@@@@@@@@%%%%%%%%@@@@@@@@@@@@@@@@@@@@@@@@@@@@@@@@@@@@@@@@%%%%%%%%@@@@@@@@@@@@@@@@@@@@@@@@@@@@@@@@@@@@@@@@........",
"        ........@@@@@@@@%%%%%%%%@@@@@@@@@@@@@@@@@@@@@@@@@@@@@@@@@@@@@@@@%%%%%%%%@@@@@@@@@@@@@@@@@@@@@@@@@@@@@@@@@@@@@@@@........",
"        ........@@@@@@@@%%%%%%%%@@@@@@@@@@@@@@@@@@@@@@@@@@@@@@@@@@@@@@@@%%%%%%%%@@@@@@@@@@@@@@@@@@@@@@@@@@@@@@@@@@@@@@@@........",
"        ........@@@@@@@@%%%%%%%%@@@@@@@@@@@@@@@@@@@@@@@@@@@@@@@@@@@@@@@@%%%%%%%%@@@@@@@@@@@@@@@@@@@@@@@@@@@@@@@@@@@@@@@@........",
"        ........@@@@@@@@%%%%%%%%@@@@@@@@@@@@@@@@@@@@@@@@@@@@@@@@@@@@@@@@%%%%%%%%@@@@@@@@@@@@@@@@@@@@@@@@@@@@@@@@@@@@@@@@........",
"        ........@@@@@@@@%%%%%%%%@@@@@@@@@@@@@@@@@@@@@@@@@@@@@@@@@@@@@@@@%%%%%%%%@@@@@@@@@@@@@@@@@@@@@@@@@@@@@@@@@@@@@@@@........",
"........@@@@@@@@@@@@@@@@........@@@@@@@@@@@@@@@@@@@@@@@@@@@@@@@@@@@@@@@@................................................        ",
"........@@@@@@@@@@@@@@@@........@@@@@@@@@@@@@@@@@@@@@@@@@@@@@@@@@@@@@@@@................................................        ",
"........@@@@@@@@@@@@@@@@........@@@@@@@@@@@@@@@@@@@@@@@@@@@@@@@@@@@@@@@@................................................        ",
"........@@@@@@@@@@@@@@@@........@@@@@@@@@@@@@@@@@@@@@@@@@@@@@@@@@@@@@@@@................................................        ",
"........@@@@@@@@@@@@@@@@........@@@@@@@@@@@@@@@@@@@@@@@@@@@@@@@@@@@@@@@@................................................        ",
"........@@@@@@@@@@@@@@@@........@@@@@@@@@@@@@@@@@@@@@@@@@@@@@@@@@@@@@@@@................................................        ",
"........@@@@@@@@@@@@@@@@........@@@@@@@@@@@@@@@@@@@@@@@@@@@@@@@@@@@@@@@@................................................        ",
"........@@@@@@@@@@@@@@@@........@@@@@@@@@@@@@@@@@@@@@@@@@@@@@@@@@@@@@@@@................................................        ",
"........@@@@@@@@@@@@@@@@........%%%%%%%%........................%%%%%%%%........                                $$$$$$$$        ",
"........@@@@@@@@@@@@@@@@........%%%%%%%%........................%%%%%%%%........                                $$$$$$$$        ",
"........@@@@@@@@@@@@@@@@........%%%%%%%%........................%%%%%%%%........                                $$$$$$$$        ",
"........@@@@@@@@@@@@@@@@........%%%%%%%%........................%%%%%%%%........                                $$$$$$$$        ",
"........@@@@@@@@@@@@@@@@........%%%%%%%%........................%%%%%%%%........                                $$$$$$$$        ",
"........@@@@@@@@@@@@@@@@........%%%%%%%%........................%%%%%%%%........                                $$$$$$$$        ",
"........@@@@@@@@@@@@@@@@........%%%%%%%%........................%%%%%%%%........                                $$$$$$$$        ",
"........@@@@@@@@@@@@@@@@........%%%%%%%%........................%%%%%%%%........                                $$$$$$$$        ",
"        ........................@@@@@@@@%%%%%%%%........%%%%%%%%@@@@@@@@........                                $$$$$$$$        ",
"        ........................@@@@@@@@%%%%%%%%........%%%%%%%%@@@@@@@@........                                $$$$$$$$        ",
"        ........................@@@@@@@@%%%%%%%%........%%%%%%%%@@@@@@@@........                                $$$$$$$$        ",
"        ........................@@@@@@@@%%%%%%%%........%%%%%%%%@@@@@@@@........                                $$$$$$$$        ",
"        ........................@@@@@@@@%%%%%%%%........%%%%%%%%@@@@@@@@........                                $$$$$$$$        ",
"        ........................@@@@@@@@%%%%%%%%........%%%%%%%%@@@@@@@@........                                $$$$$$$$        ",
"        ........................@@@@@@@@%%%%%%%%........%%%%%%%%@@@@@@@@........                                $$$$$$$$        ",
"        ........................@@@@@@@@%%%%%%%%........%%%%%%%%@@@@@@@@........                                $$$$$$$$        ",
"                ................@@@@@@@@@@@@@@@@........@@@@@@@@@@@@@@@@................                        $$$$$$$$        ",
"                ................@@@@@@@@@@@@@@@@........@@@@@@@@@@@@@@@@................                        $$$$$$$$        ",
"                ................@@@@@@@@@@@@@@@@........@@@@@@@@@@@@@@@@................                        $$$$$$$$        ",
"                ................@@@@@@@@@@@@@@@@........@@@@@@@@@@@@@@@@................                        $$$$$$$$        ",
"                ................@@@@@@@@@@@@@@@@........@@@@@@@@@@@@@@@@................                        $$$$$$$$        ",
"                ................@@@@@@@@@@@@@@@@........@@@@@@@@@@@@@@@@................                        $$$$$$$$        ",
"                ................@@@@@@@@@@@@@@@@........@@@@@@@@@@@@@@@@................                        $$$$$$$$        ",
"                ................@@@@@@@@@@@@@@@@........@@@@@@@@@@@@@@@@................                        $$$$$$$$        ",
"                ........@@@@@@@@@@@@@@@@@@@@@@@@........@@@@@@@@@@@@@@@@@@@@@@@@........                        $$$$$$$$        ",
"                ........@@@@@@@@@@@@@@@@@@@@@@@@........@@@@@@@@@@@@@@@@@@@@@@@@........                        $$$$$$$$        ",
"                ........@@@@@@@@@@@@@@@@@@@@@@@@........@@@@@@@@@@@@@@@@@@@@@@@@........                        $$$$$$$$        ",
"                ........@@@@@@@@@@@@@@@@@@@@@@@@........@@@@@@@@@@@@@@@@@@@@@@@@........                        $$$$$$$$        ",
"                ........@@@@@@@@@@@@@@@@@@@@@@@@........@@@@@@@@@@@@@@@@@@@@@@@@........                        $$$$$$$$        ",
"                ........@@@@@@@@@@@@@@@@@@@@@@@@........@@@@@@@@@@@@@@@@@@@@@@@@........                        $$$$$$$$        ",
"                ........@@@@@@@@@@@@@@@@@@@@@@@@........@@@@@@@@@@@@@@@@@@@@@@@@........                        $$$$$$$$        ",
"                ........@@@@@@@@@@@@@@@@@@@@@@@@........@@@@@@@@@@@@@@@@@@@@@@@@........                        $$$$$$$$        "};
