/* XPM */
static char * jugador_derecha_0_xpm[] = {
"104 128 12 1",
" 	c #72751B",
".	c #16264D",
"+	c #B77846",
"@	c #CACACA",
"#	c #8F5459",
"$	c #504B78",
"%	c #856B73",
"&	c #CDB68C",
"*	c #CD9168",
"=	c #51276F",
"-	c #9DA0BF",
";	c #7970B2",
"        ........................................................................                        ",
"        ........................................................................                        ",
"        ........................................................................                        ",
"        ........................................................................                        ",
"        ........................................................................                        ",
"        ........................................................................                        ",
"        ........................................................................                        ",
"        ........................................................................                        ",
"........++++++++++++++++++++++++++++++++++++++++++++++++++++++++++++++++++++++++........                ",
"........++++++++++++++++++++++++++++++++++++++++++++++++++++++++++++++++++++++++........                ",
"........++++++++++++++++++++++++++++++++++++++++++++++++++++++++++++++++++++++++........                ",
"........++++++++++++++++++++++++++++++++++++++++++++++++++++++++++++++++++++++++........                ",
"........++++++++++++++++++++++++++++++++++++++++++++++++++++++++++++++++++++++++........                ",
"........++++++++++++++++++++++++++++++++++++++++++++++++++++++++++++++++++++++++........                ",
"........++++++++++++++++++++++++++++++++++++++++++++++++++++++++++++++++++++++++........                ",
"........++++++++++++++++++++++++++++++++++++++++++++++++++++++++++++++++++++++++........                ",
"........++++++++++++++++++++++++++++++++++++++++++++++++++++++++++++++++++++++++........                ",
"........++++++++++++++++++++++++++++++++++++++++++++++++++++++++++++++++++++++++........                ",
"........++++++++++++++++++++++++++++++++++++++++++++++++++++++++++++++++++++++++........                ",
"........++++++++++++++++++++++++++++++++++++++++++++++++++++++++++++++++++++++++........                ",
"........++++++++++++++++++++++++++++++++++++++++++++++++++++++++++++++++++++++++........                ",
"........++++++++++++++++++++++++++++++++++++++++++++++++++++++++++++++++++++++++........                ",
"........++++++++++++++++++++++++++++++++++++++++++++++++++++++++++++++++++++++++........                ",
"........++++++++++++++++++++++++++++++++++++++++++++++++++++++++++++++++++++++++........                ",
"........++++++++++++++++++++++++++++++++++++++++++++++++++++++++++++++++@@@@@@@@................        ",
"........++++++++++++++++++++++++++++++++++++++++++++++++++++++++++++++++@@@@@@@@................        ",
"........++++++++++++++++++++++++++++++++++++++++++++++++++++++++++++++++@@@@@@@@................        ",
"........++++++++++++++++++++++++++++++++++++++++++++++++++++++++++++++++@@@@@@@@................        ",
"........++++++++++++++++++++++++++++++++++++++++++++++++++++++++++++++++@@@@@@@@................        ",
"........++++++++++++++++++++++++++++++++++++++++++++++++++++++++++++++++@@@@@@@@................        ",
"........++++++++++++++++++++++++++++++++++++++++++++++++++++++++++++++++@@@@@@@@................        ",
"........++++++++++++++++++++++++++++++++++++++++++++++++++++++++++++++++@@@@@@@@................        ",
"........++++++++++++++++++++++++++++++++++++++++++++++++++++++++++++++++@@@@@@@@########++++++++........",
"........++++++++++++++++++++++++++++++++++++++++++++++++++++++++++++++++@@@@@@@@########++++++++........",
"........++++++++++++++++++++++++++++++++++++++++++++++++++++++++++++++++@@@@@@@@########++++++++........",
"........++++++++++++++++++++++++++++++++++++++++++++++++++++++++++++++++@@@@@@@@########++++++++........",
"........++++++++++++++++++++++++++++++++++++++++++++++++++++++++++++++++@@@@@@@@########++++++++........",
"........++++++++++++++++++++++++++++++++++++++++++++++++++++++++++++++++@@@@@@@@########++++++++........",
"........++++++++++++++++++++++++++++++++++++++++++++++++++++++++++++++++@@@@@@@@########++++++++........",
"........++++++++++++++++++++++++++++++++++++++++++++++++++++++++++++++++@@@@@@@@########++++++++........",
"........########++++++++++++++++++++++++++++++++++++++++++++++++++++++++########++++++++++++++++........",
"........########++++++++++++++++++++++++++++++++++++++++++++++++++++++++########++++++++++++++++........",
"........########++++++++++++++++++++++++++++++++++++++++++++++++++++++++########++++++++++++++++........",
"........########++++++++++++++++++++++++++++++++++++++++++++++++++++++++########++++++++++++++++........",
"........########++++++++++++++++++++++++++++++++++++++++++++++++++++++++########++++++++++++++++........",
"........########++++++++++++++++++++++++++++++++++++++++++++++++++++++++########++++++++++++++++........",
"........########++++++++++++++++++++++++++++++++++++++++++++++++++++++++########++++++++++++++++........",
"........########++++++++++++++++++++++++++++++++++++++++++++++++++++++++########++++++++++++++++........",
"........$$$$$$$$########################################################++++++++++++++++........        ",
"........$$$$$$$$########################################################++++++++++++++++........        ",
"........$$$$$$$$########################################################++++++++++++++++........        ",
"........$$$$$$$$########################################################++++++++++++++++........        ",
"........$$$$$$$$########################################################++++++++++++++++........        ",
"........$$$$$$$$########################################################++++++++++++++++........        ",
"........$$$$$$$$########################################################++++++++++++++++........        ",
"........$$$$$$$$########################################################++++++++++++++++........        ",
"........%%%%%%%%$$$$$$$$$$$$$$$$&&&&&&&&&&&&&&&&$$$$$$$$&&&&&&&&........&&&&&&&&........                ",
"........%%%%%%%%$$$$$$$$$$$$$$$$&&&&&&&&&&&&&&&&$$$$$$$$&&&&&&&&........&&&&&&&&........                ",
"........%%%%%%%%$$$$$$$$$$$$$$$$&&&&&&&&&&&&&&&&$$$$$$$$&&&&&&&&........&&&&&&&&........                ",
"........%%%%%%%%$$$$$$$$$$$$$$$$&&&&&&&&&&&&&&&&$$$$$$$$&&&&&&&&........&&&&&&&&........                ",
"........%%%%%%%%$$$$$$$$$$$$$$$$&&&&&&&&&&&&&&&&$$$$$$$$&&&&&&&&........&&&&&&&&........                ",
"........%%%%%%%%$$$$$$$$$$$$$$$$&&&&&&&&&&&&&&&&$$$$$$$$&&&&&&&&........&&&&&&&&........                ",
"........%%%%%%%%$$$$$$$$$$$$$$$$&&&&&&&&&&&&&&&&$$$$$$$$&&&&&&&&........&&&&&&&&........                ",
"........%%%%%%%%$$$$$$$$$$$$$$$$&&&&&&&&&&&&&&&&$$$$$$$$&&&&&&&&........&&&&&&&&........                ",
"........%%%%%%%%%%%%%%%%%%%%%%%%&&&&&&&&&&&&&&&&%%%%%%%%&&&&&&&&........&&&&&&&&........                ",
"........%%%%%%%%%%%%%%%%%%%%%%%%&&&&&&&&&&&&&&&&%%%%%%%%&&&&&&&&........&&&&&&&&........                ",
"........%%%%%%%%%%%%%%%%%%%%%%%%&&&&&&&&&&&&&&&&%%%%%%%%&&&&&&&&........&&&&&&&&........                ",
"........%%%%%%%%%%%%%%%%%%%%%%%%&&&&&&&&&&&&&&&&%%%%%%%%&&&&&&&&........&&&&&&&&........                ",
"........%%%%%%%%%%%%%%%%%%%%%%%%&&&&&&&&&&&&&&&&%%%%%%%%&&&&&&&&........&&&&&&&&........                ",
"........%%%%%%%%%%%%%%%%%%%%%%%%&&&&&&&&&&&&&&&&%%%%%%%%&&&&&&&&........&&&&&&&&........                ",
"........%%%%%%%%%%%%%%%%%%%%%%%%&&&&&&&&&&&&&&&&%%%%%%%%&&&&&&&&........&&&&&&&&........                ",
"........%%%%%%%%%%%%%%%%%%%%%%%%&&&&&&&&&&&&&&&&%%%%%%%%&&&&&&&&........&&&&&&&&........                ",
"        ........%%%%%%%%%%%%%%%%%%%%%%%%********%%%%%%%%********&&&&&&&&........                        ",
"        ........%%%%%%%%%%%%%%%%%%%%%%%%********%%%%%%%%********&&&&&&&&........                        ",
"        ........%%%%%%%%%%%%%%%%%%%%%%%%********%%%%%%%%********&&&&&&&&........                        ",
"        ........%%%%%%%%%%%%%%%%%%%%%%%%********%%%%%%%%********&&&&&&&&........                        ",
"        ........%%%%%%%%%%%%%%%%%%%%%%%%********%%%%%%%%********&&&&&&&&........                        ",
"        ........%%%%%%%%%%%%%%%%%%%%%%%%********%%%%%%%%********&&&&&&&&........                        ",
"        ........%%%%%%%%%%%%%%%%%%%%%%%%********%%%%%%%%********&&&&&&&&........                        ",
"        ........%%%%%%%%%%%%%%%%%%%%%%%%********%%%%%%%%********&&&&&&&&........                        ",
"                ........========########################--------........                                ",
"                ........========########################--------........                                ",
"                ........========########################--------........                                ",
"                ........========########################--------........                                ",
"                ........========########################--------........                                ",
"                ........========########################--------........                                ",
"                ........========########################--------........                                ",
"                ........========########################--------........                                ",
"                ........++++++++++++++++========++++++++@@@@@@@@........                                ",
"                ........++++++++++++++++========++++++++@@@@@@@@........                                ",
"                ........++++++++++++++++========++++++++@@@@@@@@........                                ",
"                ........++++++++++++++++========++++++++@@@@@@@@........                                ",
"                ........++++++++++++++++========++++++++@@@@@@@@........                                ",
"                ........++++++++++++++++========++++++++@@@@@@@@........                                ",
"                ........++++++++++++++++========++++++++@@@@@@@@........                                ",
"                ........++++++++++++++++========++++++++@@@@@@@@........                                ",
"                ........&&&&&&&&********........++++++++@@@@@@@@........                                ",
"                ........&&&&&&&&********........++++++++@@@@@@@@........                                ",
"                ........&&&&&&&&********........++++++++@@@@@@@@........                                ",
"                ........&&&&&&&&********........++++++++@@@@@@@@........                                ",
"                ........&&&&&&&&********........++++++++@@@@@@@@........                                ",
"                ........&&&&&&&&********........++++++++@@@@@@@@........                                ",
"                ........&&&&&&&&********........++++++++@@@@@@@@........                                ",
"                ........&&&&&&&&********........++++++++@@@@@@@@........                                ",
"                ........&&&&&&&&&&&&&&&&........;;;;;;;;;;;;;;;;........                                ",
"                ........&&&&&&&&&&&&&&&&........;;;;;;;;;;;;;;;;........                                ",
"                ........&&&&&&&&&&&&&&&&........;;;;;;;;;;;;;;;;........                                ",
"                ........&&&&&&&&&&&&&&&&........;;;;;;;;;;;;;;;;........                                ",
"                ........&&&&&&&&&&&&&&&&........;;;;;;;;;;;;;;;;........                                ",
"                ........&&&&&&&&&&&&&&&&........;;;;;;;;;;;;;;;;........                                ",
"                ........&&&&&&&&&&&&&&&&........;;;;;;;;;;;;;;;;........                                ",
"                ........&&&&&&&&&&&&&&&&........;;;;;;;;;;;;;;;;........                                ",
"                        ................$$$$$$$$;;;;;;;;........                                        ",
"                        ................$$$$$$$$;;;;;;;;........                                        ",
"                        ................$$$$$$$$;;;;;;;;........                                        ",
"                        ................$$$$$$$$;;;;;;;;........                                        ",
"                        ................$$$$$$$$;;;;;;;;........                                        ",
"                        ................$$$$$$$$;;;;;;;;........                                        ",
"                        ................$$$$$$$$;;;;;;;;........                                        ",
"                        ................$$$$$$$$;;;;;;;;........                                        ",
"                                ........--------@@@@@@@@@@@@@@@@........                                ",
"                                ........--------@@@@@@@@@@@@@@@@........                                ",
"                                ........--------@@@@@@@@@@@@@@@@........                                ",
"                                ........--------@@@@@@@@@@@@@@@@........                                ",
"                                ........--------@@@@@@@@@@@@@@@@........                                ",
"                                ........--------@@@@@@@@@@@@@@@@........                                ",
"                                ........--------@@@@@@@@@@@@@@@@........                                ",
"                                ........--------@@@@@@@@@@@@@@@@........                                "};
