/* XPM */
static char * jugador_arriba_0_xpm[] = {
"104 128 12 1",
" 	c #72751B",
".	c #16264D",
"+	c #B77846",
"@	c #8F5459",
"#	c #CD9168",
"$	c #504B78",
"%	c #7A3A54",
"&	c #856B73",
"*	c #CDB68C",
"=	c #7970B2",
"-	c #9DA0BF",
";	c #CACACA",
"                ........................................................................                ",
"                ........................................................................                ",
"                ........................................................................                ",
"                ........................................................................                ",
"                ........................................................................                ",
"                ........................................................................                ",
"                ........................................................................                ",
"                ........................................................................                ",
"        ........++++++++++++++++++++++++++++++++++++++++++++++++++++++++++++++++++++++++........        ",
"        ........++++++++++++++++++++++++++++++++++++++++++++++++++++++++++++++++++++++++........        ",
"        ........++++++++++++++++++++++++++++++++++++++++++++++++++++++++++++++++++++++++........        ",
"        ........++++++++++++++++++++++++++++++++++++++++++++++++++++++++++++++++++++++++........        ",
"        ........++++++++++++++++++++++++++++++++++++++++++++++++++++++++++++++++++++++++........        ",
"        ........++++++++++++++++++++++++++++++++++++++++++++++++++++++++++++++++++++++++........        ",
"        ........++++++++++++++++++++++++++++++++++++++++++++++++++++++++++++++++++++++++........        ",
"        ........++++++++++++++++++++++++++++++++++++++++++++++++++++++++++++++++++++++++........        ",
"        ........++++++++++++++++++++++++++++++++++++++++++++++++++++++++++++++++++++++++........        ",
"        ........++++++++++++++++++++++++++++++++++++++++++++++++++++++++++++++++++++++++........        ",
"        ........++++++++++++++++++++++++++++++++++++++++++++++++++++++++++++++++++++++++........        ",
"        ........++++++++++++++++++++++++++++++++++++++++++++++++++++++++++++++++++++++++........        ",
"        ........++++++++++++++++++++++++++++++++++++++++++++++++++++++++++++++++++++++++........        ",
"        ........++++++++++++++++++++++++++++++++++++++++++++++++++++++++++++++++++++++++........        ",
"        ........++++++++++++++++++++++++++++++++++++++++++++++++++++++++++++++++++++++++........        ",
"        ........++++++++++++++++++++++++++++++++++++++++++++++++++++++++++++++++++++++++........        ",
"        ........++++++++++++++++++++++++++++++++++++++++++++++++++++++++++++++++++++++++........        ",
"        ........++++++++++++++++++++++++++++++++++++++++++++++++++++++++++++++++++++++++........        ",
"        ........++++++++++++++++++++++++++++++++++++++++++++++++++++++++++++++++++++++++........        ",
"        ........++++++++++++++++++++++++++++++++++++++++++++++++++++++++++++++++++++++++........        ",
"        ........++++++++++++++++++++++++++++++++++++++++++++++++++++++++++++++++++++++++........        ",
"        ........++++++++++++++++++++++++++++++++++++++++++++++++++++++++++++++++++++++++........        ",
"        ........++++++++++++++++++++++++++++++++++++++++++++++++++++++++++++++++++++++++........        ",
"        ........++++++++++++++++++++++++++++++++++++++++++++++++++++++++++++++++++++++++........        ",
"        ........++++++++++++++++++++++++++++++++++++++++++++++++++++++++++++++++++++++++........        ",
"        ........++++++++++++++++++++++++++++++++++++++++++++++++++++++++++++++++++++++++........        ",
"        ........++++++++++++++++++++++++++++++++++++++++++++++++++++++++++++++++++++++++........        ",
"        ........++++++++++++++++++++++++++++++++++++++++++++++++++++++++++++++++++++++++........        ",
"        ........++++++++++++++++++++++++++++++++++++++++++++++++++++++++++++++++++++++++........        ",
"        ........++++++++++++++++++++++++++++++++++++++++++++++++++++++++++++++++++++++++........        ",
"        ........++++++++++++++++++++++++++++++++++++++++++++++++++++++++++++++++++++++++........        ",
"        ........++++++++++++++++++++++++++++++++++++++++++++++++++++++++++++++++++++++++........        ",
"        ........@@@@@@@@++++++++++++++++++++++++++++++++++++++++++++++++++++++++@@@@@@@@........        ",
"        ........@@@@@@@@++++++++++++++++++++++++++++++++++++++++++++++++++++++++@@@@@@@@........        ",
"        ........@@@@@@@@++++++++++++++++++++++++++++++++++++++++++++++++++++++++@@@@@@@@........        ",
"        ........@@@@@@@@++++++++++++++++++++++++++++++++++++++++++++++++++++++++@@@@@@@@........        ",
"        ........@@@@@@@@++++++++++++++++++++++++++++++++++++++++++++++++++++++++@@@@@@@@........        ",
"        ........@@@@@@@@++++++++++++++++++++++++++++++++++++++++++++++++++++++++@@@@@@@@........        ",
"        ........@@@@@@@@++++++++++++++++++++++++++++++++++++++++++++++++++++++++@@@@@@@@........        ",
"        ........@@@@@@@@++++++++++++++++++++++++++++++++++++++++++++++++++++++++@@@@@@@@........        ",
"........########$$$$$$$$@@@@@@@@@@@@@@@@%%%%%%%%%%%%%%%%%%%%%%%%@@@@@@@@@@@@@@@@$$$$$$$$########........",
"........########$$$$$$$$@@@@@@@@@@@@@@@@%%%%%%%%%%%%%%%%%%%%%%%%@@@@@@@@@@@@@@@@$$$$$$$$########........",
"........########$$$$$$$$@@@@@@@@@@@@@@@@%%%%%%%%%%%%%%%%%%%%%%%%@@@@@@@@@@@@@@@@$$$$$$$$########........",
"........########$$$$$$$$@@@@@@@@@@@@@@@@%%%%%%%%%%%%%%%%%%%%%%%%@@@@@@@@@@@@@@@@$$$$$$$$########........",
"........########$$$$$$$$@@@@@@@@@@@@@@@@%%%%%%%%%%%%%%%%%%%%%%%%@@@@@@@@@@@@@@@@$$$$$$$$########........",
"........########$$$$$$$$@@@@@@@@@@@@@@@@%%%%%%%%%%%%%%%%%%%%%%%%@@@@@@@@@@@@@@@@$$$$$$$$########........",
"........########$$$$$$$$@@@@@@@@@@@@@@@@%%%%%%%%%%%%%%%%%%%%%%%%@@@@@@@@@@@@@@@@$$$$$$$$########........",
"........########$$$$$$$$@@@@@@@@@@@@@@@@%%%%%%%%%%%%%%%%%%%%%%%%@@@@@@@@@@@@@@@@$$$$$$$$########........",
"........########&&&&&&&&$$$$$$$$$$$$$$$$$$$$$$$$$$$$$$$$$$$$$$$$$$$$$$$$$$$$$$$$&&&&&&&&########........",
"........########&&&&&&&&$$$$$$$$$$$$$$$$$$$$$$$$$$$$$$$$$$$$$$$$$$$$$$$$$$$$$$$$&&&&&&&&########........",
"........########&&&&&&&&$$$$$$$$$$$$$$$$$$$$$$$$$$$$$$$$$$$$$$$$$$$$$$$$$$$$$$$$&&&&&&&&########........",
"........########&&&&&&&&$$$$$$$$$$$$$$$$$$$$$$$$$$$$$$$$$$$$$$$$$$$$$$$$$$$$$$$$&&&&&&&&########........",
"........########&&&&&&&&$$$$$$$$$$$$$$$$$$$$$$$$$$$$$$$$$$$$$$$$$$$$$$$$$$$$$$$$&&&&&&&&########........",
"........########&&&&&&&&$$$$$$$$$$$$$$$$$$$$$$$$$$$$$$$$$$$$$$$$$$$$$$$$$$$$$$$$&&&&&&&&########........",
"........########&&&&&&&&$$$$$$$$$$$$$$$$$$$$$$$$$$$$$$$$$$$$$$$$$$$$$$$$$$$$$$$$&&&&&&&&########........",
"........########&&&&&&&&$$$$$$$$$$$$$$$$$$$$$$$$$$$$$$$$$$$$$$$$$$$$$$$$$$$$$$$$&&&&&&&&########........",
"        ........&&&&&&&&&&&&&&&&&&&&&&&&&&&&&&&&&&&&&&&&&&&&&&&&&&&&&&&&&&&&&&&&&&&&&&&&........        ",
"        ........&&&&&&&&&&&&&&&&&&&&&&&&&&&&&&&&&&&&&&&&&&&&&&&&&&&&&&&&&&&&&&&&&&&&&&&&........        ",
"        ........&&&&&&&&&&&&&&&&&&&&&&&&&&&&&&&&&&&&&&&&&&&&&&&&&&&&&&&&&&&&&&&&&&&&&&&&........        ",
"        ........&&&&&&&&&&&&&&&&&&&&&&&&&&&&&&&&&&&&&&&&&&&&&&&&&&&&&&&&&&&&&&&&&&&&&&&&........        ",
"        ........&&&&&&&&&&&&&&&&&&&&&&&&&&&&&&&&&&&&&&&&&&&&&&&&&&&&&&&&&&&&&&&&&&&&&&&&........        ",
"        ........&&&&&&&&&&&&&&&&&&&&&&&&&&&&&&&&&&&&&&&&&&&&&&&&&&&&&&&&&&&&&&&&&&&&&&&&........        ",
"        ........&&&&&&&&&&&&&&&&&&&&&&&&&&&&&&&&&&&&&&&&&&&&&&&&&&&&&&&&&&&&&&&&&&&&&&&&........        ",
"        ........&&&&&&&&&&&&&&&&&&&&&&&&&&&&&&&&&&&&&&&&&&&&&&&&&&&&&&&&&&&&&&&&&&&&&&&&........        ",
"                ........$$$$$$$$&&&&&&&&&&&&&&&&&&&&&&&&&&&&&&&&&&&&&&&&$$$$$$$$........                ",
"                ........$$$$$$$$&&&&&&&&&&&&&&&&&&&&&&&&&&&&&&&&&&&&&&&&$$$$$$$$........                ",
"                ........$$$$$$$$&&&&&&&&&&&&&&&&&&&&&&&&&&&&&&&&&&&&&&&&$$$$$$$$........                ",
"                ........$$$$$$$$&&&&&&&&&&&&&&&&&&&&&&&&&&&&&&&&&&&&&&&&$$$$$$$$........                ",
"                ........$$$$$$$$&&&&&&&&&&&&&&&&&&&&&&&&&&&&&&&&&&&&&&&&$$$$$$$$........                ",
"                ........$$$$$$$$&&&&&&&&&&&&&&&&&&&&&&&&&&&&&&&&&&&&&&&&$$$$$$$$........                ",
"                ........$$$$$$$$&&&&&&&&&&&&&&&&&&&&&&&&&&&&&&&&&&&&&&&&$$$$$$$$........                ",
"                ........$$$$$$$$&&&&&&&&&&&&&&&&&&&&&&&&&&&&&&&&&&&&&&&&$$$$$$$$........                ",
"                ................%%%%%%%%@@@@@@@@@@@@@@@@@@@@@@@@%%%%%%%%................                ",
"                ................%%%%%%%%@@@@@@@@@@@@@@@@@@@@@@@@%%%%%%%%................                ",
"                ................%%%%%%%%@@@@@@@@@@@@@@@@@@@@@@@@%%%%%%%%................                ",
"                ................%%%%%%%%@@@@@@@@@@@@@@@@@@@@@@@@%%%%%%%%................                ",
"                ................%%%%%%%%@@@@@@@@@@@@@@@@@@@@@@@@%%%%%%%%................                ",
"                ................%%%%%%%%@@@@@@@@@@@@@@@@@@@@@@@@%%%%%%%%................                ",
"                ................%%%%%%%%@@@@@@@@@@@@@@@@@@@@@@@@%%%%%%%%................                ",
"                ................%%%%%%%%@@@@@@@@@@@@@@@@@@@@@@@@%%%%%%%%................                ",
"        ........++++++++@@@@@@@@++++++++++++++++++++++++++++++++++++++++@@@@@@@@++++++++........        ",
"        ........++++++++@@@@@@@@++++++++++++++++++++++++++++++++++++++++@@@@@@@@++++++++........        ",
"        ........++++++++@@@@@@@@++++++++++++++++++++++++++++++++++++++++@@@@@@@@++++++++........        ",
"        ........++++++++@@@@@@@@++++++++++++++++++++++++++++++++++++++++@@@@@@@@++++++++........        ",
"        ........++++++++@@@@@@@@++++++++++++++++++++++++++++++++++++++++@@@@@@@@++++++++........        ",
"        ........++++++++@@@@@@@@++++++++++++++++++++++++++++++++++++++++@@@@@@@@++++++++........        ",
"        ........++++++++@@@@@@@@++++++++++++++++++++++++++++++++++++++++@@@@@@@@++++++++........        ",
"        ........++++++++@@@@@@@@++++++++++++++++++++++++++++++++++++++++@@@@@@@@++++++++........        ",
"........********########........++++++++++++++++++++++++++++++++++++++++........########********........",
"........********########........++++++++++++++++++++++++++++++++++++++++........########********........",
"........********########........++++++++++++++++++++++++++++++++++++++++........########********........",
"........********########........++++++++++++++++++++++++++++++++++++++++........########********........",
"........********########........++++++++++++++++++++++++++++++++++++++++........########********........",
"........********########........++++++++++++++++++++++++++++++++++++++++........########********........",
"........********########........++++++++++++++++++++++++++++++++++++++++........########********........",
"........********########........++++++++++++++++++++++++++++++++++++++++........########********........",
"........****************........$$$$$$$$........................$$$$$$$$........****************........",
"........****************........$$$$$$$$........................$$$$$$$$........****************........",
"........****************........$$$$$$$$........................$$$$$$$$........****************........",
"........****************........$$$$$$$$........................$$$$$$$$........****************........",
"........****************........$$$$$$$$........................$$$$$$$$........****************........",
"........****************........$$$$$$$$........................$$$$$$$$........****************........",
"........****************........$$$$$$$$........................$$$$$$$$........****************........",
"........****************........$$$$$$$$........................$$$$$$$$........****************........",
"        ........................========$$$$$$$$........$$$$$$$$========........................        ",
"        ........................========$$$$$$$$........$$$$$$$$========........................        ",
"        ........................========$$$$$$$$........$$$$$$$$========........................        ",
"        ........................========$$$$$$$$........$$$$$$$$========........................        ",
"        ........................========$$$$$$$$........$$$$$$$$========........................        ",
"        ........................========$$$$$$$$........$$$$$$$$========........................        ",
"        ........................========$$$$$$$$........$$$$$$$$========........................        ",
"        ........................========$$$$$$$$........$$$$$$$$========........................        ",
"                ........--------;;;;;;;;;;;;;;;;........;;;;;;;;;;;;;;;;--------........                ",
"                ........--------;;;;;;;;;;;;;;;;........;;;;;;;;;;;;;;;;--------........                ",
"                ........--------;;;;;;;;;;;;;;;;........;;;;;;;;;;;;;;;;--------........                ",
"                ........--------;;;;;;;;;;;;;;;;........;;;;;;;;;;;;;;;;--------........                ",
"                ........--------;;;;;;;;;;;;;;;;........;;;;;;;;;;;;;;;;--------........                ",
"                ........--------;;;;;;;;;;;;;;;;........;;;;;;;;;;;;;;;;--------........                ",
"                ........--------;;;;;;;;;;;;;;;;........;;;;;;;;;;;;;;;;--------........                ",
"                ........--------;;;;;;;;;;;;;;;;........;;;;;;;;;;;;;;;;--------........                "};
