/* XPM */
static char * key_xpm[] = {
"128 128 4 1",
" 	c #72751B",
".	c #68461E",
"+	c #A5921C",
"@	c #CBD128",
"                                ........................                                                                        ",
"                                ........................                                                                        ",
"                                ........................                                                                        ",
"                                ........................                                                                        ",
"                                ........................                                                                        ",
"                                ........................                                                                        ",
"                                ........................                                                                        ",
"                                ........................                                                                        ",
"                        ........++++++++@@@@@@@@@@@@@@@@........                                                                ",
"                        ........++++++++@@@@@@@@@@@@@@@@........                                                                ",
"                        ........++++++++@@@@@@@@@@@@@@@@........                                                                ",
"                        ........++++++++@@@@@@@@@@@@@@@@........                                                                ",
"                        ........++++++++@@@@@@@@@@@@@@@@........                                                                ",
"                        ........++++++++@@@@@@@@@@@@@@@@........                                                                ",
"                        ........++++++++@@@@@@@@@@@@@@@@........                                                                ",
"                        ........++++++++@@@@@@@@@@@@@@@@........                                                                ",
"                ........++++++++@@@@@@@@........++++++++@@@@@@@@........                                                        ",
"                ........++++++++@@@@@@@@........++++++++@@@@@@@@........                                                        ",
"                ........++++++++@@@@@@@@........++++++++@@@@@@@@........                                                        ",
"                ........++++++++@@@@@@@@........++++++++@@@@@@@@........                                                        ",
"                ........++++++++@@@@@@@@........++++++++@@@@@@@@........                                                        ",
"                ........++++++++@@@@@@@@........++++++++@@@@@@@@........                                                        ",
"                ........++++++++@@@@@@@@........++++++++@@@@@@@@........                                                        ",
"                ........++++++++@@@@@@@@........++++++++@@@@@@@@........                                                        ",
"        ........++++++++@@@@@@@@........        ........++++++++........                                                        ",
"        ........++++++++@@@@@@@@........        ........++++++++........                                                        ",
"        ........++++++++@@@@@@@@........        ........++++++++........                                                        ",
"        ........++++++++@@@@@@@@........        ........++++++++........                                                        ",
"        ........++++++++@@@@@@@@........        ........++++++++........                                                        ",
"        ........++++++++@@@@@@@@........        ........++++++++........                                                        ",
"        ........++++++++@@@@@@@@........        ........++++++++........                                                        ",
"        ........++++++++@@@@@@@@........        ........++++++++........                                                        ",
"        ........++++++++........                ........++++++++........                                                        ",
"        ........++++++++........                ........++++++++........                                                        ",
"        ........++++++++........                ........++++++++........                                                        ",
"        ........++++++++........                ........++++++++........                                                        ",
"        ........++++++++........                ........++++++++........                                                        ",
"        ........++++++++........                ........++++++++........                                                        ",
"        ........++++++++........                ........++++++++........                                                        ",
"        ........++++++++........                ........++++++++........                                                        ",
"        ........++++++++@@@@@@@@................++++++++@@@@@@@@........                                                        ",
"        ........++++++++@@@@@@@@................++++++++@@@@@@@@........                                                        ",
"        ........++++++++@@@@@@@@................++++++++@@@@@@@@........                                                        ",
"        ........++++++++@@@@@@@@................++++++++@@@@@@@@........                                                        ",
"        ........++++++++@@@@@@@@................++++++++@@@@@@@@........                                                        ",
"        ........++++++++@@@@@@@@................++++++++@@@@@@@@........                                                        ",
"        ........++++++++@@@@@@@@................++++++++@@@@@@@@........                                                        ",
"        ........++++++++@@@@@@@@................++++++++@@@@@@@@........                                                        ",
"                ........++++++++@@@@@@@@@@@@@@@@@@@@@@@@@@@@@@@@@@@@@@@@........                                                ",
"                ........++++++++@@@@@@@@@@@@@@@@@@@@@@@@@@@@@@@@@@@@@@@@........                                                ",
"                ........++++++++@@@@@@@@@@@@@@@@@@@@@@@@@@@@@@@@@@@@@@@@........                                                ",
"                ........++++++++@@@@@@@@@@@@@@@@@@@@@@@@@@@@@@@@@@@@@@@@........                                                ",
"                ........++++++++@@@@@@@@@@@@@@@@@@@@@@@@@@@@@@@@@@@@@@@@........                                                ",
"                ........++++++++@@@@@@@@@@@@@@@@@@@@@@@@@@@@@@@@@@@@@@@@........                                                ",
"                ........++++++++@@@@@@@@@@@@@@@@@@@@@@@@@@@@@@@@@@@@@@@@........                                                ",
"                ........++++++++@@@@@@@@@@@@@@@@@@@@@@@@@@@@@@@@@@@@@@@@........                                                ",
"                        ................................++++++++@@@@@@@@@@@@@@@@........                                        ",
"                        ................................++++++++@@@@@@@@@@@@@@@@........                                        ",
"                        ................................++++++++@@@@@@@@@@@@@@@@........                                        ",
"                        ................................++++++++@@@@@@@@@@@@@@@@........                                        ",
"                        ................................++++++++@@@@@@@@@@@@@@@@........                                        ",
"                        ................................++++++++@@@@@@@@@@@@@@@@........                                        ",
"                        ................................++++++++@@@@@@@@@@@@@@@@........                                        ",
"                        ................................++++++++@@@@@@@@@@@@@@@@........                                        ",
"                                                        ........++++++++@@@@@@@@@@@@@@@@........                                ",
"                                                        ........++++++++@@@@@@@@@@@@@@@@........                                ",
"                                                        ........++++++++@@@@@@@@@@@@@@@@........                                ",
"                                                        ........++++++++@@@@@@@@@@@@@@@@........                                ",
"                                                        ........++++++++@@@@@@@@@@@@@@@@........                                ",
"                                                        ........++++++++@@@@@@@@@@@@@@@@........                                ",
"                                                        ........++++++++@@@@@@@@@@@@@@@@........                                ",
"                                                        ........++++++++@@@@@@@@@@@@@@@@........                                ",
"                                                                ........++++++++@@@@@@@@@@@@@@@@........                        ",
"                                                                ........++++++++@@@@@@@@@@@@@@@@........                        ",
"                                                                ........++++++++@@@@@@@@@@@@@@@@........                        ",
"                                                                ........++++++++@@@@@@@@@@@@@@@@........                        ",
"                                                                ........++++++++@@@@@@@@@@@@@@@@........                        ",
"                                                                ........++++++++@@@@@@@@@@@@@@@@........                        ",
"                                                                ........++++++++@@@@@@@@@@@@@@@@........                        ",
"                                                                ........++++++++@@@@@@@@@@@@@@@@........                        ",
"                                                        ........++++++++@@@@@@@@........++++++++@@@@@@@@........                ",
"                                                        ........++++++++@@@@@@@@........++++++++@@@@@@@@........                ",
"                                                        ........++++++++@@@@@@@@........++++++++@@@@@@@@........                ",
"                                                        ........++++++++@@@@@@@@........++++++++@@@@@@@@........                ",
"                                                        ........++++++++@@@@@@@@........++++++++@@@@@@@@........                ",
"                                                        ........++++++++@@@@@@@@........++++++++@@@@@@@@........                ",
"                                                        ........++++++++@@@@@@@@........++++++++@@@@@@@@........                ",
"                                                        ........++++++++@@@@@@@@........++++++++@@@@@@@@........                ",
"                                                ........++++++++@@@@@@@@........++++++++@@@@@@@@@@@@@@@@........                ",
"                                                ........++++++++@@@@@@@@........++++++++@@@@@@@@@@@@@@@@........                ",
"                                                ........++++++++@@@@@@@@........++++++++@@@@@@@@@@@@@@@@........                ",
"                                                ........++++++++@@@@@@@@........++++++++@@@@@@@@@@@@@@@@........                ",
"                                                ........++++++++@@@@@@@@........++++++++@@@@@@@@@@@@@@@@........                ",
"                                                ........++++++++@@@@@@@@........++++++++@@@@@@@@@@@@@@@@........                ",
"                                                ........++++++++@@@@@@@@........++++++++@@@@@@@@@@@@@@@@........                ",
"                                                ........++++++++@@@@@@@@........++++++++@@@@@@@@@@@@@@@@........                ",
"                                                        ................++++++++@@@@@@@@................                        ",
"                                                        ................++++++++@@@@@@@@................                        ",
"                                                        ................++++++++@@@@@@@@................                        ",
"                                                        ................++++++++@@@@@@@@................                        ",
"                                                        ................++++++++@@@@@@@@................                        ",
"                                                        ................++++++++@@@@@@@@................                        ",
"                                                        ................++++++++@@@@@@@@................                        ",
"                                                        ................++++++++@@@@@@@@................                        ",
"                                                                ........@@@@@@@@........                                        ",
"                                                                ........@@@@@@@@........                                        ",
"                                                                ........@@@@@@@@........                                        ",
"                                                                ........@@@@@@@@........                                        ",
"                                                                ........@@@@@@@@........                                        ",
"                                                                ........@@@@@@@@........                                        ",
"                                                                ........@@@@@@@@........                                        ",
"                                                                ........@@@@@@@@........                                        ",
"                                                                        ........                                                ",
"                                                                        ........                                                ",
"                                                                        ........                                                ",
"                                                                        ........                                                ",
"                                                                        ........                                                ",
"                                                                        ........                                                ",
"                                                                        ........                                                ",
"                                                                        ........                                                ",
"                                                                                                                                ",
"                                                                                                                                ",
"                                                                                                                                ",
"                                                                                                                                ",
"                                                                                                                                ",
"                                                                                                                                ",
"                                                                                                                                ",
"                                                                                                                                "};
