/* XPM */
static char * C:\Users\ivan\Desktop\sprites\muro_exterior_derecha_xpm[] = {
"128 128 6 1",
" 	c None",
".	c #94928B",
"+	c #868579",
"@	c #5B3C29",
"#	c #4F2913",
"$	c #655444",
"........++++++++++++++++++++++++++++++++........@@@@@@@@                                                                        ",
"........++++++++++++++++++++++++++++++++........@@@@@@@@                                                                        ",
"........++++++++++++++++++++++++++++++++........@@@@@@@@                                                                        ",
"........++++++++++++++++++++++++++++++++........@@@@@@@@                                                                        ",
"........++++++++++++++++++++++++++++++++........@@@@@@@@                                                                        ",
"........++++++++++++++++++++++++++++++++........@@@@@@@@                                                                        ",
"........++++++++++++++++++++++++++++++++........@@@@@@@@                                                                        ",
"........++++++++++++++++++++++++++++++++........@@@@@@@@                                                                        ",
"........++++++++++++++++++++++++++++++++........@@@@@@@@                                                                        ",
"........++++++++++++++++++++++++++++++++........@@@@@@@@                                                                        ",
"........++++++++++++++++++++++++++++++++........@@@@@@@@                                                                        ",
"........++++++++++++++++++++++++++++++++........@@@@@@@@                                                                        ",
"........++++++++++++++++++++++++++++++++........@@@@@@@@                                                                        ",
"........++++++++++++++++++++++++++++++++........@@@@@@@@                                                                        ",
"........++++++++++++++++++++++++++++++++........@@@@@@@@                                                                        ",
"........++++++++++++++++++++++++++++++++........@@@@@@@@                                                                        ",
"........++++++++++++++++++++++++++++++++........@@@@@@@@                                                                        ",
"........++++++++++++++++++++++++++++++++........@@@@@@@@                                                                        ",
"........++++++++++++++++++++++++++++++++........@@@@@@@@                                                                        ",
"........++++++++++++++++++++++++++++++++........@@@@@@@@                                                                        ",
"........++++++++++++++++++++++++++++++++........@@@@@@@@                                                                        ",
"........++++++++++++++++++++++++++++++++........@@@@@@@@                                                                        ",
"........++++++++++++++++++++++++++++++++........@@@@@@@@                                                                        ",
"........++++++++++++++++++++++++++++++++........@@@@@@@@                                                                        ",
"........++++++++++++++++++++++++++++++++........@@@@@@@@                                                                        ",
"........++++++++++++++++++++++++++++++++........@@@@@@@@                                                                        ",
"........++++++++++++++++++++++++++++++++........@@@@@@@@                                                                        ",
"........++++++++++++++++++++++++++++++++........@@@@@@@@                                                                        ",
"........++++++++++++++++++++++++++++++++........@@@@@@@@                                                                        ",
"........++++++++++++++++++++++++++++++++........@@@@@@@@                                                                        ",
"........++++++++++++++++++++++++++++++++........@@@@@@@@                                                                        ",
"........++++++++++++++++++++++++++++++++........@@@@@@@@                                                                        ",
"........++++++++++++++++++++++++++++++++........@@@@@@@@                                                                        ",
"........++++++++++++++++++++++++++++++++........@@@@@@@@                                                                        ",
"........++++++++++++++++++++++++++++++++........@@@@@@@@                                                                        ",
"........++++++++++++++++++++++++++++++++........@@@@@@@@                                                                        ",
"........++++++++++++++++++++++++++++++++........@@@@@@@@                                                                        ",
"........++++++++++++++++++++++++++++++++........@@@@@@@@                                                                        ",
"........++++++++++++++++++++++++++++++++........@@@@@@@@                                                                        ",
"........++++++++++++++++++++++++++++++++........@@@@@@@@                                                                        ",
"........++++++++++++++++++++++++++++++++........@@@@@@@@                                                                        ",
"........++++++++++++++++++++++++++++++++........@@@@@@@@                                                                        ",
"........++++++++++++++++++++++++++++++++........@@@@@@@@                                                                        ",
"........++++++++++++++++++++++++++++++++........@@@@@@@@                                                                        ",
"........++++++++++++++++++++++++++++++++........@@@@@@@@                                                                        ",
"........++++++++++++++++++++++++++++++++........@@@@@@@@                                                                        ",
"........++++++++++++++++++++++++++++++++........@@@@@@@@                                                                        ",
"........++++++++++++++++++++++++++++++++........@@@@@@@@                                                                        ",
"................................................@@@@@@@@                                                                        ",
"................................................@@@@@@@@                                                                        ",
"................................................@@@@@@@@                                                                        ",
"................................................@@@@@@@@                                                                        ",
"................................................@@@@@@@@                                                                        ",
"................................................@@@@@@@@                                                                        ",
"................................................@@@@@@@@                                                                        ",
"................................................@@@@@@@@                                                                        ",
"########$$$$$$$$$$$$$$$$$$$$$$$$$$$$$$$$########@@@@@@@@                                                                        ",
"########$$$$$$$$$$$$$$$$$$$$$$$$$$$$$$$$########@@@@@@@@                                                                        ",
"########$$$$$$$$$$$$$$$$$$$$$$$$$$$$$$$$########@@@@@@@@                                                                        ",
"########$$$$$$$$$$$$$$$$$$$$$$$$$$$$$$$$########@@@@@@@@                                                                        ",
"########$$$$$$$$$$$$$$$$$$$$$$$$$$$$$$$$########@@@@@@@@                                                                        ",
"########$$$$$$$$$$$$$$$$$$$$$$$$$$$$$$$$########@@@@@@@@                                                                        ",
"########$$$$$$$$$$$$$$$$$$$$$$$$$$$$$$$$########@@@@@@@@                                                                        ",
"########$$$$$$$$$$$$$$$$$$$$$$$$$$$$$$$$########@@@@@@@@                                                                        ",
"........++++++++++++++++++++++++++++++++........@@@@@@@@                                                                        ",
"........++++++++++++++++++++++++++++++++........@@@@@@@@                                                                        ",
"........++++++++++++++++++++++++++++++++........@@@@@@@@                                                                        ",
"........++++++++++++++++++++++++++++++++........@@@@@@@@                                                                        ",
"........++++++++++++++++++++++++++++++++........@@@@@@@@                                                                        ",
"........++++++++++++++++++++++++++++++++........@@@@@@@@                                                                        ",
"........++++++++++++++++++++++++++++++++........@@@@@@@@                                                                        ",
"........++++++++++++++++++++++++++++++++........@@@@@@@@                                                                        ",
"........++++++++++++++++++++++++++++++++........@@@@@@@@                                                                        ",
"........++++++++++++++++++++++++++++++++........@@@@@@@@                                                                        ",
"........++++++++++++++++++++++++++++++++........@@@@@@@@                                                                        ",
"........++++++++++++++++++++++++++++++++........@@@@@@@@                                                                        ",
"........++++++++++++++++++++++++++++++++........@@@@@@@@                                                                        ",
"........++++++++++++++++++++++++++++++++........@@@@@@@@                                                                        ",
"........++++++++++++++++++++++++++++++++........@@@@@@@@                                                                        ",
"........++++++++++++++++++++++++++++++++........@@@@@@@@                                                                        ",
"........++++++++++++++++++++++++++++++++........@@@@@@@@                                                                        ",
"........++++++++++++++++++++++++++++++++........@@@@@@@@                                                                        ",
"........++++++++++++++++++++++++++++++++........@@@@@@@@                                                                        ",
"........++++++++++++++++++++++++++++++++........@@@@@@@@                                                                        ",
"........++++++++++++++++++++++++++++++++........@@@@@@@@                                                                        ",
"........++++++++++++++++++++++++++++++++........@@@@@@@@                                                                        ",
"........++++++++++++++++++++++++++++++++........@@@@@@@@                                                                        ",
"........++++++++++++++++++++++++++++++++........@@@@@@@@                                                                        ",
"........++++++++++++++++++++++++++++++++........@@@@@@@@                                                                        ",
"........++++++++++++++++++++++++++++++++........@@@@@@@@                                                                        ",
"........++++++++++++++++++++++++++++++++........@@@@@@@@                                                                        ",
"........++++++++++++++++++++++++++++++++........@@@@@@@@                                                                        ",
"........++++++++++++++++++++++++++++++++........@@@@@@@@                                                                        ",
"........++++++++++++++++++++++++++++++++........@@@@@@@@                                                                        ",
"........++++++++++++++++++++++++++++++++........@@@@@@@@                                                                        ",
"........++++++++++++++++++++++++++++++++........@@@@@@@@                                                                        ",
"........++++++++++++++++++++++++++++++++........@@@@@@@@                                                                        ",
"........++++++++++++++++++++++++++++++++........@@@@@@@@                                                                        ",
"........++++++++++++++++++++++++++++++++........@@@@@@@@                                                                        ",
"........++++++++++++++++++++++++++++++++........@@@@@@@@                                                                        ",
"........++++++++++++++++++++++++++++++++........@@@@@@@@                                                                        ",
"........++++++++++++++++++++++++++++++++........@@@@@@@@                                                                        ",
"........++++++++++++++++++++++++++++++++........@@@@@@@@                                                                        ",
"........++++++++++++++++++++++++++++++++........@@@@@@@@                                                                        ",
"........++++++++++++++++++++++++++++++++........@@@@@@@@                                                                        ",
"........++++++++++++++++++++++++++++++++........@@@@@@@@                                                                        ",
"........++++++++++++++++++++++++++++++++........@@@@@@@@                                                                        ",
"........++++++++++++++++++++++++++++++++........@@@@@@@@                                                                        ",
"........++++++++++++++++++++++++++++++++........@@@@@@@@                                                                        ",
"........++++++++++++++++++++++++++++++++........@@@@@@@@                                                                        ",
"........++++++++++++++++++++++++++++++++........@@@@@@@@                                                                        ",
"........++++++++++++++++++++++++++++++++........@@@@@@@@                                                                        ",
"........++++++++++++++++++++++++++++++++........@@@@@@@@                                                                        ",
"........++++++++++++++++++++++++++++++++........@@@@@@@@                                                                        ",
"........++++++++++++++++++++++++++++++++........@@@@@@@@                                                                        ",
"........++++++++++++++++++++++++++++++++........@@@@@@@@                                                                        ",
"........++++++++++++++++++++++++++++++++........@@@@@@@@                                                                        ",
"........++++++++++++++++++++++++++++++++........@@@@@@@@                                                                        ",
"........++++++++++++++++++++++++++++++++........@@@@@@@@                                                                        ",
"........++++++++++++++++++++++++++++++++........@@@@@@@@                                                                        ",
"........++++++++++++++++++++++++++++++++........@@@@@@@@                                                                        ",
"........++++++++++++++++++++++++++++++++........@@@@@@@@                                                                        ",
"........++++++++++++++++++++++++++++++++........@@@@@@@@                                                                        ",
"........++++++++++++++++++++++++++++++++........@@@@@@@@                                                                        ",
"........++++++++++++++++++++++++++++++++........@@@@@@@@                                                                        ",
"........++++++++++++++++++++++++++++++++........@@@@@@@@                                                                        ",
"........++++++++++++++++++++++++++++++++........@@@@@@@@                                                                        ",
"........++++++++++++++++++++++++++++++++........@@@@@@@@                                                                        "};
