/* XPM */
static char * C:\Users\ivan\Desktop\sprites\muro_exterior_abajo_izquierda_xpm[] = {
"128 128 48 1",
" 	c None",
".	c #5A3B27",
"+	c #868579",
"@	c #56331E",
"#	c #94928B",
"$	c #8B8A7F",
"%	c #55321D",
"&	c #9A9891",
"*	c #848179",
"=	c #4F2913",
"-	c #7C7870",
";	c #7B766E",
">	c #9C9A92",
",	c #99978F",
"'	c #4E2812",
")	c #79756D",
"!	c #7A756D",
"~	c #949289",
"{	c #6E6A60",
"]	c #6D685F",
"^	c #78736B",
"/	c #8D8B82",
"(	c #6D695F",
"_	c #6C685E",
":	c #827F77",
"<	c #68645A",
"[	c #68635A",
"}	c #686359",
"|	c #6A655C",
"1	c #7F7C74",
"2	c #676158",
"3	c #686259",
"4	c #69645B",
"5	c #4D2712",
"6	c #7E7B73",
"7	c #665F56",
"8	c #666057",
"9	c #676258",
"0	c #69635B",
"a	c #4C2611",
"b	c #76736B",
"c	c #655F56",
"d	c #665F57",
"e	c #655E55",
"f	c #676259",
"g	c #655F55",
"h	c #676159",
"i	c #4B2511",
"                                                                        ........++++++++++++++++++++++++++++++++++++++++++++++++",
"                                                                        ........++++++++++++++++++++++++++++++++++++++++++++++++",
"                                                                        ........++++++++++++++++++++++++++++++++++++++++++++++++",
"                                                                        ........++++++++++++++++++++++++++++++++++++++++++++++++",
"                                                                        ........++++++++++++++++++++++++++++++++++++++++++++++++",
"                                                                        ........++++++++++++++++++++++++++++++++++++++++++++++++",
"                                                                        ........++++++++++++++++++++++++++++++++++++++++++++++++",
"                                                                        ........++++++++++++++++++++++++++++++++++++++++++++++++",
"                                                                        @@@@@@@@########++++++++++++++++++++++++++++++++$$$$$$$$",
"                                                                        @@@@@@@@########++++++++++++++++++++++++++++++++$$$$$$$$",
"                                                                        @@@@@@@@########++++++++++++++++++++++++++++++++$$$$$$$$",
"                                                                        @@@@@@@@########++++++++++++++++++++++++++++++++$$$$$$$$",
"                                                                        @@@@@@@@########++++++++++++++++++++++++++++++++$$$$$$$$",
"                                                                        @@@@@@@@########++++++++++++++++++++++++++++++++$$$$$$$$",
"                                                                        @@@@@@@@########++++++++++++++++++++++++++++++++$$$$$$$$",
"                                                                        @@@@@@@@########++++++++++++++++++++++++++++++++$$$$$$$$",
"                                                                        %%%%%%%%&&&&&&&&++++++++++++++++++++++++++++++++$$$$$$$$",
"                                                                        %%%%%%%%&&&&&&&&++++++++++++++++++++++++++++++++$$$$$$$$",
"                                                                        %%%%%%%%&&&&&&&&++++++++++++++++++++++++++++++++$$$$$$$$",
"                                                                        %%%%%%%%&&&&&&&&++++++++++++++++++++++++++++++++$$$$$$$$",
"                                                                        %%%%%%%%&&&&&&&&++++++++++++++++++++++++++++++++$$$$$$$$",
"                                                                        %%%%%%%%&&&&&&&&++++++++++++++++++++++++++++++++$$$$$$$$",
"                                                                        %%%%%%%%&&&&&&&&++++++++++++++++++++++++++++++++$$$$$$$$",
"                                                                        %%%%%%%%&&&&&&&&++++++++++++++++++++++++++++++++$$$$$$$$",
"                                                                        %%%%%%%%********&&&&&&&&&&&&&&&&++++++++++++++++$$$$$$$$",
"                                                                        %%%%%%%%********&&&&&&&&&&&&&&&&++++++++++++++++$$$$$$$$",
"                                                                        %%%%%%%%********&&&&&&&&&&&&&&&&++++++++++++++++$$$$$$$$",
"                                                                        %%%%%%%%********&&&&&&&&&&&&&&&&++++++++++++++++$$$$$$$$",
"                                                                        %%%%%%%%********&&&&&&&&&&&&&&&&++++++++++++++++$$$$$$$$",
"                                                                        %%%%%%%%********&&&&&&&&&&&&&&&&++++++++++++++++$$$$$$$$",
"                                                                        %%%%%%%%********&&&&&&&&&&&&&&&&++++++++++++++++$$$$$$$$",
"                                                                        %%%%%%%%********&&&&&&&&&&&&&&&&++++++++++++++++$$$$$$$$",
"                                                                        ========--------;;;;;;;;;;;;;;;;>>>>>>>>>>>>>>>>,,,,,,,,",
"                                                                        ========--------;;;;;;;;;;;;;;;;>>>>>>>>>>>>>>>>,,,,,,,,",
"                                                                        ========--------;;;;;;;;;;;;;;;;>>>>>>>>>>>>>>>>,,,,,,,,",
"                                                                        ========--------;;;;;;;;;;;;;;;;>>>>>>>>>>>>>>>>,,,,,,,,",
"                                                                        ========--------;;;;;;;;;;;;;;;;>>>>>>>>>>>>>>>>,,,,,,,,",
"                                                                        ========--------;;;;;;;;;;;;;;;;>>>>>>>>>>>>>>>>,,,,,,,,",
"                                                                        ========--------;;;;;;;;;;;;;;;;>>>>>>>>>>>>>>>>,,,,,,,,",
"                                                                        ========--------;;;;;;;;;;;;;;;;>>>>>>>>>>>>>>>>,,,,,,,,",
"                                                                        ''''''''))))))))!!!!!!!!;;;;;;;;~~~~~~~~{{{{{{{{]]]]]]]]",
"                                                                        ''''''''))))))))!!!!!!!!;;;;;;;;~~~~~~~~{{{{{{{{]]]]]]]]",
"                                                                        ''''''''))))))))!!!!!!!!;;;;;;;;~~~~~~~~{{{{{{{{]]]]]]]]",
"                                                                        ''''''''))))))))!!!!!!!!;;;;;;;;~~~~~~~~{{{{{{{{]]]]]]]]",
"                                                                        ''''''''))))))))!!!!!!!!;;;;;;;;~~~~~~~~{{{{{{{{]]]]]]]]",
"                                                                        ''''''''))))))))!!!!!!!!;;;;;;;;~~~~~~~~{{{{{{{{]]]]]]]]",
"                                                                        ''''''''))))))))!!!!!!!!;;;;;;;;~~~~~~~~{{{{{{{{]]]]]]]]",
"                                                                        ''''''''))))))))!!!!!!!!;;;;;;;;~~~~~~~~{{{{{{{{]]]]]]]]",
"                                                                        ''''''''^^^^^^^^!!!!!!!!////////((((((((((((((((________",
"                                                                        ''''''''^^^^^^^^!!!!!!!!////////((((((((((((((((________",
"                                                                        ''''''''^^^^^^^^!!!!!!!!////////((((((((((((((((________",
"                                                                        ''''''''^^^^^^^^!!!!!!!!////////((((((((((((((((________",
"                                                                        ''''''''^^^^^^^^!!!!!!!!////////((((((((((((((((________",
"                                                                        ''''''''^^^^^^^^!!!!!!!!////////((((((((((((((((________",
"                                                                        ''''''''^^^^^^^^!!!!!!!!////////((((((((((((((((________",
"                                                                        ''''''''^^^^^^^^!!!!!!!!////////((((((((((((((((________",
"                                                                        ''''''''::::::::<<<<<<<<[[[[[[[[}}}}}}}}[[[[[[[[||||||||",
"                                                                        ''''''''::::::::<<<<<<<<[[[[[[[[}}}}}}}}[[[[[[[[||||||||",
"                                                                        ''''''''::::::::<<<<<<<<[[[[[[[[}}}}}}}}[[[[[[[[||||||||",
"                                                                        ''''''''::::::::<<<<<<<<[[[[[[[[}}}}}}}}[[[[[[[[||||||||",
"                                                                        ''''''''::::::::<<<<<<<<[[[[[[[[}}}}}}}}[[[[[[[[||||||||",
"                                                                        ''''''''::::::::<<<<<<<<[[[[[[[[}}}}}}}}[[[[[[[[||||||||",
"                                                                        ''''''''::::::::<<<<<<<<[[[[[[[[}}}}}}}}[[[[[[[[||||||||",
"                                                                        ''''''''::::::::<<<<<<<<[[[[[[[[}}}}}}}}[[[[[[[[||||||||",
"                                                                        ''''''''::::::::<<<<<<<<[[[[[[[[}}}}}}}}[[[[[[[[||||||||",
"                                                                        ''''''''::::::::<<<<<<<<[[[[[[[[}}}}}}}}[[[[[[[[||||||||",
"                                                                        ''''''''::::::::<<<<<<<<[[[[[[[[}}}}}}}}[[[[[[[[||||||||",
"                                                                        ''''''''::::::::<<<<<<<<[[[[[[[[}}}}}}}}[[[[[[[[||||||||",
"                                                                        ''''''''::::::::<<<<<<<<[[[[[[[[}}}}}}}}[[[[[[[[||||||||",
"                                                                        ''''''''::::::::<<<<<<<<[[[[[[[[}}}}}}}}[[[[[[[[||||||||",
"                                                                        ''''''''::::::::<<<<<<<<[[[[[[[[}}}}}}}}[[[[[[[[||||||||",
"                                                                        ''''''''::::::::<<<<<<<<[[[[[[[[}}}}}}}}[[[[[[[[||||||||",
"                                                                        ''''''''11111111222222222222222233333333}}}}}}}}44444444",
"                                                                        ''''''''11111111222222222222222233333333}}}}}}}}44444444",
"                                                                        ''''''''11111111222222222222222233333333}}}}}}}}44444444",
"                                                                        ''''''''11111111222222222222222233333333}}}}}}}}44444444",
"                                                                        ''''''''11111111222222222222222233333333}}}}}}}}44444444",
"                                                                        ''''''''11111111222222222222222233333333}}}}}}}}44444444",
"                                                                        ''''''''11111111222222222222222233333333}}}}}}}}44444444",
"                                                                        ''''''''11111111222222222222222233333333}}}}}}}}44444444",
"                                                                        55555555666666667777777788888888222222229999999900000000",
"                                                                        55555555666666667777777788888888222222229999999900000000",
"                                                                        55555555666666667777777788888888222222229999999900000000",
"                                                                        55555555666666667777777788888888222222229999999900000000",
"                                                                        55555555666666667777777788888888222222229999999900000000",
"                                                                        55555555666666667777777788888888222222229999999900000000",
"                                                                        55555555666666667777777788888888222222229999999900000000",
"                                                                        55555555666666667777777788888888222222229999999900000000",
"                                                                        aaaaaaaabbbbbbbb8888888877777777888888882222222200000000",
"                                                                        aaaaaaaabbbbbbbb8888888877777777888888882222222200000000",
"                                                                        aaaaaaaabbbbbbbb8888888877777777888888882222222200000000",
"                                                                        aaaaaaaabbbbbbbb8888888877777777888888882222222200000000",
"                                                                        aaaaaaaabbbbbbbb8888888877777777888888882222222200000000",
"                                                                        aaaaaaaabbbbbbbb8888888877777777888888882222222200000000",
"                                                                        aaaaaaaabbbbbbbb8888888877777777888888882222222200000000",
"                                                                        aaaaaaaabbbbbbbb8888888877777777888888882222222200000000",
"                                                                        aaaaaaaabbbbbbbbcccccccc7777777777777777dddddddd00000000",
"                                                                        aaaaaaaabbbbbbbbcccccccc7777777777777777dddddddd00000000",
"                                                                        aaaaaaaabbbbbbbbcccccccc7777777777777777dddddddd00000000",
"                                                                        aaaaaaaabbbbbbbbcccccccc7777777777777777dddddddd00000000",
"                                                                        aaaaaaaabbbbbbbbcccccccc7777777777777777dddddddd00000000",
"                                                                        aaaaaaaabbbbbbbbcccccccc7777777777777777dddddddd00000000",
"                                                                        aaaaaaaabbbbbbbbcccccccc7777777777777777dddddddd00000000",
"                                                                        aaaaaaaabbbbbbbbcccccccc7777777777777777dddddddd00000000",
"                                                                        ''''''''bbbbbbbbeeeeeeeecccccccc7777777777777777ffffffff",
"                                                                        ''''''''bbbbbbbbeeeeeeeecccccccc7777777777777777ffffffff",
"                                                                        ''''''''bbbbbbbbeeeeeeeecccccccc7777777777777777ffffffff",
"                                                                        ''''''''bbbbbbbbeeeeeeeecccccccc7777777777777777ffffffff",
"                                                                        ''''''''bbbbbbbbeeeeeeeecccccccc7777777777777777ffffffff",
"                                                                        ''''''''bbbbbbbbeeeeeeeecccccccc7777777777777777ffffffff",
"                                                                        ''''''''bbbbbbbbeeeeeeeecccccccc7777777777777777ffffffff",
"                                                                        ''''''''bbbbbbbbeeeeeeeecccccccc7777777777777777ffffffff",
"                                                                                ========eeeeeeeegggggggg7777777777777777hhhhhhhh",
"                                                                                ========eeeeeeeegggggggg7777777777777777hhhhhhhh",
"                                                                                ========eeeeeeeegggggggg7777777777777777hhhhhhhh",
"                                                                                ========eeeeeeeegggggggg7777777777777777hhhhhhhh",
"                                                                                ========eeeeeeeegggggggg7777777777777777hhhhhhhh",
"                                                                                ========eeeeeeeegggggggg7777777777777777hhhhhhhh",
"                                                                                ========eeeeeeeegggggggg7777777777777777hhhhhhhh",
"                                                                                ========eeeeeeeegggggggg7777777777777777hhhhhhhh",
"                                                                                        aaaaaaaaiiiiiiiiiiiiiiiiiiiiiiii========",
"                                                                                        aaaaaaaaiiiiiiiiiiiiiiiiiiiiiiii========",
"                                                                                        aaaaaaaaiiiiiiiiiiiiiiiiiiiiiiii========",
"                                                                                        aaaaaaaaiiiiiiiiiiiiiiiiiiiiiiii========",
"                                                                                        aaaaaaaaiiiiiiiiiiiiiiiiiiiiiiii========",
"                                                                                        aaaaaaaaiiiiiiiiiiiiiiiiiiiiiiii========",
"                                                                                        aaaaaaaaiiiiiiiiiiiiiiiiiiiiiiii========",
"                                                                                        aaaaaaaaiiiiiiiiiiiiiiiiiiiiiiii========"};
