/* XPM */
static char * C:\Users\ivan\Desktop\sprites\muro_exterior_arriba_derecha_xpm[] = {
"128 128 13 1",
" 	c None",
".	c #5A3B27",
"+	c #929089",
"@	c #6E6559",
"#	c #71685C",
"$	c #70685C",
"%	c #868579",
"&	c #908E85",
"*	c #70675B",
"=	c #94928B",
"-	c #5B3C29",
";	c #655444",
">	c #4F2913",
"........................................                                                                                        ",
"........................................                                                                                        ",
"........................................                                                                                        ",
"........................................                                                                                        ",
"........................................                                                                                        ",
"........................................                                                                                        ",
"........................................                                                                                        ",
"........................................                                                                                        ",
"++++++++@@@@@@@@########$$$$$$$$$$$$$$$$........                                                                                ",
"++++++++@@@@@@@@########$$$$$$$$$$$$$$$$........                                                                                ",
"++++++++@@@@@@@@########$$$$$$$$$$$$$$$$........                                                                                ",
"++++++++@@@@@@@@########$$$$$$$$$$$$$$$$........                                                                                ",
"++++++++@@@@@@@@########$$$$$$$$$$$$$$$$........                                                                                ",
"++++++++@@@@@@@@########$$$$$$$$$$$$$$$$........                                                                                ",
"++++++++@@@@@@@@########$$$$$$$$$$$$$$$$........                                                                                ",
"++++++++@@@@@@@@########$$$$$$$$$$$$$$$$........                                                                                ",
"%%%%%%%%%%%%%%%%%%%%%%%%&&&&&&&&########********........                                                                        ",
"%%%%%%%%%%%%%%%%%%%%%%%%&&&&&&&&########********........                                                                        ",
"%%%%%%%%%%%%%%%%%%%%%%%%&&&&&&&&########********........                                                                        ",
"%%%%%%%%%%%%%%%%%%%%%%%%&&&&&&&&########********........                                                                        ",
"%%%%%%%%%%%%%%%%%%%%%%%%&&&&&&&&########********........                                                                        ",
"%%%%%%%%%%%%%%%%%%%%%%%%&&&&&&&&########********........                                                                        ",
"%%%%%%%%%%%%%%%%%%%%%%%%&&&&&&&&########********........                                                                        ",
"%%%%%%%%%%%%%%%%%%%%%%%%&&&&&&&&########********........                                                                        ",
"%%%%%%%%%%%%%%%%%%%%%%%%%%%%%%%%========********........                                                                        ",
"%%%%%%%%%%%%%%%%%%%%%%%%%%%%%%%%========********........                                                                        ",
"%%%%%%%%%%%%%%%%%%%%%%%%%%%%%%%%========********........                                                                        ",
"%%%%%%%%%%%%%%%%%%%%%%%%%%%%%%%%========********........                                                                        ",
"%%%%%%%%%%%%%%%%%%%%%%%%%%%%%%%%========********........                                                                        ",
"%%%%%%%%%%%%%%%%%%%%%%%%%%%%%%%%========********........                                                                        ",
"%%%%%%%%%%%%%%%%%%%%%%%%%%%%%%%%========********........                                                                        ",
"%%%%%%%%%%%%%%%%%%%%%%%%%%%%%%%%========********........                                                                        ",
"========%%%%%%%%%%%%%%%%%%%%%%%%%%%%%%%%========--------                                                                        ",
"========%%%%%%%%%%%%%%%%%%%%%%%%%%%%%%%%========--------                                                                        ",
"========%%%%%%%%%%%%%%%%%%%%%%%%%%%%%%%%========--------                                                                        ",
"========%%%%%%%%%%%%%%%%%%%%%%%%%%%%%%%%========--------                                                                        ",
"========%%%%%%%%%%%%%%%%%%%%%%%%%%%%%%%%========--------                                                                        ",
"========%%%%%%%%%%%%%%%%%%%%%%%%%%%%%%%%========--------                                                                        ",
"========%%%%%%%%%%%%%%%%%%%%%%%%%%%%%%%%========--------                                                                        ",
"========%%%%%%%%%%%%%%%%%%%%%%%%%%%%%%%%========--------                                                                        ",
"========%%%%%%%%%%%%%%%%%%%%%%%%%%%%%%%%========--------                                                                        ",
"========%%%%%%%%%%%%%%%%%%%%%%%%%%%%%%%%========--------                                                                        ",
"========%%%%%%%%%%%%%%%%%%%%%%%%%%%%%%%%========--------                                                                        ",
"========%%%%%%%%%%%%%%%%%%%%%%%%%%%%%%%%========--------                                                                        ",
"========%%%%%%%%%%%%%%%%%%%%%%%%%%%%%%%%========--------                                                                        ",
"========%%%%%%%%%%%%%%%%%%%%%%%%%%%%%%%%========--------                                                                        ",
"========%%%%%%%%%%%%%%%%%%%%%%%%%%%%%%%%========--------                                                                        ",
"========%%%%%%%%%%%%%%%%%%%%%%%%%%%%%%%%========--------                                                                        ",
"========%%%%%%%%%%%%%%%%%%%%%%%%%%%%%%%%========--------                                                                        ",
"========%%%%%%%%%%%%%%%%%%%%%%%%%%%%%%%%========--------                                                                        ",
"========%%%%%%%%%%%%%%%%%%%%%%%%%%%%%%%%========--------                                                                        ",
"========%%%%%%%%%%%%%%%%%%%%%%%%%%%%%%%%========--------                                                                        ",
"========%%%%%%%%%%%%%%%%%%%%%%%%%%%%%%%%========--------                                                                        ",
"========%%%%%%%%%%%%%%%%%%%%%%%%%%%%%%%%========--------                                                                        ",
"========%%%%%%%%%%%%%%%%%%%%%%%%%%%%%%%%========--------                                                                        ",
"========%%%%%%%%%%%%%%%%%%%%%%%%%%%%%%%%========--------                                                                        ",
"========%%%%%%%%%%%%%%%%%%%%%%%%%%%%%%%%========--------                                                                        ",
"========%%%%%%%%%%%%%%%%%%%%%%%%%%%%%%%%========--------                                                                        ",
"========%%%%%%%%%%%%%%%%%%%%%%%%%%%%%%%%========--------                                                                        ",
"========%%%%%%%%%%%%%%%%%%%%%%%%%%%%%%%%========--------                                                                        ",
"========%%%%%%%%%%%%%%%%%%%%%%%%%%%%%%%%========--------                                                                        ",
"========%%%%%%%%%%%%%%%%%%%%%%%%%%%%%%%%========--------                                                                        ",
"========%%%%%%%%%%%%%%%%%%%%%%%%%%%%%%%%========--------                                                                        ",
"========%%%%%%%%%%%%%%%%%%%%%%%%%%%%%%%%========--------                                                                        ",
"========%%%%%%%%%%%%%%%%%%%%%%%%%%%%%%%%========--------                                                                        ",
"========%%%%%%%%%%%%%%%%%%%%%%%%%%%%%%%%========--------                                                                        ",
"========%%%%%%%%%%%%%%%%%%%%%%%%%%%%%%%%========--------                                                                        ",
"========%%%%%%%%%%%%%%%%%%%%%%%%%%%%%%%%========--------                                                                        ",
"========%%%%%%%%%%%%%%%%%%%%%%%%%%%%%%%%========--------                                                                        ",
"========%%%%%%%%%%%%%%%%%%%%%%%%%%%%%%%%========--------                                                                        ",
"========%%%%%%%%%%%%%%%%%%%%%%%%%%%%%%%%========--------                                                                        ",
"========%%%%%%%%%%%%%%%%%%%%%%%%%%%%%%%%========--------                                                                        ",
"================================================--------                                                                        ",
"================================================--------                                                                        ",
"================================================--------                                                                        ",
"================================================--------                                                                        ",
"================================================--------                                                                        ",
"================================================--------                                                                        ",
"================================================--------                                                                        ",
"================================================--------                                                                        ",
"........;;;;;;;;;;;;;;;;;;;;;;;;;;;;;;;;>>>>>>>>--------                                                                        ",
"........;;;;;;;;;;;;;;;;;;;;;;;;;;;;;;;;>>>>>>>>--------                                                                        ",
"........;;;;;;;;;;;;;;;;;;;;;;;;;;;;;;;;>>>>>>>>--------                                                                        ",
"........;;;;;;;;;;;;;;;;;;;;;;;;;;;;;;;;>>>>>>>>--------                                                                        ",
"........;;;;;;;;;;;;;;;;;;;;;;;;;;;;;;;;>>>>>>>>--------                                                                        ",
"........;;;;;;;;;;;;;;;;;;;;;;;;;;;;;;;;>>>>>>>>--------                                                                        ",
"........;;;;;;;;;;;;;;;;;;;;;;;;;;;;;;;;>>>>>>>>--------                                                                        ",
"........;;;;;;;;;;;;;;;;;;;;;;;;;;;;;;;;>>>>>>>>--------                                                                        ",
"========%%%%%%%%%%%%%%%%%%%%%%%%%%%%%%%%========--------                                                                        ",
"========%%%%%%%%%%%%%%%%%%%%%%%%%%%%%%%%========--------                                                                        ",
"========%%%%%%%%%%%%%%%%%%%%%%%%%%%%%%%%========--------                                                                        ",
"========%%%%%%%%%%%%%%%%%%%%%%%%%%%%%%%%========--------                                                                        ",
"========%%%%%%%%%%%%%%%%%%%%%%%%%%%%%%%%========--------                                                                        ",
"========%%%%%%%%%%%%%%%%%%%%%%%%%%%%%%%%========--------                                                                        ",
"========%%%%%%%%%%%%%%%%%%%%%%%%%%%%%%%%========--------                                                                        ",
"========%%%%%%%%%%%%%%%%%%%%%%%%%%%%%%%%========--------                                                                        ",
"========%%%%%%%%%%%%%%%%%%%%%%%%%%%%%%%%========--------                                                                        ",
"========%%%%%%%%%%%%%%%%%%%%%%%%%%%%%%%%========--------                                                                        ",
"========%%%%%%%%%%%%%%%%%%%%%%%%%%%%%%%%========--------                                                                        ",
"========%%%%%%%%%%%%%%%%%%%%%%%%%%%%%%%%========--------                                                                        ",
"========%%%%%%%%%%%%%%%%%%%%%%%%%%%%%%%%========--------                                                                        ",
"========%%%%%%%%%%%%%%%%%%%%%%%%%%%%%%%%========--------                                                                        ",
"========%%%%%%%%%%%%%%%%%%%%%%%%%%%%%%%%========--------                                                                        ",
"========%%%%%%%%%%%%%%%%%%%%%%%%%%%%%%%%========--------                                                                        ",
"========%%%%%%%%%%%%%%%%%%%%%%%%%%%%%%%%========--------                                                                        ",
"========%%%%%%%%%%%%%%%%%%%%%%%%%%%%%%%%========--------                                                                        ",
"========%%%%%%%%%%%%%%%%%%%%%%%%%%%%%%%%========--------                                                                        ",
"========%%%%%%%%%%%%%%%%%%%%%%%%%%%%%%%%========--------                                                                        ",
"========%%%%%%%%%%%%%%%%%%%%%%%%%%%%%%%%========--------                                                                        ",
"========%%%%%%%%%%%%%%%%%%%%%%%%%%%%%%%%========--------                                                                        ",
"========%%%%%%%%%%%%%%%%%%%%%%%%%%%%%%%%========--------                                                                        ",
"========%%%%%%%%%%%%%%%%%%%%%%%%%%%%%%%%========--------                                                                        ",
"========%%%%%%%%%%%%%%%%%%%%%%%%%%%%%%%%========--------                                                                        ",
"========%%%%%%%%%%%%%%%%%%%%%%%%%%%%%%%%========--------                                                                        ",
"========%%%%%%%%%%%%%%%%%%%%%%%%%%%%%%%%========--------                                                                        ",
"========%%%%%%%%%%%%%%%%%%%%%%%%%%%%%%%%========--------                                                                        ",
"========%%%%%%%%%%%%%%%%%%%%%%%%%%%%%%%%========--------                                                                        ",
"========%%%%%%%%%%%%%%%%%%%%%%%%%%%%%%%%========--------                                                                        ",
"========%%%%%%%%%%%%%%%%%%%%%%%%%%%%%%%%========--------                                                                        ",
"========%%%%%%%%%%%%%%%%%%%%%%%%%%%%%%%%========--------                                                                        ",
"========%%%%%%%%%%%%%%%%%%%%%%%%%%%%%%%%========--------                                                                        ",
"========%%%%%%%%%%%%%%%%%%%%%%%%%%%%%%%%========--------                                                                        ",
"========%%%%%%%%%%%%%%%%%%%%%%%%%%%%%%%%========--------                                                                        ",
"========%%%%%%%%%%%%%%%%%%%%%%%%%%%%%%%%========--------                                                                        ",
"========%%%%%%%%%%%%%%%%%%%%%%%%%%%%%%%%========--------                                                                        ",
"========%%%%%%%%%%%%%%%%%%%%%%%%%%%%%%%%========--------                                                                        ",
"========%%%%%%%%%%%%%%%%%%%%%%%%%%%%%%%%========--------                                                                        ",
"========%%%%%%%%%%%%%%%%%%%%%%%%%%%%%%%%========--------                                                                        "};
