/* XPM */
static char * C:\Users\ivan\Desktop\sprites\muro_exterior_arriba_izquierda_xpm[] = {
"128 128 16 1",
" 	c None",
".	c #5A3C29",
"+	c #5C402D",
"@	c #777064",
"#	c #787165",
"$	c #918F87",
"%	c #868579",
"&	c #766F63",
"*	c #767064",
"=	c #736B5F",
"-	c #8F8E84",
";	c #94928A",
">	c #5B3C29",
",	c #94928B",
"'	c #4F2913",
")	c #655444",
"                                                                                        ................................++++++++",
"                                                                                        ................................++++++++",
"                                                                                        ................................++++++++",
"                                                                                        ................................++++++++",
"                                                                                        ................................++++++++",
"                                                                                        ................................++++++++",
"                                                                                        ................................++++++++",
"                                                                                        ................................++++++++",
"                                                                                ........@@@@@@@@########$$$$$$$$%%%%%%%%%%%%%%%%",
"                                                                                ........@@@@@@@@########$$$$$$$$%%%%%%%%%%%%%%%%",
"                                                                                ........@@@@@@@@########$$$$$$$$%%%%%%%%%%%%%%%%",
"                                                                                ........@@@@@@@@########$$$$$$$$%%%%%%%%%%%%%%%%",
"                                                                                ........@@@@@@@@########$$$$$$$$%%%%%%%%%%%%%%%%",
"                                                                                ........@@@@@@@@########$$$$$$$$%%%%%%%%%%%%%%%%",
"                                                                                ........@@@@@@@@########$$$$$$$$%%%%%%%%%%%%%%%%",
"                                                                                ........@@@@@@@@########$$$$$$$$%%%%%%%%%%%%%%%%",
"                                                                        ........&&&&&&&&********$$$$$$$$%%%%%%%%%%%%%%%%%%%%%%%%",
"                                                                        ........&&&&&&&&********$$$$$$$$%%%%%%%%%%%%%%%%%%%%%%%%",
"                                                                        ........&&&&&&&&********$$$$$$$$%%%%%%%%%%%%%%%%%%%%%%%%",
"                                                                        ........&&&&&&&&********$$$$$$$$%%%%%%%%%%%%%%%%%%%%%%%%",
"                                                                        ........&&&&&&&&********$$$$$$$$%%%%%%%%%%%%%%%%%%%%%%%%",
"                                                                        ........&&&&&&&&********$$$$$$$$%%%%%%%%%%%%%%%%%%%%%%%%",
"                                                                        ........&&&&&&&&********$$$$$$$$%%%%%%%%%%%%%%%%%%%%%%%%",
"                                                                        ........&&&&&&&&********$$$$$$$$%%%%%%%%%%%%%%%%%%%%%%%%",
"                                                                        ........========--------%%%%%%%%%%%%%%%%%%%%%%%%%%%%%%%%",
"                                                                        ........========--------%%%%%%%%%%%%%%%%%%%%%%%%%%%%%%%%",
"                                                                        ........========--------%%%%%%%%%%%%%%%%%%%%%%%%%%%%%%%%",
"                                                                        ........========--------%%%%%%%%%%%%%%%%%%%%%%%%%%%%%%%%",
"                                                                        ........========--------%%%%%%%%%%%%%%%%%%%%%%%%%%%%%%%%",
"                                                                        ........========--------%%%%%%%%%%%%%%%%%%%%%%%%%%%%%%%%",
"                                                                        ........========--------%%%%%%%%%%%%%%%%%%%%%%%%%%%%%%%%",
"                                                                        ........========--------%%%%%%%%%%%%%%%%%%%%%%%%%%%%%%%%",
"                                                                        ........;;;;;;;;%%%%%%%%%%%%%%%%%%%%%%%%%%%%%%%%%%%%%%%%",
"                                                                        ........;;;;;;;;%%%%%%%%%%%%%%%%%%%%%%%%%%%%%%%%%%%%%%%%",
"                                                                        ........;;;;;;;;%%%%%%%%%%%%%%%%%%%%%%%%%%%%%%%%%%%%%%%%",
"                                                                        ........;;;;;;;;%%%%%%%%%%%%%%%%%%%%%%%%%%%%%%%%%%%%%%%%",
"                                                                        ........;;;;;;;;%%%%%%%%%%%%%%%%%%%%%%%%%%%%%%%%%%%%%%%%",
"                                                                        ........;;;;;;;;%%%%%%%%%%%%%%%%%%%%%%%%%%%%%%%%%%%%%%%%",
"                                                                        ........;;;;;;;;%%%%%%%%%%%%%%%%%%%%%%%%%%%%%%%%%%%%%%%%",
"                                                                        ........;;;;;;;;%%%%%%%%%%%%%%%%%%%%%%%%%%%%%%%%%%%%%%%%",
"                                                                        >>>>>>>>,,,,,,,,%%%%%%%%%%%%%%%%%%%%%%%%%%%%%%%%,,,,,,,,",
"                                                                        >>>>>>>>,,,,,,,,%%%%%%%%%%%%%%%%%%%%%%%%%%%%%%%%,,,,,,,,",
"                                                                        >>>>>>>>,,,,,,,,%%%%%%%%%%%%%%%%%%%%%%%%%%%%%%%%,,,,,,,,",
"                                                                        >>>>>>>>,,,,,,,,%%%%%%%%%%%%%%%%%%%%%%%%%%%%%%%%,,,,,,,,",
"                                                                        >>>>>>>>,,,,,,,,%%%%%%%%%%%%%%%%%%%%%%%%%%%%%%%%,,,,,,,,",
"                                                                        >>>>>>>>,,,,,,,,%%%%%%%%%%%%%%%%%%%%%%%%%%%%%%%%,,,,,,,,",
"                                                                        >>>>>>>>,,,,,,,,%%%%%%%%%%%%%%%%%%%%%%%%%%%%%%%%,,,,,,,,",
"                                                                        >>>>>>>>,,,,,,,,%%%%%%%%%%%%%%%%%%%%%%%%%%%%%%%%,,,,,,,,",
"                                                                        ''''''''%%%%%%%%%%%%%%%%%%%%%%%%%%%%%%%%%%%%%%%%,,,,,,,,",
"                                                                        ''''''''%%%%%%%%%%%%%%%%%%%%%%%%%%%%%%%%%%%%%%%%,,,,,,,,",
"                                                                        ''''''''%%%%%%%%%%%%%%%%%%%%%%%%%%%%%%%%%%%%%%%%,,,,,,,,",
"                                                                        ''''''''%%%%%%%%%%%%%%%%%%%%%%%%%%%%%%%%%%%%%%%%,,,,,,,,",
"                                                                        ''''''''%%%%%%%%%%%%%%%%%%%%%%%%%%%%%%%%%%%%%%%%,,,,,,,,",
"                                                                        ''''''''%%%%%%%%%%%%%%%%%%%%%%%%%%%%%%%%%%%%%%%%,,,,,,,,",
"                                                                        ''''''''%%%%%%%%%%%%%%%%%%%%%%%%%%%%%%%%%%%%%%%%,,,,,,,,",
"                                                                        ''''''''%%%%%%%%%%%%%%%%%%%%%%%%%%%%%%%%%%%%%%%%,,,,,,,,",
"                                                                        ''''''''%%%%%%%%%%%%%%%%%%%%%%%%%%%%%%%%%%%%%%%%,,,,,,,,",
"                                                                        ''''''''%%%%%%%%%%%%%%%%%%%%%%%%%%%%%%%%%%%%%%%%,,,,,,,,",
"                                                                        ''''''''%%%%%%%%%%%%%%%%%%%%%%%%%%%%%%%%%%%%%%%%,,,,,,,,",
"                                                                        ''''''''%%%%%%%%%%%%%%%%%%%%%%%%%%%%%%%%%%%%%%%%,,,,,,,,",
"                                                                        ''''''''%%%%%%%%%%%%%%%%%%%%%%%%%%%%%%%%%%%%%%%%,,,,,,,,",
"                                                                        ''''''''%%%%%%%%%%%%%%%%%%%%%%%%%%%%%%%%%%%%%%%%,,,,,,,,",
"                                                                        ''''''''%%%%%%%%%%%%%%%%%%%%%%%%%%%%%%%%%%%%%%%%,,,,,,,,",
"                                                                        ''''''''%%%%%%%%%%%%%%%%%%%%%%%%%%%%%%%%%%%%%%%%,,,,,,,,",
"                                                                        ''''''''%%%%%%%%%%%%%%%%%%%%%%%%%%%%%%%%%%%%%%%%,,,,,,,,",
"                                                                        ''''''''%%%%%%%%%%%%%%%%%%%%%%%%%%%%%%%%%%%%%%%%,,,,,,,,",
"                                                                        ''''''''%%%%%%%%%%%%%%%%%%%%%%%%%%%%%%%%%%%%%%%%,,,,,,,,",
"                                                                        ''''''''%%%%%%%%%%%%%%%%%%%%%%%%%%%%%%%%%%%%%%%%,,,,,,,,",
"                                                                        ''''''''%%%%%%%%%%%%%%%%%%%%%%%%%%%%%%%%%%%%%%%%,,,,,,,,",
"                                                                        ''''''''%%%%%%%%%%%%%%%%%%%%%%%%%%%%%%%%%%%%%%%%,,,,,,,,",
"                                                                        ''''''''%%%%%%%%%%%%%%%%%%%%%%%%%%%%%%%%%%%%%%%%,,,,,,,,",
"                                                                        ''''''''%%%%%%%%%%%%%%%%%%%%%%%%%%%%%%%%%%%%%%%%,,,,,,,,",
"                                                                        '''''''',,,,,,,,,,,,,,,,,,,,,,,,,,,,,,,,,,,,,,,,,,,,,,,,",
"                                                                        '''''''',,,,,,,,,,,,,,,,,,,,,,,,,,,,,,,,,,,,,,,,,,,,,,,,",
"                                                                        '''''''',,,,,,,,,,,,,,,,,,,,,,,,,,,,,,,,,,,,,,,,,,,,,,,,",
"                                                                        '''''''',,,,,,,,,,,,,,,,,,,,,,,,,,,,,,,,,,,,,,,,,,,,,,,,",
"                                                                        '''''''',,,,,,,,,,,,,,,,,,,,,,,,,,,,,,,,,,,,,,,,,,,,,,,,",
"                                                                        '''''''',,,,,,,,,,,,,,,,,,,,,,,,,,,,,,,,,,,,,,,,,,,,,,,,",
"                                                                        '''''''',,,,,,,,,,,,,,,,,,,,,,,,,,,,,,,,,,,,,,,,,,,,,,,,",
"                                                                        '''''''',,,,,,,,,,,,,,,,,,,,,,,,,,,,,,,,,,,,,,,,,,,,,,,,",
"                                                                        ''''''''''''''''))))))))))))))))))))))))))))))))''''''''",
"                                                                        ''''''''''''''''))))))))))))))))))))))))))))))))''''''''",
"                                                                        ''''''''''''''''))))))))))))))))))))))))))))))))''''''''",
"                                                                        ''''''''''''''''))))))))))))))))))))))))))))))))''''''''",
"                                                                        ''''''''''''''''))))))))))))))))))))))))))))))))''''''''",
"                                                                        ''''''''''''''''))))))))))))))))))))))))))))))))''''''''",
"                                                                        ''''''''''''''''))))))))))))))))))))))))))))))))''''''''",
"                                                                        ''''''''''''''''))))))))))))))))))))))))))))))))''''''''",
"                                                                        ''''''''%%%%%%%%%%%%%%%%%%%%%%%%%%%%%%%%%%%%%%%%,,,,,,,,",
"                                                                        ''''''''%%%%%%%%%%%%%%%%%%%%%%%%%%%%%%%%%%%%%%%%,,,,,,,,",
"                                                                        ''''''''%%%%%%%%%%%%%%%%%%%%%%%%%%%%%%%%%%%%%%%%,,,,,,,,",
"                                                                        ''''''''%%%%%%%%%%%%%%%%%%%%%%%%%%%%%%%%%%%%%%%%,,,,,,,,",
"                                                                        ''''''''%%%%%%%%%%%%%%%%%%%%%%%%%%%%%%%%%%%%%%%%,,,,,,,,",
"                                                                        ''''''''%%%%%%%%%%%%%%%%%%%%%%%%%%%%%%%%%%%%%%%%,,,,,,,,",
"                                                                        ''''''''%%%%%%%%%%%%%%%%%%%%%%%%%%%%%%%%%%%%%%%%,,,,,,,,",
"                                                                        ''''''''%%%%%%%%%%%%%%%%%%%%%%%%%%%%%%%%%%%%%%%%,,,,,,,,",
"                                                                        ''''''''%%%%%%%%%%%%%%%%%%%%%%%%%%%%%%%%%%%%%%%%,,,,,,,,",
"                                                                        ''''''''%%%%%%%%%%%%%%%%%%%%%%%%%%%%%%%%%%%%%%%%,,,,,,,,",
"                                                                        ''''''''%%%%%%%%%%%%%%%%%%%%%%%%%%%%%%%%%%%%%%%%,,,,,,,,",
"                                                                        ''''''''%%%%%%%%%%%%%%%%%%%%%%%%%%%%%%%%%%%%%%%%,,,,,,,,",
"                                                                        ''''''''%%%%%%%%%%%%%%%%%%%%%%%%%%%%%%%%%%%%%%%%,,,,,,,,",
"                                                                        ''''''''%%%%%%%%%%%%%%%%%%%%%%%%%%%%%%%%%%%%%%%%,,,,,,,,",
"                                                                        ''''''''%%%%%%%%%%%%%%%%%%%%%%%%%%%%%%%%%%%%%%%%,,,,,,,,",
"                                                                        ''''''''%%%%%%%%%%%%%%%%%%%%%%%%%%%%%%%%%%%%%%%%,,,,,,,,",
"                                                                        ''''''''%%%%%%%%%%%%%%%%%%%%%%%%%%%%%%%%%%%%%%%%,,,,,,,,",
"                                                                        ''''''''%%%%%%%%%%%%%%%%%%%%%%%%%%%%%%%%%%%%%%%%,,,,,,,,",
"                                                                        ''''''''%%%%%%%%%%%%%%%%%%%%%%%%%%%%%%%%%%%%%%%%,,,,,,,,",
"                                                                        ''''''''%%%%%%%%%%%%%%%%%%%%%%%%%%%%%%%%%%%%%%%%,,,,,,,,",
"                                                                        ''''''''%%%%%%%%%%%%%%%%%%%%%%%%%%%%%%%%%%%%%%%%,,,,,,,,",
"                                                                        ''''''''%%%%%%%%%%%%%%%%%%%%%%%%%%%%%%%%%%%%%%%%,,,,,,,,",
"                                                                        ''''''''%%%%%%%%%%%%%%%%%%%%%%%%%%%%%%%%%%%%%%%%,,,,,,,,",
"                                                                        ''''''''%%%%%%%%%%%%%%%%%%%%%%%%%%%%%%%%%%%%%%%%,,,,,,,,",
"                                                                        ''''''''%%%%%%%%%%%%%%%%%%%%%%%%%%%%%%%%%%%%%%%%,,,,,,,,",
"                                                                        ''''''''%%%%%%%%%%%%%%%%%%%%%%%%%%%%%%%%%%%%%%%%,,,,,,,,",
"                                                                        ''''''''%%%%%%%%%%%%%%%%%%%%%%%%%%%%%%%%%%%%%%%%,,,,,,,,",
"                                                                        ''''''''%%%%%%%%%%%%%%%%%%%%%%%%%%%%%%%%%%%%%%%%,,,,,,,,",
"                                                                        ''''''''%%%%%%%%%%%%%%%%%%%%%%%%%%%%%%%%%%%%%%%%,,,,,,,,",
"                                                                        ''''''''%%%%%%%%%%%%%%%%%%%%%%%%%%%%%%%%%%%%%%%%,,,,,,,,",
"                                                                        ''''''''%%%%%%%%%%%%%%%%%%%%%%%%%%%%%%%%%%%%%%%%,,,,,,,,",
"                                                                        ''''''''%%%%%%%%%%%%%%%%%%%%%%%%%%%%%%%%%%%%%%%%,,,,,,,,",
"                                                                        ''''''''%%%%%%%%%%%%%%%%%%%%%%%%%%%%%%%%%%%%%%%%,,,,,,,,",
"                                                                        ''''''''%%%%%%%%%%%%%%%%%%%%%%%%%%%%%%%%%%%%%%%%,,,,,,,,",
"                                                                        ''''''''%%%%%%%%%%%%%%%%%%%%%%%%%%%%%%%%%%%%%%%%,,,,,,,,",
"                                                                        ''''''''%%%%%%%%%%%%%%%%%%%%%%%%%%%%%%%%%%%%%%%%,,,,,,,,",
"                                                                        ''''''''%%%%%%%%%%%%%%%%%%%%%%%%%%%%%%%%%%%%%%%%,,,,,,,,",
"                                                                        ''''''''%%%%%%%%%%%%%%%%%%%%%%%%%%%%%%%%%%%%%%%%,,,,,,,,",
"                                                                        ''''''''%%%%%%%%%%%%%%%%%%%%%%%%%%%%%%%%%%%%%%%%,,,,,,,,",
"                                                                        ''''''''%%%%%%%%%%%%%%%%%%%%%%%%%%%%%%%%%%%%%%%%,,,,,,,,"};
