/* XPM */
static char * C:\Users\ivan\Desktop\sprites\muro_exterior_izquierda_xpm[] = {
"128 128 5 1",
" 	c None",
".	c #4F2913",
"+	c #868579",
"@	c #94928B",
"#	c #655444",
"                                                                        ........++++++++++++++++++++++++++++++++++++++++@@@@@@@@",
"                                                                        ........++++++++++++++++++++++++++++++++++++++++@@@@@@@@",
"                                                                        ........++++++++++++++++++++++++++++++++++++++++@@@@@@@@",
"                                                                        ........++++++++++++++++++++++++++++++++++++++++@@@@@@@@",
"                                                                        ........++++++++++++++++++++++++++++++++++++++++@@@@@@@@",
"                                                                        ........++++++++++++++++++++++++++++++++++++++++@@@@@@@@",
"                                                                        ........++++++++++++++++++++++++++++++++++++++++@@@@@@@@",
"                                                                        ........++++++++++++++++++++++++++++++++++++++++@@@@@@@@",
"                                                                        ........++++++++++++++++++++++++++++++++++++++++@@@@@@@@",
"                                                                        ........++++++++++++++++++++++++++++++++++++++++@@@@@@@@",
"                                                                        ........++++++++++++++++++++++++++++++++++++++++@@@@@@@@",
"                                                                        ........++++++++++++++++++++++++++++++++++++++++@@@@@@@@",
"                                                                        ........++++++++++++++++++++++++++++++++++++++++@@@@@@@@",
"                                                                        ........++++++++++++++++++++++++++++++++++++++++@@@@@@@@",
"                                                                        ........++++++++++++++++++++++++++++++++++++++++@@@@@@@@",
"                                                                        ........++++++++++++++++++++++++++++++++++++++++@@@@@@@@",
"                                                                        ........++++++++++++++++++++++++++++++++++++++++@@@@@@@@",
"                                                                        ........++++++++++++++++++++++++++++++++++++++++@@@@@@@@",
"                                                                        ........++++++++++++++++++++++++++++++++++++++++@@@@@@@@",
"                                                                        ........++++++++++++++++++++++++++++++++++++++++@@@@@@@@",
"                                                                        ........++++++++++++++++++++++++++++++++++++++++@@@@@@@@",
"                                                                        ........++++++++++++++++++++++++++++++++++++++++@@@@@@@@",
"                                                                        ........++++++++++++++++++++++++++++++++++++++++@@@@@@@@",
"                                                                        ........++++++++++++++++++++++++++++++++++++++++@@@@@@@@",
"                                                                        ........++++++++++++++++++++++++++++++++++++++++@@@@@@@@",
"                                                                        ........++++++++++++++++++++++++++++++++++++++++@@@@@@@@",
"                                                                        ........++++++++++++++++++++++++++++++++++++++++@@@@@@@@",
"                                                                        ........++++++++++++++++++++++++++++++++++++++++@@@@@@@@",
"                                                                        ........++++++++++++++++++++++++++++++++++++++++@@@@@@@@",
"                                                                        ........++++++++++++++++++++++++++++++++++++++++@@@@@@@@",
"                                                                        ........++++++++++++++++++++++++++++++++++++++++@@@@@@@@",
"                                                                        ........++++++++++++++++++++++++++++++++++++++++@@@@@@@@",
"                                                                        ........++++++++++++++++++++++++++++++++++++++++@@@@@@@@",
"                                                                        ........++++++++++++++++++++++++++++++++++++++++@@@@@@@@",
"                                                                        ........++++++++++++++++++++++++++++++++++++++++@@@@@@@@",
"                                                                        ........++++++++++++++++++++++++++++++++++++++++@@@@@@@@",
"                                                                        ........++++++++++++++++++++++++++++++++++++++++@@@@@@@@",
"                                                                        ........++++++++++++++++++++++++++++++++++++++++@@@@@@@@",
"                                                                        ........++++++++++++++++++++++++++++++++++++++++@@@@@@@@",
"                                                                        ........++++++++++++++++++++++++++++++++++++++++@@@@@@@@",
"                                                                        ........++++++++++++++++++++++++++++++++++++++++@@@@@@@@",
"                                                                        ........++++++++++++++++++++++++++++++++++++++++@@@@@@@@",
"                                                                        ........++++++++++++++++++++++++++++++++++++++++@@@@@@@@",
"                                                                        ........++++++++++++++++++++++++++++++++++++++++@@@@@@@@",
"                                                                        ........++++++++++++++++++++++++++++++++++++++++@@@@@@@@",
"                                                                        ........++++++++++++++++++++++++++++++++++++++++@@@@@@@@",
"                                                                        ........++++++++++++++++++++++++++++++++++++++++@@@@@@@@",
"                                                                        ........++++++++++++++++++++++++++++++++++++++++@@@@@@@@",
"                                                                        ........@@@@@@@@@@@@@@@@@@@@@@@@@@@@@@@@@@@@@@@@@@@@@@@@",
"                                                                        ........@@@@@@@@@@@@@@@@@@@@@@@@@@@@@@@@@@@@@@@@@@@@@@@@",
"                                                                        ........@@@@@@@@@@@@@@@@@@@@@@@@@@@@@@@@@@@@@@@@@@@@@@@@",
"                                                                        ........@@@@@@@@@@@@@@@@@@@@@@@@@@@@@@@@@@@@@@@@@@@@@@@@",
"                                                                        ........@@@@@@@@@@@@@@@@@@@@@@@@@@@@@@@@@@@@@@@@@@@@@@@@",
"                                                                        ........@@@@@@@@@@@@@@@@@@@@@@@@@@@@@@@@@@@@@@@@@@@@@@@@",
"                                                                        ........@@@@@@@@@@@@@@@@@@@@@@@@@@@@@@@@@@@@@@@@@@@@@@@@",
"                                                                        ........@@@@@@@@@@@@@@@@@@@@@@@@@@@@@@@@@@@@@@@@@@@@@@@@",
"                                                                        ................################################........",
"                                                                        ................################################........",
"                                                                        ................################################........",
"                                                                        ................################################........",
"                                                                        ................################################........",
"                                                                        ................################################........",
"                                                                        ................################################........",
"                                                                        ................################################........",
"                                                                        ........++++++++++++++++++++++++++++++++++++++++@@@@@@@@",
"                                                                        ........++++++++++++++++++++++++++++++++++++++++@@@@@@@@",
"                                                                        ........++++++++++++++++++++++++++++++++++++++++@@@@@@@@",
"                                                                        ........++++++++++++++++++++++++++++++++++++++++@@@@@@@@",
"                                                                        ........++++++++++++++++++++++++++++++++++++++++@@@@@@@@",
"                                                                        ........++++++++++++++++++++++++++++++++++++++++@@@@@@@@",
"                                                                        ........++++++++++++++++++++++++++++++++++++++++@@@@@@@@",
"                                                                        ........++++++++++++++++++++++++++++++++++++++++@@@@@@@@",
"                                                                        ........++++++++++++++++++++++++++++++++++++++++@@@@@@@@",
"                                                                        ........++++++++++++++++++++++++++++++++++++++++@@@@@@@@",
"                                                                        ........++++++++++++++++++++++++++++++++++++++++@@@@@@@@",
"                                                                        ........++++++++++++++++++++++++++++++++++++++++@@@@@@@@",
"                                                                        ........++++++++++++++++++++++++++++++++++++++++@@@@@@@@",
"                                                                        ........++++++++++++++++++++++++++++++++++++++++@@@@@@@@",
"                                                                        ........++++++++++++++++++++++++++++++++++++++++@@@@@@@@",
"                                                                        ........++++++++++++++++++++++++++++++++++++++++@@@@@@@@",
"                                                                        ........++++++++++++++++++++++++++++++++++++++++@@@@@@@@",
"                                                                        ........++++++++++++++++++++++++++++++++++++++++@@@@@@@@",
"                                                                        ........++++++++++++++++++++++++++++++++++++++++@@@@@@@@",
"                                                                        ........++++++++++++++++++++++++++++++++++++++++@@@@@@@@",
"                                                                        ........++++++++++++++++++++++++++++++++++++++++@@@@@@@@",
"                                                                        ........++++++++++++++++++++++++++++++++++++++++@@@@@@@@",
"                                                                        ........++++++++++++++++++++++++++++++++++++++++@@@@@@@@",
"                                                                        ........++++++++++++++++++++++++++++++++++++++++@@@@@@@@",
"                                                                        ........++++++++++++++++++++++++++++++++++++++++@@@@@@@@",
"                                                                        ........++++++++++++++++++++++++++++++++++++++++@@@@@@@@",
"                                                                        ........++++++++++++++++++++++++++++++++++++++++@@@@@@@@",
"                                                                        ........++++++++++++++++++++++++++++++++++++++++@@@@@@@@",
"                                                                        ........++++++++++++++++++++++++++++++++++++++++@@@@@@@@",
"                                                                        ........++++++++++++++++++++++++++++++++++++++++@@@@@@@@",
"                                                                        ........++++++++++++++++++++++++++++++++++++++++@@@@@@@@",
"                                                                        ........++++++++++++++++++++++++++++++++++++++++@@@@@@@@",
"                                                                        ........++++++++++++++++++++++++++++++++++++++++@@@@@@@@",
"                                                                        ........++++++++++++++++++++++++++++++++++++++++@@@@@@@@",
"                                                                        ........++++++++++++++++++++++++++++++++++++++++@@@@@@@@",
"                                                                        ........++++++++++++++++++++++++++++++++++++++++@@@@@@@@",
"                                                                        ........++++++++++++++++++++++++++++++++++++++++@@@@@@@@",
"                                                                        ........++++++++++++++++++++++++++++++++++++++++@@@@@@@@",
"                                                                        ........++++++++++++++++++++++++++++++++++++++++@@@@@@@@",
"                                                                        ........++++++++++++++++++++++++++++++++++++++++@@@@@@@@",
"                                                                        ........++++++++++++++++++++++++++++++++++++++++@@@@@@@@",
"                                                                        ........++++++++++++++++++++++++++++++++++++++++@@@@@@@@",
"                                                                        ........++++++++++++++++++++++++++++++++++++++++@@@@@@@@",
"                                                                        ........++++++++++++++++++++++++++++++++++++++++@@@@@@@@",
"                                                                        ........++++++++++++++++++++++++++++++++++++++++@@@@@@@@",
"                                                                        ........++++++++++++++++++++++++++++++++++++++++@@@@@@@@",
"                                                                        ........++++++++++++++++++++++++++++++++++++++++@@@@@@@@",
"                                                                        ........++++++++++++++++++++++++++++++++++++++++@@@@@@@@",
"                                                                        ........++++++++++++++++++++++++++++++++++++++++@@@@@@@@",
"                                                                        ........++++++++++++++++++++++++++++++++++++++++@@@@@@@@",
"                                                                        ........++++++++++++++++++++++++++++++++++++++++@@@@@@@@",
"                                                                        ........++++++++++++++++++++++++++++++++++++++++@@@@@@@@",
"                                                                        ........++++++++++++++++++++++++++++++++++++++++@@@@@@@@",
"                                                                        ........++++++++++++++++++++++++++++++++++++++++@@@@@@@@",
"                                                                        ........++++++++++++++++++++++++++++++++++++++++@@@@@@@@",
"                                                                        ........++++++++++++++++++++++++++++++++++++++++@@@@@@@@",
"                                                                        ........++++++++++++++++++++++++++++++++++++++++@@@@@@@@",
"                                                                        ........++++++++++++++++++++++++++++++++++++++++@@@@@@@@",
"                                                                        ........++++++++++++++++++++++++++++++++++++++++@@@@@@@@",
"                                                                        ........++++++++++++++++++++++++++++++++++++++++@@@@@@@@",
"                                                                        ........++++++++++++++++++++++++++++++++++++++++@@@@@@@@",
"                                                                        ........++++++++++++++++++++++++++++++++++++++++@@@@@@@@",
"                                                                        ........++++++++++++++++++++++++++++++++++++++++@@@@@@@@",
"                                                                        ........++++++++++++++++++++++++++++++++++++++++@@@@@@@@"};
