/* XPM */
static char * C:\Users\ivan\Desktop\sprites\muro_exterior_arriba_xpm[] = {
"128 128 24 1",
" 	c None",
".	c #5A3B27",
"+	c #868579",
"@	c #8B8A7F",
"#	c #604734",
"$	c #634D3C",
"%	c #675545",
"&	c #94928B",
"*	c #99978F",
"=	c #675544",
"-	c #6C685E",
";	c #6D685F",
">	c #5B4231",
",	c #6C675E",
"'	c #6A655C",
")	c #69645B",
"!	c #53321E",
"~	c #69635B",
"{	c #68635A",
"]	c #676159",
"^	c #676259",
"/	c #68625A",
"(	c #4F2913",
"_	c #72751B",
"................................................................        ........................................................",
"................................................................        ........................................................",
"................................................................        ........................................................",
"................................................................        ........................................................",
"................................................................        ........................................................",
"................................................................        ........................................................",
"................................................................        ........................................................",
"................................................................        ........................................................",
"++++++++++++++++++++++++++++++++++++++++++++++++++++++++@@@@@@@@########@@@@@@@@++++++++++++++++++++++++++++++++++++++++++++++++",
"++++++++++++++++++++++++++++++++++++++++++++++++++++++++@@@@@@@@########@@@@@@@@++++++++++++++++++++++++++++++++++++++++++++++++",
"++++++++++++++++++++++++++++++++++++++++++++++++++++++++@@@@@@@@########@@@@@@@@++++++++++++++++++++++++++++++++++++++++++++++++",
"++++++++++++++++++++++++++++++++++++++++++++++++++++++++@@@@@@@@########@@@@@@@@++++++++++++++++++++++++++++++++++++++++++++++++",
"++++++++++++++++++++++++++++++++++++++++++++++++++++++++@@@@@@@@########@@@@@@@@++++++++++++++++++++++++++++++++++++++++++++++++",
"++++++++++++++++++++++++++++++++++++++++++++++++++++++++@@@@@@@@########@@@@@@@@++++++++++++++++++++++++++++++++++++++++++++++++",
"++++++++++++++++++++++++++++++++++++++++++++++++++++++++@@@@@@@@########@@@@@@@@++++++++++++++++++++++++++++++++++++++++++++++++",
"++++++++++++++++++++++++++++++++++++++++++++++++++++++++@@@@@@@@########@@@@@@@@++++++++++++++++++++++++++++++++++++++++++++++++",
"++++++++++++++++++++++++++++++++++++++++++++++++++++++++@@@@@@@@$$$$$$$$@@@@@@@@++++++++++++++++++++++++++++++++++++++++++++++++",
"++++++++++++++++++++++++++++++++++++++++++++++++++++++++@@@@@@@@$$$$$$$$@@@@@@@@++++++++++++++++++++++++++++++++++++++++++++++++",
"++++++++++++++++++++++++++++++++++++++++++++++++++++++++@@@@@@@@$$$$$$$$@@@@@@@@++++++++++++++++++++++++++++++++++++++++++++++++",
"++++++++++++++++++++++++++++++++++++++++++++++++++++++++@@@@@@@@$$$$$$$$@@@@@@@@++++++++++++++++++++++++++++++++++++++++++++++++",
"++++++++++++++++++++++++++++++++++++++++++++++++++++++++@@@@@@@@$$$$$$$$@@@@@@@@++++++++++++++++++++++++++++++++++++++++++++++++",
"++++++++++++++++++++++++++++++++++++++++++++++++++++++++@@@@@@@@$$$$$$$$@@@@@@@@++++++++++++++++++++++++++++++++++++++++++++++++",
"++++++++++++++++++++++++++++++++++++++++++++++++++++++++@@@@@@@@$$$$$$$$@@@@@@@@++++++++++++++++++++++++++++++++++++++++++++++++",
"++++++++++++++++++++++++++++++++++++++++++++++++++++++++@@@@@@@@$$$$$$$$@@@@@@@@++++++++++++++++++++++++++++++++++++++++++++++++",
"++++++++++++++++++++++++++++++++++++++++++++++++++++++++@@@@@@@@%%%%%%%%@@@@@@@@++++++++++++++++++++++++++++++++++++++++++++++++",
"++++++++++++++++++++++++++++++++++++++++++++++++++++++++@@@@@@@@%%%%%%%%@@@@@@@@++++++++++++++++++++++++++++++++++++++++++++++++",
"++++++++++++++++++++++++++++++++++++++++++++++++++++++++@@@@@@@@%%%%%%%%@@@@@@@@++++++++++++++++++++++++++++++++++++++++++++++++",
"++++++++++++++++++++++++++++++++++++++++++++++++++++++++@@@@@@@@%%%%%%%%@@@@@@@@++++++++++++++++++++++++++++++++++++++++++++++++",
"++++++++++++++++++++++++++++++++++++++++++++++++++++++++@@@@@@@@%%%%%%%%@@@@@@@@++++++++++++++++++++++++++++++++++++++++++++++++",
"++++++++++++++++++++++++++++++++++++++++++++++++++++++++@@@@@@@@%%%%%%%%@@@@@@@@++++++++++++++++++++++++++++++++++++++++++++++++",
"++++++++++++++++++++++++++++++++++++++++++++++++++++++++@@@@@@@@%%%%%%%%@@@@@@@@++++++++++++++++++++++++++++++++++++++++++++++++",
"++++++++++++++++++++++++++++++++++++++++++++++++++++++++@@@@@@@@%%%%%%%%@@@@@@@@++++++++++++++++++++++++++++++++++++++++++++++++",
"&&&&&&&&&&&&&&&&&&&&&&&&&&&&&&&&&&&&&&&&&&&&&&&&&&&&&&&&********========****************&&&&&&&&****************&&&&&&&&&&&&&&&&",
"&&&&&&&&&&&&&&&&&&&&&&&&&&&&&&&&&&&&&&&&&&&&&&&&&&&&&&&&********========****************&&&&&&&&****************&&&&&&&&&&&&&&&&",
"&&&&&&&&&&&&&&&&&&&&&&&&&&&&&&&&&&&&&&&&&&&&&&&&&&&&&&&&********========****************&&&&&&&&****************&&&&&&&&&&&&&&&&",
"&&&&&&&&&&&&&&&&&&&&&&&&&&&&&&&&&&&&&&&&&&&&&&&&&&&&&&&&********========****************&&&&&&&&****************&&&&&&&&&&&&&&&&",
"&&&&&&&&&&&&&&&&&&&&&&&&&&&&&&&&&&&&&&&&&&&&&&&&&&&&&&&&********========****************&&&&&&&&****************&&&&&&&&&&&&&&&&",
"&&&&&&&&&&&&&&&&&&&&&&&&&&&&&&&&&&&&&&&&&&&&&&&&&&&&&&&&********========****************&&&&&&&&****************&&&&&&&&&&&&&&&&",
"&&&&&&&&&&&&&&&&&&&&&&&&&&&&&&&&&&&&&&&&&&&&&&&&&&&&&&&&********========****************&&&&&&&&****************&&&&&&&&&&&&&&&&",
"&&&&&&&&&&&&&&&&&&&&&&&&&&&&&&&&&&&&&&&&&&&&&&&&&&&&&&&&********========****************&&&&&&&&****************&&&&&&&&&&&&&&&&",
"----------------------------------------;;;;;;;;;;;;;;;;;;;;;;;;>>>>>>>>;;;;;;;;;;;;;;;;,,,,,,,,;;;;;;;;;;;;;;;;,,,,,,,,--------",
"----------------------------------------;;;;;;;;;;;;;;;;;;;;;;;;>>>>>>>>;;;;;;;;;;;;;;;;,,,,,,,,;;;;;;;;;;;;;;;;,,,,,,,,--------",
"----------------------------------------;;;;;;;;;;;;;;;;;;;;;;;;>>>>>>>>;;;;;;;;;;;;;;;;,,,,,,,,;;;;;;;;;;;;;;;;,,,,,,,,--------",
"----------------------------------------;;;;;;;;;;;;;;;;;;;;;;;;>>>>>>>>;;;;;;;;;;;;;;;;,,,,,,,,;;;;;;;;;;;;;;;;,,,,,,,,--------",
"----------------------------------------;;;;;;;;;;;;;;;;;;;;;;;;>>>>>>>>;;;;;;;;;;;;;;;;,,,,,,,,;;;;;;;;;;;;;;;;,,,,,,,,--------",
"----------------------------------------;;;;;;;;;;;;;;;;;;;;;;;;>>>>>>>>;;;;;;;;;;;;;;;;,,,,,,,,;;;;;;;;;;;;;;;;,,,,,,,,--------",
"----------------------------------------;;;;;;;;;;;;;;;;;;;;;;;;>>>>>>>>;;;;;;;;;;;;;;;;,,,,,,,,;;;;;;;;;;;;;;;;,,,,,,,,--------",
"----------------------------------------;;;;;;;;;;;;;;;;;;;;;;;;>>>>>>>>;;;;;;;;;;;;;;;;,,,,,,,,;;;;;;;;;;;;;;;;,,,,,,,,--------",
"---------------------------------------------------------------->>>>>>>>,,,,,,,,,,,,,,,,,,,,,,,,,,,,,,,,,,,,,,,,,,,,,,,,,,,,,,,,",
"---------------------------------------------------------------->>>>>>>>,,,,,,,,,,,,,,,,,,,,,,,,,,,,,,,,,,,,,,,,,,,,,,,,,,,,,,,,",
"---------------------------------------------------------------->>>>>>>>,,,,,,,,,,,,,,,,,,,,,,,,,,,,,,,,,,,,,,,,,,,,,,,,,,,,,,,,",
"---------------------------------------------------------------->>>>>>>>,,,,,,,,,,,,,,,,,,,,,,,,,,,,,,,,,,,,,,,,,,,,,,,,,,,,,,,,",
"---------------------------------------------------------------->>>>>>>>,,,,,,,,,,,,,,,,,,,,,,,,,,,,,,,,,,,,,,,,,,,,,,,,,,,,,,,,",
"---------------------------------------------------------------->>>>>>>>,,,,,,,,,,,,,,,,,,,,,,,,,,,,,,,,,,,,,,,,,,,,,,,,,,,,,,,,",
"---------------------------------------------------------------->>>>>>>>,,,,,,,,,,,,,,,,,,,,,,,,,,,,,,,,,,,,,,,,,,,,,,,,,,,,,,,,",
"---------------------------------------------------------------->>>>>>>>,,,,,,,,,,,,,,,,,,,,,,,,,,,,,,,,,,,,,,,,,,,,,,,,,,,,,,,,",
"''''''''))))))))))))))))))))))))))))))))))))))))))))))))''''''''>>>>>>>>''''''''''''''''''''''''''''''''''''''''''''''''''''''''",
"''''''''))))))))))))))))))))))))))))))))))))))))))))))))''''''''>>>>>>>>''''''''''''''''''''''''''''''''''''''''''''''''''''''''",
"''''''''))))))))))))))))))))))))))))))))))))))))))))))))''''''''>>>>>>>>''''''''''''''''''''''''''''''''''''''''''''''''''''''''",
"''''''''))))))))))))))))))))))))))))))))))))))))))))))))''''''''>>>>>>>>''''''''''''''''''''''''''''''''''''''''''''''''''''''''",
"''''''''))))))))))))))))))))))))))))))))))))))))))))))))''''''''>>>>>>>>''''''''''''''''''''''''''''''''''''''''''''''''''''''''",
"''''''''))))))))))))))))))))))))))))))))))))))))))))))))''''''''>>>>>>>>''''''''''''''''''''''''''''''''''''''''''''''''''''''''",
"''''''''))))))))))))))))))))))))))))))))))))))))))))))))''''''''>>>>>>>>''''''''''''''''''''''''''''''''''''''''''''''''''''''''",
"''''''''))))))))))))))))))))))))))))))))))))))))))))))))''''''''>>>>>>>>''''''''''''''''''''''''''''''''''''''''''''''''''''''''",
"''''''''))))))))))))))))))))))))))))))))))))))))))))))))''''''''>>>>>>>>''''''''''''''''''''''''''''''''''''''''''''''''''''''''",
"''''''''))))))))))))))))))))))))))))))))))))))))))))))))''''''''>>>>>>>>''''''''''''''''''''''''''''''''''''''''''''''''''''''''",
"''''''''))))))))))))))))))))))))))))))))))))))))))))))))''''''''>>>>>>>>''''''''''''''''''''''''''''''''''''''''''''''''''''''''",
"''''''''))))))))))))))))))))))))))))))))))))))))))))))))''''''''>>>>>>>>''''''''''''''''''''''''''''''''''''''''''''''''''''''''",
"''''''''))))))))))))))))))))))))))))))))))))))))))))))))''''''''>>>>>>>>''''''''''''''''''''''''''''''''''''''''''''''''''''''''",
"''''''''))))))))))))))))))))))))))))))))))))))))))))))))''''''''>>>>>>>>''''''''''''''''''''''''''''''''''''''''''''''''''''''''",
"''''''''))))))))))))))))))))))))))))))))))))))))))))))))''''''''>>>>>>>>''''''''''''''''''''''''''''''''''''''''''''''''''''''''",
"''''''''))))))))))))))))))))))))))))))))))))))))))))))))''''''''>>>>>>>>''''''''''''''''''''''''''''''''''''''''''''''''''''''''",
"))))))))))))))))))))))))))))))))))))))))))))))))))))))))))))))))!!!!!!!!''''''''''''''''''''''''''''''''''''''''''''''''))))))))",
"))))))))))))))))))))))))))))))))))))))))))))))))))))))))))))))))!!!!!!!!''''''''''''''''''''''''''''''''''''''''''''''''))))))))",
"))))))))))))))))))))))))))))))))))))))))))))))))))))))))))))))))!!!!!!!!''''''''''''''''''''''''''''''''''''''''''''''''))))))))",
"))))))))))))))))))))))))))))))))))))))))))))))))))))))))))))))))!!!!!!!!''''''''''''''''''''''''''''''''''''''''''''''''))))))))",
"))))))))))))))))))))))))))))))))))))))))))))))))))))))))))))))))!!!!!!!!''''''''''''''''''''''''''''''''''''''''''''''''))))))))",
"))))))))))))))))))))))))))))))))))))))))))))))))))))))))))))))))!!!!!!!!''''''''''''''''''''''''''''''''''''''''''''''''))))))))",
"))))))))))))))))))))))))))))))))))))))))))))))))))))))))))))))))!!!!!!!!''''''''''''''''''''''''''''''''''''''''''''''''))))))))",
"))))))))))))))))))))))))))))))))))))))))))))))))))))))))))))))))!!!!!!!!''''''''''''''''''''''''''''''''''''''''''''''''))))))))",
"))))))))))))))))))))))))~~~~~~~~))))))))))))))))))))))))~~~~~~~~!!!!!!!!))))))))))))))))~~~~~~~~))))))))))))))))~~~~~~~~~~~~~~~~",
"))))))))))))))))))))))))~~~~~~~~))))))))))))))))))))))))~~~~~~~~!!!!!!!!))))))))))))))))~~~~~~~~))))))))))))))))~~~~~~~~~~~~~~~~",
"))))))))))))))))))))))))~~~~~~~~))))))))))))))))))))))))~~~~~~~~!!!!!!!!))))))))))))))))~~~~~~~~))))))))))))))))~~~~~~~~~~~~~~~~",
"))))))))))))))))))))))))~~~~~~~~))))))))))))))))))))))))~~~~~~~~!!!!!!!!))))))))))))))))~~~~~~~~))))))))))))))))~~~~~~~~~~~~~~~~",
"))))))))))))))))))))))))~~~~~~~~))))))))))))))))))))))))~~~~~~~~!!!!!!!!))))))))))))))))~~~~~~~~))))))))))))))))~~~~~~~~~~~~~~~~",
"))))))))))))))))))))))))~~~~~~~~))))))))))))))))))))))))~~~~~~~~!!!!!!!!))))))))))))))))~~~~~~~~))))))))))))))))~~~~~~~~~~~~~~~~",
"))))))))))))))))))))))))~~~~~~~~))))))))))))))))))))))))~~~~~~~~!!!!!!!!))))))))))))))))~~~~~~~~))))))))))))))))~~~~~~~~~~~~~~~~",
"))))))))))))))))))))))))~~~~~~~~))))))))))))))))))))))))~~~~~~~~!!!!!!!!))))))))))))))))~~~~~~~~))))))))))))))))~~~~~~~~~~~~~~~~",
"~~~~~~~~~~~~~~~~~~~~~~~~~~~~~~~~~~~~~~~~~~~~~~~~~~~~~~~~~~~~~~~~!!!!!!!!~~~~~~~~~~~~~~~~~~~~~~~~~~~~~~~~~~~~~~~~~~~~~~~~~~~~~~~~",
"~~~~~~~~~~~~~~~~~~~~~~~~~~~~~~~~~~~~~~~~~~~~~~~~~~~~~~~~~~~~~~~~!!!!!!!!~~~~~~~~~~~~~~~~~~~~~~~~~~~~~~~~~~~~~~~~~~~~~~~~~~~~~~~~",
"~~~~~~~~~~~~~~~~~~~~~~~~~~~~~~~~~~~~~~~~~~~~~~~~~~~~~~~~~~~~~~~~!!!!!!!!~~~~~~~~~~~~~~~~~~~~~~~~~~~~~~~~~~~~~~~~~~~~~~~~~~~~~~~~",
"~~~~~~~~~~~~~~~~~~~~~~~~~~~~~~~~~~~~~~~~~~~~~~~~~~~~~~~~~~~~~~~~!!!!!!!!~~~~~~~~~~~~~~~~~~~~~~~~~~~~~~~~~~~~~~~~~~~~~~~~~~~~~~~~",
"~~~~~~~~~~~~~~~~~~~~~~~~~~~~~~~~~~~~~~~~~~~~~~~~~~~~~~~~~~~~~~~~!!!!!!!!~~~~~~~~~~~~~~~~~~~~~~~~~~~~~~~~~~~~~~~~~~~~~~~~~~~~~~~~",
"~~~~~~~~~~~~~~~~~~~~~~~~~~~~~~~~~~~~~~~~~~~~~~~~~~~~~~~~~~~~~~~~!!!!!!!!~~~~~~~~~~~~~~~~~~~~~~~~~~~~~~~~~~~~~~~~~~~~~~~~~~~~~~~~",
"~~~~~~~~~~~~~~~~~~~~~~~~~~~~~~~~~~~~~~~~~~~~~~~~~~~~~~~~~~~~~~~~!!!!!!!!~~~~~~~~~~~~~~~~~~~~~~~~~~~~~~~~~~~~~~~~~~~~~~~~~~~~~~~~",
"~~~~~~~~~~~~~~~~~~~~~~~~~~~~~~~~~~~~~~~~~~~~~~~~~~~~~~~~~~~~~~~~!!!!!!!!~~~~~~~~~~~~~~~~~~~~~~~~~~~~~~~~~~~~~~~~~~~~~~~~~~~~~~~~",
"{{{{{{{{{{{{{{{{{{{{{{{{{{{{{{{{{{{{{{{{{{{{{{{{{{{{{{{{~~~~~~~~!!!!!!!!~~~~~~~~~~~~~~~~~~~~~~~~~~~~~~~~~~~~~~~~~~~~~~~~~~~~~~~~",
"{{{{{{{{{{{{{{{{{{{{{{{{{{{{{{{{{{{{{{{{{{{{{{{{{{{{{{{{~~~~~~~~!!!!!!!!~~~~~~~~~~~~~~~~~~~~~~~~~~~~~~~~~~~~~~~~~~~~~~~~~~~~~~~~",
"{{{{{{{{{{{{{{{{{{{{{{{{{{{{{{{{{{{{{{{{{{{{{{{{{{{{{{{{~~~~~~~~!!!!!!!!~~~~~~~~~~~~~~~~~~~~~~~~~~~~~~~~~~~~~~~~~~~~~~~~~~~~~~~~",
"{{{{{{{{{{{{{{{{{{{{{{{{{{{{{{{{{{{{{{{{{{{{{{{{{{{{{{{{~~~~~~~~!!!!!!!!~~~~~~~~~~~~~~~~~~~~~~~~~~~~~~~~~~~~~~~~~~~~~~~~~~~~~~~~",
"{{{{{{{{{{{{{{{{{{{{{{{{{{{{{{{{{{{{{{{{{{{{{{{{{{{{{{{{~~~~~~~~!!!!!!!!~~~~~~~~~~~~~~~~~~~~~~~~~~~~~~~~~~~~~~~~~~~~~~~~~~~~~~~~",
"{{{{{{{{{{{{{{{{{{{{{{{{{{{{{{{{{{{{{{{{{{{{{{{{{{{{{{{{~~~~~~~~!!!!!!!!~~~~~~~~~~~~~~~~~~~~~~~~~~~~~~~~~~~~~~~~~~~~~~~~~~~~~~~~",
"{{{{{{{{{{{{{{{{{{{{{{{{{{{{{{{{{{{{{{{{{{{{{{{{{{{{{{{{~~~~~~~~!!!!!!!!~~~~~~~~~~~~~~~~~~~~~~~~~~~~~~~~~~~~~~~~~~~~~~~~~~~~~~~~",
"{{{{{{{{{{{{{{{{{{{{{{{{{{{{{{{{{{{{{{{{{{{{{{{{{{{{{{{{~~~~~~~~!!!!!!!!~~~~~~~~~~~~~~~~~~~~~~~~~~~~~~~~~~~~~~~~~~~~~~~~~~~~~~~~",
"]]]]]]]]]]]]]]]]^^^^^^^^^^^^^^^^^^^^^^^^^^^^^^^^^^^^^^^^^^^^^^^^!!!!!!!!////////////////////////////////////////////////////////",
"]]]]]]]]]]]]]]]]^^^^^^^^^^^^^^^^^^^^^^^^^^^^^^^^^^^^^^^^^^^^^^^^!!!!!!!!////////////////////////////////////////////////////////",
"]]]]]]]]]]]]]]]]^^^^^^^^^^^^^^^^^^^^^^^^^^^^^^^^^^^^^^^^^^^^^^^^!!!!!!!!////////////////////////////////////////////////////////",
"]]]]]]]]]]]]]]]]^^^^^^^^^^^^^^^^^^^^^^^^^^^^^^^^^^^^^^^^^^^^^^^^!!!!!!!!////////////////////////////////////////////////////////",
"]]]]]]]]]]]]]]]]^^^^^^^^^^^^^^^^^^^^^^^^^^^^^^^^^^^^^^^^^^^^^^^^!!!!!!!!////////////////////////////////////////////////////////",
"]]]]]]]]]]]]]]]]^^^^^^^^^^^^^^^^^^^^^^^^^^^^^^^^^^^^^^^^^^^^^^^^!!!!!!!!////////////////////////////////////////////////////////",
"]]]]]]]]]]]]]]]]^^^^^^^^^^^^^^^^^^^^^^^^^^^^^^^^^^^^^^^^^^^^^^^^!!!!!!!!////////////////////////////////////////////////////////",
"]]]]]]]]]]]]]]]]^^^^^^^^^^^^^^^^^^^^^^^^^^^^^^^^^^^^^^^^^^^^^^^^!!!!!!!!////////////////////////////////////////////////////////",
"]]]]]]]]]]]]]]]]]]]]]]]]]]]]]]]]]]]]]]]]]]]]]]]]]]]]]]]]]]]]]]]]!!!!!!!!]]]]]]]]]]]]]]]]]]]]]]]]]]]]]]]]]]]]]]]]]]]]]]]]]]]]]]]]",
"]]]]]]]]]]]]]]]]]]]]]]]]]]]]]]]]]]]]]]]]]]]]]]]]]]]]]]]]]]]]]]]]!!!!!!!!]]]]]]]]]]]]]]]]]]]]]]]]]]]]]]]]]]]]]]]]]]]]]]]]]]]]]]]]",
"]]]]]]]]]]]]]]]]]]]]]]]]]]]]]]]]]]]]]]]]]]]]]]]]]]]]]]]]]]]]]]]]!!!!!!!!]]]]]]]]]]]]]]]]]]]]]]]]]]]]]]]]]]]]]]]]]]]]]]]]]]]]]]]]",
"]]]]]]]]]]]]]]]]]]]]]]]]]]]]]]]]]]]]]]]]]]]]]]]]]]]]]]]]]]]]]]]]!!!!!!!!]]]]]]]]]]]]]]]]]]]]]]]]]]]]]]]]]]]]]]]]]]]]]]]]]]]]]]]]",
"]]]]]]]]]]]]]]]]]]]]]]]]]]]]]]]]]]]]]]]]]]]]]]]]]]]]]]]]]]]]]]]]!!!!!!!!]]]]]]]]]]]]]]]]]]]]]]]]]]]]]]]]]]]]]]]]]]]]]]]]]]]]]]]]",
"]]]]]]]]]]]]]]]]]]]]]]]]]]]]]]]]]]]]]]]]]]]]]]]]]]]]]]]]]]]]]]]]!!!!!!!!]]]]]]]]]]]]]]]]]]]]]]]]]]]]]]]]]]]]]]]]]]]]]]]]]]]]]]]]",
"]]]]]]]]]]]]]]]]]]]]]]]]]]]]]]]]]]]]]]]]]]]]]]]]]]]]]]]]]]]]]]]]!!!!!!!!]]]]]]]]]]]]]]]]]]]]]]]]]]]]]]]]]]]]]]]]]]]]]]]]]]]]]]]]",
"]]]]]]]]]]]]]]]]]]]]]]]]]]]]]]]]]]]]]]]]]]]]]]]]]]]]]]]]]]]]]]]]!!!!!!!!]]]]]]]]]]]]]]]]]]]]]]]]]]]]]]]]]]]]]]]]]]]]]]]]]]]]]]]]",
"((((((((((((((((((((((((((((((((((((((((((((((((((((((((((((((((________((((((((((((((((((((((((((((((((((((((((((((((((((((((((",
"((((((((((((((((((((((((((((((((((((((((((((((((((((((((((((((((________((((((((((((((((((((((((((((((((((((((((((((((((((((((((",
"((((((((((((((((((((((((((((((((((((((((((((((((((((((((((((((((________((((((((((((((((((((((((((((((((((((((((((((((((((((((((",
"((((((((((((((((((((((((((((((((((((((((((((((((((((((((((((((((________((((((((((((((((((((((((((((((((((((((((((((((((((((((((",
"((((((((((((((((((((((((((((((((((((((((((((((((((((((((((((((((________((((((((((((((((((((((((((((((((((((((((((((((((((((((((",
"((((((((((((((((((((((((((((((((((((((((((((((((((((((((((((((((________((((((((((((((((((((((((((((((((((((((((((((((((((((((((",
"((((((((((((((((((((((((((((((((((((((((((((((((((((((((((((((((________((((((((((((((((((((((((((((((((((((((((((((((((((((((((",
"((((((((((((((((((((((((((((((((((((((((((((((((((((((((((((((((________(((((((((((((((((((((((((((((((((((((((((((((((((((((((("};
