/* XPM */
static char * C:\Users\ivan\Desktop\sprites\muro_exterior_abajo_derecha_xpm[] = {
"128 128 36 1",
" 	c None",
".	c #868579",
"+	c #94928B",
"@	c #5B3C29",
"#	c #8B8A7F",
"$	c #99978F",
"%	c #76726A",
"&	c #79756D",
"*	c #767269",
"=	c #4F2913",
"-	c #6D685F",
";	c #6B665D",
">	c #6A665C",
",	c #6A655C",
"'	c #767169",
")	c #6C675E",
"!	c #6B655D",
"~	c #746F67",
"{	c #686359",
"]	c #686259",
"^	c #7A776F",
"/	c #686159",
"(	c #686158",
"_	c #79766E",
":	c #69645B",
"<	c #676158",
"[	c #676157",
"}	c #76736B",
"|	c #69635B",
"1	c #666057",
"2	c #665F56",
"3	c #726F67",
"4	c #68625A",
"5	c #676159",
"6	c #655F55",
"7	c #655E55",
"........................................++++++++@@@@@@@@                                                                        ",
"........................................++++++++@@@@@@@@                                                                        ",
"........................................++++++++@@@@@@@@                                                                        ",
"........................................++++++++@@@@@@@@                                                                        ",
"........................................++++++++@@@@@@@@                                                                        ",
"........................................++++++++@@@@@@@@                                                                        ",
"........................................++++++++@@@@@@@@                                                                        ",
"........................................++++++++@@@@@@@@                                                                        ",
"########................................++++++++@@@@@@@@                                                                        ",
"########................................++++++++@@@@@@@@                                                                        ",
"########................................++++++++@@@@@@@@                                                                        ",
"########................................++++++++@@@@@@@@                                                                        ",
"########................................++++++++@@@@@@@@                                                                        ",
"########................................++++++++@@@@@@@@                                                                        ",
"########................................++++++++@@@@@@@@                                                                        ",
"########................................++++++++@@@@@@@@                                                                        ",
"########................................$$$$$$$$@@@@@@@@                                                                        ",
"########................................$$$$$$$$@@@@@@@@                                                                        ",
"########................................$$$$$$$$@@@@@@@@                                                                        ",
"########................................$$$$$$$$@@@@@@@@                                                                        ",
"########................................$$$$$$$$@@@@@@@@                                                                        ",
"########................................$$$$$$$$@@@@@@@@                                                                        ",
"########................................$$$$$$$$@@@@@@@@                                                                        ",
"########................................$$$$$$$$@@@@@@@@                                                                        ",
"########........................$$$$$$$$%%%%%%%%@@@@@@@@                                                                        ",
"########........................$$$$$$$$%%%%%%%%@@@@@@@@                                                                        ",
"########........................$$$$$$$$%%%%%%%%@@@@@@@@                                                                        ",
"########........................$$$$$$$$%%%%%%%%@@@@@@@@                                                                        ",
"########........................$$$$$$$$%%%%%%%%@@@@@@@@                                                                        ",
"########........................$$$$$$$$%%%%%%%%@@@@@@@@                                                                        ",
"########........................$$$$$$$$%%%%%%%%@@@@@@@@                                                                        ",
"########........................$$$$$$$$%%%%%%%%@@@@@@@@                                                                        ",
"$$$$$$$$$$$$$$$$$$$$$$$$$$$$$$$$&&&&&&&&********========                                                                        ",
"$$$$$$$$$$$$$$$$$$$$$$$$$$$$$$$$&&&&&&&&********========                                                                        ",
"$$$$$$$$$$$$$$$$$$$$$$$$$$$$$$$$&&&&&&&&********========                                                                        ",
"$$$$$$$$$$$$$$$$$$$$$$$$$$$$$$$$&&&&&&&&********========                                                                        ",
"$$$$$$$$$$$$$$$$$$$$$$$$$$$$$$$$&&&&&&&&********========                                                                        ",
"$$$$$$$$$$$$$$$$$$$$$$$$$$$$$$$$&&&&&&&&********========                                                                        ",
"$$$$$$$$$$$$$$$$$$$$$$$$$$$$$$$$&&&&&&&&********========                                                                        ",
"$$$$$$$$$$$$$$$$$$$$$$$$$$$$$$$$&&&&&&&&********========                                                                        ",
"--------;;;;;;;;>>>>>>>>,,,,,,,,$$$$$$$$''''''''========                                                                        ",
"--------;;;;;;;;>>>>>>>>,,,,,,,,$$$$$$$$''''''''========                                                                        ",
"--------;;;;;;;;>>>>>>>>,,,,,,,,$$$$$$$$''''''''========                                                                        ",
"--------;;;;;;;;>>>>>>>>,,,,,,,,$$$$$$$$''''''''========                                                                        ",
"--------;;;;;;;;>>>>>>>>,,,,,,,,$$$$$$$$''''''''========                                                                        ",
"--------;;;;;;;;>>>>>>>>,,,,,,,,$$$$$$$$''''''''========                                                                        ",
"--------;;;;;;;;>>>>>>>>,,,,,,,,$$$$$$$$''''''''========                                                                        ",
"--------;;;;;;;;>>>>>>>>,,,,,,,,$$$$$$$$''''''''========                                                                        ",
"))))))))!!!!!!!!,,,,,,,,,,,,,,,,$$$$$$$$~~~~~~~~========                                                                        ",
"))))))))!!!!!!!!,,,,,,,,,,,,,,,,$$$$$$$$~~~~~~~~========                                                                        ",
"))))))))!!!!!!!!,,,,,,,,,,,,,,,,$$$$$$$$~~~~~~~~========                                                                        ",
"))))))))!!!!!!!!,,,,,,,,,,,,,,,,$$$$$$$$~~~~~~~~========                                                                        ",
"))))))))!!!!!!!!,,,,,,,,,,,,,,,,$$$$$$$$~~~~~~~~========                                                                        ",
"))))))))!!!!!!!!,,,,,,,,,,,,,,,,$$$$$$$$~~~~~~~~========                                                                        ",
"))))))))!!!!!!!!,,,,,,,,,,,,,,,,$$$$$$$$~~~~~~~~========                                                                        ",
"))))))))!!!!!!!!,,,,,,,,,,,,,,,,$$$$$$$$~~~~~~~~========                                                                        ",
",,,,,,,,{{{{{{{{{{{{{{{{]]]]]]]]]]]]]]]]^^^^^^^^========                                                                        ",
",,,,,,,,{{{{{{{{{{{{{{{{]]]]]]]]]]]]]]]]^^^^^^^^========                                                                        ",
",,,,,,,,{{{{{{{{{{{{{{{{]]]]]]]]]]]]]]]]^^^^^^^^========                                                                        ",
",,,,,,,,{{{{{{{{{{{{{{{{]]]]]]]]]]]]]]]]^^^^^^^^========                                                                        ",
",,,,,,,,{{{{{{{{{{{{{{{{]]]]]]]]]]]]]]]]^^^^^^^^========                                                                        ",
",,,,,,,,{{{{{{{{{{{{{{{{]]]]]]]]]]]]]]]]^^^^^^^^========                                                                        ",
",,,,,,,,{{{{{{{{{{{{{{{{]]]]]]]]]]]]]]]]^^^^^^^^========                                                                        ",
",,,,,,,,{{{{{{{{{{{{{{{{]]]]]]]]]]]]]]]]^^^^^^^^========                                                                        ",
",,,,,,,,{{{{{{{{{{{{{{{{]]]]]]]]]]]]]]]]^^^^^^^^========                                                                        ",
",,,,,,,,{{{{{{{{{{{{{{{{]]]]]]]]]]]]]]]]^^^^^^^^========                                                                        ",
",,,,,,,,{{{{{{{{{{{{{{{{]]]]]]]]]]]]]]]]^^^^^^^^========                                                                        ",
",,,,,,,,{{{{{{{{{{{{{{{{]]]]]]]]]]]]]]]]^^^^^^^^========                                                                        ",
",,,,,,,,{{{{{{{{{{{{{{{{]]]]]]]]]]]]]]]]^^^^^^^^========                                                                        ",
",,,,,,,,{{{{{{{{{{{{{{{{]]]]]]]]]]]]]]]]^^^^^^^^========                                                                        ",
",,,,,,,,{{{{{{{{{{{{{{{{]]]]]]]]]]]]]]]]^^^^^^^^========                                                                        ",
",,,,,,,,{{{{{{{{{{{{{{{{]]]]]]]]]]]]]]]]^^^^^^^^========                                                                        ",
",,,,,,,,////////////////((((((((((((((((________========                                                                        ",
",,,,,,,,////////////////((((((((((((((((________========                                                                        ",
",,,,,,,,////////////////((((((((((((((((________========                                                                        ",
",,,,,,,,////////////////((((((((((((((((________========                                                                        ",
",,,,,,,,////////////////((((((((((((((((________========                                                                        ",
",,,,,,,,////////////////((((((((((((((((________========                                                                        ",
",,,,,,,,////////////////((((((((((((((((________========                                                                        ",
",,,,,,,,////////////////((((((((((((((((________========                                                                        ",
"::::::::((((((((((((((((<<<<<<<<[[[[[[[[}}}}}}}}========                                                                        ",
"::::::::((((((((((((((((<<<<<<<<[[[[[[[[}}}}}}}}========                                                                        ",
"::::::::((((((((((((((((<<<<<<<<[[[[[[[[}}}}}}}}========                                                                        ",
"::::::::((((((((((((((((<<<<<<<<[[[[[[[[}}}}}}}}========                                                                        ",
"::::::::((((((((((((((((<<<<<<<<[[[[[[[[}}}}}}}}========                                                                        ",
"::::::::((((((((((((((((<<<<<<<<[[[[[[[[}}}}}}}}========                                                                        ",
"::::::::((((((((((((((((<<<<<<<<[[[[[[[[}}}}}}}}========                                                                        ",
"::::::::((((((((((((((((<<<<<<<<[[[[[[[[}}}}}}}}========                                                                        ",
"||||||||[[[[[[[[[[[[[[[[1111111111111111}}}}}}}}========                                                                        ",
"||||||||[[[[[[[[[[[[[[[[1111111111111111}}}}}}}}========                                                                        ",
"||||||||[[[[[[[[[[[[[[[[1111111111111111}}}}}}}}========                                                                        ",
"||||||||[[[[[[[[[[[[[[[[1111111111111111}}}}}}}}========                                                                        ",
"||||||||[[[[[[[[[[[[[[[[1111111111111111}}}}}}}}========                                                                        ",
"||||||||[[[[[[[[[[[[[[[[1111111111111111}}}}}}}}========                                                                        ",
"||||||||[[[[[[[[[[[[[[[[1111111111111111}}}}}}}}========                                                                        ",
"||||||||[[[[[[[[[[[[[[[[1111111111111111}}}}}}}}========                                                                        ",
"||||||||1111111122222222222222222222222233333333========                                                                        ",
"||||||||1111111122222222222222222222222233333333========                                                                        ",
"||||||||1111111122222222222222222222222233333333========                                                                        ",
"||||||||1111111122222222222222222222222233333333========                                                                        ",
"||||||||1111111122222222222222222222222233333333========                                                                        ",
"||||||||1111111122222222222222222222222233333333========                                                                        ",
"||||||||1111111122222222222222222222222233333333========                                                                        ",
"||||||||1111111122222222222222222222222233333333========                                                                        ",
"444444441111111122222222222222222222222233333333========                                                                        ",
"444444441111111122222222222222222222222233333333========                                                                        ",
"444444441111111122222222222222222222222233333333========                                                                        ",
"444444441111111122222222222222222222222233333333========                                                                        ",
"444444441111111122222222222222222222222233333333========                                                                        ",
"444444441111111122222222222222222222222233333333========                                                                        ",
"444444441111111122222222222222222222222233333333========                                                                        ",
"444444441111111122222222222222222222222233333333========                                                                        ",
"5555555566666666666666667777777777777777========                                                                                ",
"5555555566666666666666667777777777777777========                                                                                ",
"5555555566666666666666667777777777777777========                                                                                ",
"5555555566666666666666667777777777777777========                                                                                ",
"5555555566666666666666667777777777777777========                                                                                ",
"5555555566666666666666667777777777777777========                                                                                ",
"5555555566666666666666667777777777777777========                                                                                ",
"5555555566666666666666667777777777777777========                                                                                ",
"========================================                                                                                        ",
"========================================                                                                                        ",
"========================================                                                                                        ",
"========================================                                                                                        ",
"========================================                                                                                        ",
"========================================                                                                                        ",
"========================================                                                                                        ",
"========================================                                                                                        "};
