/* XPM */
static char * sprite_null_xpm[] = {
"128 128 2 1",
" 	c #8D00E3",
".	c #202020",
"                                                                ................................................................",
"                                                                ................................................................",
"                                                                ................................................................",
"                                                                ................................................................",
"                                                                ................................................................",
"                                                                ................................................................",
"                                                                ................................................................",
"                                                                ................................................................",
"                                                                ................................................................",
"                                                                ................................................................",
"                                                                ................................................................",
"                                                                ................................................................",
"                                                                ................................................................",
"                                                                ................................................................",
"                                                                ................................................................",
"                                                                ................................................................",
"                                                                ................................................................",
"                                                                ................................................................",
"                                                                ................................................................",
"                                                                ................................................................",
"                                                                ................................................................",
"                                                                ................................................................",
"                                                                ................................................................",
"                                                                ................................................................",
"                                                                ................................................................",
"                                                                ................................................................",
"                                                                ................................................................",
"                                                                ................................................................",
"                                                                ................................................................",
"                                                                ................................................................",
"                                                                ................................................................",
"                                                                ................................................................",
"                                                                ................................................................",
"                                                                ................................................................",
"                                                                ................................................................",
"                                                                ................................................................",
"                                                                ................................................................",
"                                                                ................................................................",
"                                                                ................................................................",
"                                                                ................................................................",
"                                                                ................................................................",
"                                                                ................................................................",
"                                                                ................................................................",
"                                                                ................................................................",
"                                                                ................................................................",
"                                                                ................................................................",
"                                                                ................................................................",
"                                                                ................................................................",
"                                                                ................................................................",
"                                                                ................................................................",
"                                                                ................................................................",
"                                                                ................................................................",
"                                                                ................................................................",
"                                                                ................................................................",
"                                                                ................................................................",
"                                                                ................................................................",
"                                                                ................................................................",
"                                                                ................................................................",
"                                                                ................................................................",
"                                                                ................................................................",
"                                                                ................................................................",
"                                                                ................................................................",
"                                                                ................................................................",
"                                                                ................................................................",
"................................................................                                                                ",
"................................................................                                                                ",
"................................................................                                                                ",
"................................................................                                                                ",
"................................................................                                                                ",
"................................................................                                                                ",
"................................................................                                                                ",
"................................................................                                                                ",
"................................................................                                                                ",
"................................................................                                                                ",
"................................................................                                                                ",
"................................................................                                                                ",
"................................................................                                                                ",
"................................................................                                                                ",
"................................................................                                                                ",
"................................................................                                                                ",
"................................................................                                                                ",
"................................................................                                                                ",
"................................................................                                                                ",
"................................................................                                                                ",
"................................................................                                                                ",
"................................................................                                                                ",
"................................................................                                                                ",
"................................................................                                                                ",
"................................................................                                                                ",
"................................................................                                                                ",
"................................................................                                                                ",
"................................................................                                                                ",
"................................................................                                                                ",
"................................................................                                                                ",
"................................................................                                                                ",
"................................................................                                                                ",
"................................................................                                                                ",
"................................................................                                                                ",
"................................................................                                                                ",
"................................................................                                                                ",
"................................................................                                                                ",
"................................................................                                                                ",
"................................................................                                                                ",
"................................................................                                                                ",
"................................................................                                                                ",
"................................................................                                                                ",
"................................................................                                                                ",
"................................................................                                                                ",
"................................................................                                                                ",
"................................................................                                                                ",
"................................................................                                                                ",
"................................................................                                                                ",
"................................................................                                                                ",
"................................................................                                                                ",
"................................................................                                                                ",
"................................................................                                                                ",
"................................................................                                                                ",
"................................................................                                                                ",
"................................................................                                                                ",
"................................................................                                                                ",
"................................................................                                                                ",
"................................................................                                                                ",
"................................................................                                                                ",
"................................................................                                                                ",
"................................................................                                                                ",
"................................................................                                                                ",
"................................................................                                                                ",
"................................................................                                                                "};
