/* XPM */
static char * sprite_null_xpm[] = {
"128 128 2 1",
" 	c #3A2348",
".	c #202020",
"                                                                ................................................................",
"                                                                ................................................................",
"                                                                ................................................................",
"                                                                ................................................................",
"                                                                ................................................................",
"                                                                ................................................................",
"                                                                ................................................................",
"                                                                ................................................................",
"                                                                ................................................................",
"                                                                ................................................................",
"                                                                ................................................................",
"                                                                ................................................................",
"                                                                ................................................................",
"                                                                ................................................................",
"                                                                ................................................................",
"                                                                ................................................................",
"                                                                ................................................................",
"                                                                ................................................................",
"                                                                ................................................................",
"                                                                ................................................................",
"                                                                ................................................................",
"                                                                ................................................................",
"                                                                ................................................................",
"                                                                ................................................................",
"                                                                ................................................................",
"                                                                ................................................................",
"                                                                ................................................................",
"                                                                ................................................................",
"                                                                ................................................................",
"                                                                ................................................................",
"                                                                ................................................................",
"                                                                ................................................................",
"                                                                ................................................................",
"                                                                ................................................................",
"                                                                ................................................................",
"                                                                ................................................................",
"                                                                ................................................................",
"                                                                ................................................................",
"                                                                ................................................................",
"                                                                ................................................................",
"                                                                ................................................................",
"                                                                ................................................................",
"                                                                ................................................................",
"                                                                ................................................................",
"                                                                ................................................................",
"                                                                ................................................................",
"                                                                ................................................................",
"                                                                ................................................................",
"                                                                ................................................................",
"                                                                ................................................................",
"                                                                ................................................................",
"                                                                ................................................................",
"                                                                ................................................................",
"                                                                ................................................................",
"                                                                ................................................................",
"                                                                ................................................................",
"                                                                ................................................................",
"                                                                ................................................................",
"                                                                ................................................................",
"                                                                ................................................................",
"                                                                ................................................................",
"                                                                ................................................................",
"                                                                ................................................................",
"                                                                ................................................................",
"................................................................                                                                ",
"................................................................                                                                ",
"................................................................                                                                ",
"................................................................                                                                ",
"................................................................                                                                ",
"................................................................                                                                ",
"................................................................                                                                ",
"................................................................                                                                ",
"................................................................                                                                ",
"................................................................                                                                ",
"................................................................                                                                ",
"................................................................                                                                ",
"................................................................                                                                ",
"................................................................                                                                ",
"................................................................                                                                ",
"................................................................                                                                ",
"................................................................                                                                ",
"................................................................                                                                ",
"................................................................                                                                ",
"................................................................                                                                ",
"................................................................                                                                ",
"................................................................                                                                ",
"................................................................                                                                ",
"................................................................                                                                ",
"................................................................                                                                ",
"................................................................                                                                ",
"................................................................                                                                ",
"................................................................                                                                ",
"................................................................                                                                ",
"................................................................                                                                ",
"................................................................                                                                ",
"................................................................                                                                ",
"................................................................                                                                ",
"................................................................                                                                ",
"................................................................                                                                ",
"................................................................                                                                ",
"................................................................                                                                ",
"................................................................                                                                ",
"................................................................                                                                ",
"................................................................                                                                ",
"................................................................                                                                ",
"................................................................                                                                ",
"................................................................                                                                ",
"................................................................                                                                ",
"................................................................                                                                ",
"................................................................                                                                ",
"................................................................                                                                ",
"................................................................                                                                ",
"................................................................                                                                ",
"................................................................                                                                ",
"................................................................                                                                ",
"................................................................                                                                ",
"................................................................                                                                ",
"................................................................                                                                ",
"................................................................                                                                ",
"................................................................                                                                ",
"................................................................                                                                ",
"................................................................                                                                ",
"................................................................                                                                ",
"................................................................                                                                ",
"................................................................                                                                ",
"................................................................                                                                ",
"................................................................                                                                ",
"................................................................                                                                "};
